<svg xmlns="http://www.w3.org/2000/svg" xmlns:xlink="http://www.w3.org/1999/xlink" width="150" zoomAndPan="magnify" viewBox="0 0 112.5 112.499997" height="150" preserveAspectRatio="xMidYMid meet" version="1.0"><defs><clipPath id="a724d72e5a"><path d="M 4.566406 15.085938 L 107.605469 15.085938 L 107.605469 29 L 4.566406 29 Z M 4.566406 15.085938 " clip-rule="nonzero"/></clipPath></defs><g clip-path="url(#a724d72e5a)"><path fill="#2b2a2a" d="M 106.023438 17.789062 L 77.292969 15.375 C 77.292969 15.375 77.199219 15.375 77.175781 15.375 C 77.128906 15.375 77.105469 15.375 77.058594 15.375 L 5.996094 20.394531 C 5.199219 20.441406 4.566406 21.121094 4.566406 21.917969 L 4.566406 23.675781 C 4.566406 24.449219 5.128906 25.085938 5.878906 25.203125 L 9.585938 25.71875 L 9.585938 25.296875 C 9.585938 25.085938 9.679688 24.875 9.84375 24.710938 C 10.007812 24.566406 10.21875 24.496094 10.453125 24.519531 L 38.457031 28.226562 L 103.632812 21.214844 C 103.84375 21.214844 104.054688 21.261719 104.21875 21.402344 C 104.382812 21.542969 104.476562 21.753906 104.476562 21.964844 L 104.476562 22.644531 L 106.046875 22.480469 C 106.820312 22.386719 107.410156 21.730469 107.410156 20.957031 L 107.410156 19.292969 C 107.410156 18.492188 106.796875 17.835938 106 17.765625 Z M 105.90625 20.980469 L 38.457031 28.25 L 6.089844 23.675781 L 6.089844 22.691406 L 5.996094 22.691406 C 5.996094 22.691406 6.183594 21.167969 6.183594 21.167969 L 10.007812 21.660156 L 77.152344 16.898438 L 101.710938 18.964844 L 105.835938 18.5625 L 105.976562 20.089844 L 105.90625 20.089844 Z M 105.90625 20.980469 " fill-opacity="1" fill-rule="nonzero"/></g><path fill="#2b2a2a" d="M 101.710938 18.964844 L 38.527344 25.25 L 10.007812 21.636719 L 6.089844 21.917969 L 6.089844 22.691406 L 38.410156 26.796875 C 38.410156 26.796875 38.480469 26.796875 38.503906 26.796875 C 38.527344 26.796875 38.550781 26.796875 38.574219 26.796875 L 105.882812 20.089844 L 105.882812 19.316406 L 101.6875 18.964844 Z M 101.710938 18.964844 " fill-opacity="1" fill-rule="nonzero"/><path fill="#2b2a2a" d="M 105.8125 18.5625 L 101.710938 18.964844 L 105.90625 19.316406 L 105.90625 20.089844 L 105.976562 20.089844 Z M 105.8125 18.5625 " fill-opacity="1" fill-rule="nonzero"/><path fill="#2b2a2a" d="M 10.007812 21.636719 L 6.183594 21.167969 L 5.996094 22.691406 L 6.089844 22.691406 L 6.089844 21.917969 Z M 10.007812 21.636719 " fill-opacity="1" fill-rule="nonzero"/><path fill="#2b2a2a" d="M 60.828125 42.394531 L 42.417969 45.652344 L 42.417969 46.566406 L 40.894531 46.566406 L 40.894531 45.628906 L 37.515625 44.949219 L 37.703125 46.542969 L 41.503906 47.316406 C 41.503906 47.316406 41.597656 47.316406 41.667969 47.316406 C 41.714844 47.316406 41.761719 47.316406 41.808594 47.316406 L 61.746094 43.800781 C 62.121094 43.730469 62.378906 43.425781 62.378906 43.050781 L 60.851562 43.050781 L 60.851562 42.417969 Z M 60.828125 42.394531 " fill-opacity="1" fill-rule="nonzero"/><path fill="#2b2a2a" d="M 78.609375 34.347656 L 78.703125 33.621094 C 78.703125 33.621094 78.726562 33.503906 78.75 33.433594 L 75.816406 33.902344 L 78.632812 34.347656 Z M 78.609375 34.347656 " fill-opacity="1" fill-rule="nonzero"/><path fill="#2b2a2a" d="M 21.289062 41.617188 L 21.101562 43.144531 L 27.011719 44.339844 L 26.707031 42.722656 Z M 21.289062 41.617188 " fill-opacity="1" fill-rule="nonzero"/><path fill="#2b2a2a" d="M 80.109375 34.605469 L 81.117188 34.746094 Z M 80.109375 34.605469 " fill-opacity="1" fill-rule="nonzero"/><path fill="#2b2a2a" d="M 11.132812 39.554688 L 11.132812 26.1875 L 38.363281 29.773438 C 38.363281 29.773438 38.480469 29.773438 38.550781 29.773438 L 40.894531 29.515625 C 40.894531 29.515625 38.621094 29.75 38.621094 29.75 C 38.574219 29.75 38.503906 29.75 38.457031 29.75 C 38.386719 29.75 38.316406 29.75 38.246094 29.75 L 9.609375 25.71875 L 9.609375 40.164062 C 9.609375 40.539062 9.867188 40.84375 10.21875 40.914062 L 11.53125 41.171875 L 11.578125 39.625 L 11.132812 39.53125 Z M 11.132812 39.554688 " fill-opacity="1" fill-rule="nonzero"/><path fill="#2b2a2a" d="M 94.71875 23.722656 L 102.953125 22.832031 L 102.953125 33.410156 L 94.71875 35.050781 L 94.71875 35.121094 C 94.71875 35.121094 94.90625 35.027344 95 35.003906 L 101.289062 33.738281 C 101.5 33.691406 101.710938 33.738281 101.898438 33.878906 C 102.0625 33.996094 102.179688 34.207031 102.203125 34.417969 L 102.273438 35.121094 L 103.867188 34.792969 C 104.21875 34.722656 104.476562 34.417969 104.476562 34.042969 L 104.476562 22.667969 Z M 94.71875 23.722656 " fill-opacity="1" fill-rule="nonzero"/><path fill="#2b2a2a" d="M 93.195312 35.988281 L 93.195312 35.097656 L 80.695312 33.128906 C 80.695312 33.128906 85.503906 33.878906 85.503906 33.878906 C 85.714844 33.902344 85.902344 34.042969 86.019531 34.207031 C 86.136719 34.394531 86.183594 34.605469 86.136719 34.816406 L 85.972656 35.496094 L 93.851562 36.742188 C 93.851562 36.742188 94.039062 36.742188 94.109375 36.742188 L 94.554688 36.648438 L 94.414062 35.988281 Z M 93.195312 35.988281 " fill-opacity="1" fill-rule="nonzero"/><path fill="#2b2a2a" d="M 75.605469 32.378906 L 62.355469 34.511719 C 62.355469 34.511719 75.792969 32.378906 75.792969 32.378906 C 75.722656 32.378906 75.675781 32.378906 75.605469 32.378906 Z M 75.605469 32.378906 " fill-opacity="1" fill-rule="nonzero"/><path fill="#2b2a2a" d="M 104.242188 21.425781 C 104.078125 21.285156 103.867188 21.214844 103.65625 21.238281 L 38.480469 28.25 L 10.476562 24.542969 C 10.265625 24.519531 10.03125 24.589844 9.867188 24.734375 C 9.703125 24.875 9.609375 25.085938 9.609375 25.320312 L 9.609375 25.742188 L 38.246094 29.773438 C 38.246094 29.773438 38.386719 29.773438 38.457031 29.773438 C 38.503906 29.773438 38.574219 29.773438 38.621094 29.773438 L 40.894531 29.539062 L 40.894531 28.695312 L 42.417969 28.695312 L 42.417969 29.375 L 60.828125 27.382812 L 60.828125 26.539062 L 62.355469 26.539062 L 62.355469 27.21875 L 93.195312 23.886719 L 93.195312 23.042969 L 94.71875 23.042969 L 94.71875 23.722656 L 104.476562 22.667969 L 104.476562 21.988281 C 104.476562 21.777344 104.382812 21.566406 104.21875 21.425781 Z M 104.242188 21.425781 " fill-opacity="1" fill-rule="nonzero"/><path fill="#2b2a2a" d="M 93.195312 29.585938 L 93.851562 29.492188 L 94.085938 30.996094 L 93.195312 31.136719 L 93.195312 35.097656 L 93.945312 35.214844 L 94.71875 35.074219 L 94.71875 23.722656 L 93.195312 23.886719 Z M 93.195312 29.585938 " fill-opacity="1" fill-rule="nonzero"/><path fill="#2b2a2a" d="M 93.195312 35.097656 L 93.195312 35.988281 L 94.414062 35.988281 L 94.414062 35.894531 C 94.34375 35.589844 94.460938 35.285156 94.71875 35.121094 L 94.71875 35.050781 L 93.945312 35.214844 Z M 93.195312 35.097656 " fill-opacity="1" fill-rule="nonzero"/><path fill="#2b2a2a" d="M 94.71875 23.042969 L 93.195312 23.042969 L 93.195312 23.886719 L 94.71875 23.722656 Z M 94.71875 23.042969 " fill-opacity="1" fill-rule="nonzero"/><path fill="#2b2a2a" d="M 41.644531 45.769531 L 42.417969 45.652344 L 42.417969 29.375 L 40.871094 29.539062 L 40.871094 45.628906 Z M 41.644531 45.769531 " fill-opacity="1" fill-rule="nonzero"/><path fill="#2b2a2a" d="M 42.417969 46.566406 L 42.417969 45.652344 L 41.644531 45.769531 L 40.871094 45.628906 L 40.871094 46.566406 Z M 42.417969 46.566406 " fill-opacity="1" fill-rule="nonzero"/><path fill="#2b2a2a" d="M 42.417969 28.671875 L 40.871094 28.671875 L 40.871094 29.515625 L 42.417969 29.351562 Z M 42.417969 28.671875 " fill-opacity="1" fill-rule="nonzero"/><path fill="#2b2a2a" d="M 61.464844 34.652344 L 62.355469 34.511719 L 62.355469 27.21875 L 60.828125 27.382812 L 60.828125 35.402344 C 60.828125 35.027344 61.113281 34.699219 61.464844 34.652344 Z M 61.464844 34.652344 " fill-opacity="1" fill-rule="nonzero"/><path fill="#2b2a2a" d="M 61.464844 34.652344 C 61.089844 34.722656 60.828125 35.027344 60.828125 35.402344 L 60.828125 43.027344 L 62.355469 43.027344 L 62.355469 36.058594 L 61.699219 36.15625 L 61.464844 34.652344 L 62.355469 34.511719 C 62.355469 34.511719 61.464844 34.652344 61.464844 34.652344 Z M 61.464844 34.652344 " fill-opacity="1" fill-rule="nonzero"/><path fill="#2b2a2a" d="M 62.355469 26.539062 L 60.828125 26.539062 L 60.828125 27.382812 L 62.355469 27.21875 Z M 62.355469 26.539062 " fill-opacity="1" fill-rule="nonzero"/><path fill="#2b2a2a" d="M 75.792969 33.925781 L 75.722656 33.902344 L 62.355469 36.058594 Z M 75.792969 33.925781 " fill-opacity="1" fill-rule="nonzero"/><path fill="#2b2a2a" d="M 93.195312 29.585938 L 75.769531 32.378906 C 75.769531 32.378906 75.816406 32.378906 75.839844 32.378906 L 80.695312 33.128906 L 93.195312 31.136719 Z M 93.195312 29.585938 " fill-opacity="1" fill-rule="nonzero"/><path fill="#2b2a2a" d="M 75.769531 32.378906 L 62.332031 34.511719 L 62.332031 36.058594 L 75.699219 33.902344 L 75.769531 33.902344 C 75.769531 33.902344 78.703125 33.433594 78.703125 33.433594 C 78.75 33.292969 78.84375 33.175781 78.960938 33.082031 C 79.125 32.964844 79.335938 32.894531 79.546875 32.941406 L 80.671875 33.105469 C 80.671875 33.105469 75.816406 32.355469 75.816406 32.355469 C 75.816406 32.355469 75.769531 32.355469 75.746094 32.355469 Z M 75.769531 32.378906 " fill-opacity="1" fill-rule="nonzero"/><path fill="#2b2a2a" d="M 94.085938 30.996094 L 93.851562 29.492188 L 93.195312 29.585938 L 93.195312 31.136719 Z M 94.085938 30.996094 " fill-opacity="1" fill-rule="nonzero"/><path fill="#2b2a2a" d="M 61.699219 36.179688 L 62.355469 36.058594 L 62.355469 34.511719 L 61.464844 34.652344 Z M 61.699219 36.179688 " fill-opacity="1" fill-rule="nonzero"/><path fill="#2b2a2a" d="M 99.621094 62.28125 C 99.878906 63.570312 101.003906 64.484375 102.320312 64.484375 C 103.09375 64.484375 103.84375 64.15625 104.359375 63.570312 C 104.875 62.984375 105.132812 62.210938 105.039062 61.460938 L 102.296875 35.097656 L 94.554688 36.648438 Z M 103.515625 61.625 C 103.5625 61.976562 103.445312 62.304688 103.210938 62.5625 C 102.976562 62.820312 102.648438 62.960938 102.320312 62.960938 C 101.734375 62.960938 101.242188 62.539062 101.121094 61.976562 L 96.058594 36.34375 L 100.769531 35.402344 Z M 103.515625 61.625 " fill-opacity="1" fill-rule="nonzero"/><path fill="#2b2a2a" d="M 101.921875 33.878906 C 101.757812 33.761719 101.523438 33.691406 101.3125 33.738281 L 95.023438 35.003906 C 95.023438 35.003906 94.835938 35.074219 94.742188 35.121094 L 94.742188 35.988281 L 94.4375 35.988281 L 94.578125 36.648438 L 102.320312 35.097656 L 102.25 34.394531 C 102.25 34.183594 102.109375 33.996094 101.945312 33.855469 Z M 101.921875 33.878906 " fill-opacity="1" fill-rule="nonzero"/><path fill="#2b2a2a" d="M 94.414062 35.894531 L 94.414062 35.988281 L 94.742188 35.988281 L 94.742188 35.121094 C 94.507812 35.285156 94.367188 35.589844 94.414062 35.894531 Z M 94.414062 35.894531 " fill-opacity="1" fill-rule="nonzero"/><path fill="#2b2a2a" d="M 84.449219 35.285156 L 79.359375 56.464844 C 79.265625 56.886719 78.867188 57.191406 78.421875 57.191406 C 78.136719 57.191406 77.878906 57.074219 77.691406 56.863281 C 77.503906 56.652344 77.433594 56.394531 77.457031 56.113281 L 78.234375 49.757812 L 76.636719 50.203125 L 75.933594 55.925781 C 75.839844 56.628906 76.074219 57.332031 76.542969 57.871094 C 77.011719 58.410156 77.691406 58.714844 78.398438 58.714844 C 79.546875 58.714844 80.554688 57.941406 80.8125 56.816406 L 85.925781 35.519531 L 81.070312 34.746094 L 84.402344 35.261719 Z M 84.449219 35.285156 " fill-opacity="1" fill-rule="nonzero"/><path fill="#2b2a2a" d="M 79.054688 43.378906 L 80.109375 34.605469 L 78.609375 34.347656 L 77.457031 43.753906 Z M 79.054688 43.378906 " fill-opacity="1" fill-rule="nonzero"/><path fill="#2b2a2a" d="M 86.019531 34.230469 C 85.902344 34.042969 85.714844 33.925781 85.503906 33.902344 L 80.695312 33.152344 L 78.75 33.457031 C 78.75 33.457031 78.703125 33.574219 78.703125 33.644531 L 78.609375 34.371094 L 80.132812 34.605469 L 81.117188 34.769531 L 85.972656 35.542969 L 86.136719 34.863281 C 86.183594 34.652344 86.136719 34.441406 86.019531 34.253906 Z M 86.019531 34.230469 " fill-opacity="1" fill-rule="nonzero"/><path fill="#2b2a2a" d="M 79.007812 33.105469 C 79.007812 33.105469 78.796875 33.316406 78.75 33.457031 L 80.695312 33.152344 L 79.570312 32.988281 C 79.359375 32.964844 79.148438 32.988281 78.984375 33.128906 Z M 79.007812 33.105469 " fill-opacity="1" fill-rule="nonzero"/><path fill="#2b2a2a" d="M 41.878906 92.816406 C 41.949219 93.40625 41.761719 93.96875 41.386719 94.414062 C 41.011719 94.859375 40.449219 95.09375 39.863281 95.09375 C 38.902344 95.09375 38.054688 94.390625 37.867188 93.453125 L 32.050781 62.796875 L 30.574219 63.21875 L 36.367188 93.734375 C 36.695312 95.421875 38.152344 96.617188 39.863281 96.617188 C 40.871094 96.617188 41.855469 96.171875 42.535156 95.421875 C 43.214844 94.671875 43.519531 93.640625 43.402344 92.628906 L 39.441406 60.710938 L 37.9375 61.132812 L 41.855469 92.816406 Z M 41.878906 92.816406 " fill-opacity="1" fill-rule="nonzero"/><path fill="#2b2a2a" d="M 29.285156 56.300781 L 30.292969 61.695312 L 31.769531 61.273438 L 30.761719 55.972656 Z M 29.285156 56.300781 " fill-opacity="1" fill-rule="nonzero"/><path fill="#2b2a2a" d="M 21.875 36.625 L 25.625 37.046875 L 26.707031 42.722656 L 28.324219 43.050781 L 27.035156 36.203125 C 26.964844 35.871094 26.707031 35.613281 26.375 35.589844 L 21.3125 35.027344 C 21.3125 35.027344 21.265625 35.027344 21.21875 35.027344 C 20.839844 35.027344 20.511719 35.308594 20.464844 35.707031 L 19.808594 41.335938 L 21.3125 41.640625 L 21.898438 36.648438 Z M 21.875 36.625 " fill-opacity="1" fill-rule="nonzero"/><path fill="#2b2a2a" d="M 19.597656 42.839844 L 17.910156 57.332031 C 17.910156 57.332031 17.933594 57.332031 17.957031 57.332031 L 19.480469 56.980469 L 21.101562 43.167969 L 19.597656 42.863281 Z M 19.597656 42.839844 " fill-opacity="1" fill-rule="nonzero"/><path fill="#2b2a2a" d="M 18.847656 58.691406 L 18.214844 65.097656 L 18.566406 65.003906 L 19.316406 58.574219 Z M 18.847656 58.691406 " fill-opacity="1" fill-rule="nonzero"/><path fill="#2b2a2a" d="M 34.328125 31.886719 L 35.898438 44.621094 L 37.492188 44.949219 L 35.78125 31.113281 C 35.734375 30.761719 35.476562 30.503906 35.125 30.457031 L 12.820312 27.5 C 12.609375 27.476562 12.398438 27.523438 12.234375 27.664062 C 12.070312 27.804688 11.976562 28.015625 11.953125 28.226562 L 11.578125 39.648438 L 13.101562 39.953125 L 13.453125 29.117188 Z M 34.328125 31.886719 " fill-opacity="1" fill-rule="nonzero"/><path fill="#2b2a2a" d="M 17.347656 66.902344 C 17.160156 66.902344 16.996094 66.832031 16.855469 66.714844 C 16.855469 66.714844 16.832031 66.691406 16.808594 66.667969 L 15.046875 81.675781 C 14.953125 82.523438 14.226562 83.15625 13.382812 83.15625 C 12.914062 83.15625 12.492188 82.96875 12.1875 82.640625 C 11.859375 82.3125 11.695312 81.886719 11.71875 81.417969 L 13.03125 41.453125 L 11.507812 41.148438 L 10.195312 81.371094 C 10.171875 82.242188 10.476562 83.085938 11.085938 83.71875 C 11.695312 84.351562 12.515625 84.703125 13.382812 84.703125 C 15 84.703125 16.386719 83.484375 16.574219 81.863281 L 18.355469 66.621094 L 17.535156 66.855469 C 17.535156 66.855469 17.394531 66.878906 17.324219 66.878906 Z M 17.347656 66.902344 " fill-opacity="1" fill-rule="nonzero"/><path fill="#2b2a2a" d="M 37.140625 54.519531 L 37.773438 59.585938 L 39.253906 59.164062 L 38.644531 54.167969 Z M 37.140625 54.519531 " fill-opacity="1" fill-rule="nonzero"/><path fill="#2b2a2a" d="M 36.953125 52.992188 L 38.457031 52.640625 L 37.679688 46.519531 L 36.109375 46.214844 Z M 36.953125 52.992188 " fill-opacity="1" fill-rule="nonzero"/><path fill="#2b2a2a" d="M 28.628906 44.691406 L 27.011719 44.339844 L 28.980469 54.800781 L 30.480469 54.449219 Z M 28.628906 44.691406 " fill-opacity="1" fill-rule="nonzero"/><path fill="#2b2a2a" d="M 35.898438 44.597656 L 36.109375 46.214844 L 37.679688 46.519531 L 37.492188 44.925781 Z M 35.898438 44.597656 " fill-opacity="1" fill-rule="nonzero"/><path fill="#2b2a2a" d="M 13.101562 39.953125 L 11.578125 39.625 L 11.53125 41.195312 L 13.054688 41.5 Z M 13.101562 39.953125 " fill-opacity="1" fill-rule="nonzero"/><path fill="#2b2a2a" d="M 19.785156 41.3125 L 19.597656 42.839844 L 21.101562 43.144531 L 21.289062 41.617188 Z M 19.785156 41.3125 " fill-opacity="1" fill-rule="nonzero"/><path fill="#2b2a2a" d="M 28.324219 43.050781 L 26.707031 42.722656 L 27.011719 44.339844 L 28.628906 44.691406 Z M 28.324219 43.050781 " fill-opacity="1" fill-rule="nonzero"/><path fill="#2b2a2a" d="M 81.070312 48.398438 L 81.070312 43.871094 C 81.070312 43.636719 80.953125 43.425781 80.789062 43.261719 C 80.601562 43.121094 80.367188 43.050781 80.132812 43.121094 L 79.03125 43.378906 L 78.84375 44.996094 L 79.546875 44.832031 L 79.546875 47.8125 L 78.46875 48.117188 L 78.257812 49.757812 L 80.507812 49.125 C 80.835938 49.03125 81.070312 48.726562 81.070312 48.398438 Z M 81.070312 48.398438 " fill-opacity="1" fill-rule="nonzero"/><path fill="#2b2a2a" d="M 18.566406 65.003906 L 18.355469 66.644531 L 30.574219 63.195312 L 30.292969 61.695312 Z M 18.566406 65.003906 " fill-opacity="1" fill-rule="nonzero"/><path fill="#2b2a2a" d="M 39.253906 59.164062 L 39.441406 60.710938 L 76.660156 50.226562 L 76.871094 48.585938 Z M 39.253906 59.164062 " fill-opacity="1" fill-rule="nonzero"/><path fill="#2b2a2a" d="M 28.980469 54.800781 L 19.503906 56.957031 L 19.316406 58.574219 L 29.285156 56.300781 Z M 28.980469 54.800781 " fill-opacity="1" fill-rule="nonzero"/><path fill="#2b2a2a" d="M 77.246094 45.371094 L 77.457031 43.753906 L 38.457031 52.640625 L 38.644531 54.167969 Z M 77.246094 45.371094 " fill-opacity="1" fill-rule="nonzero"/><path fill="#2b2a2a" d="M 78.84375 44.996094 L 79.054688 43.378906 L 77.457031 43.753906 L 77.246094 45.371094 Z M 78.84375 44.996094 " fill-opacity="1" fill-rule="nonzero"/><path fill="#2b2a2a" d="M 78.46875 48.117188 L 76.871094 48.585938 L 76.660156 50.226562 L 78.257812 49.78125 Z M 78.46875 48.117188 " fill-opacity="1" fill-rule="nonzero"/><path fill="#2b2a2a" d="M 37.773438 59.585938 L 37.960938 61.132812 L 39.441406 60.710938 L 39.253906 59.164062 Z M 37.773438 59.585938 " fill-opacity="1" fill-rule="nonzero"/><path fill="#2b2a2a" d="M 18.214844 65.097656 L 18.847656 58.667969 L 19.316406 58.550781 L 19.503906 56.933594 L 17.980469 57.285156 C 17.980469 57.285156 17.957031 57.285156 17.933594 57.285156 L 16.832031 66.644531 C 16.832031 66.644531 16.855469 66.667969 16.878906 66.691406 C 17.019531 66.808594 17.183594 66.878906 17.371094 66.878906 C 17.441406 66.878906 17.511719 66.878906 17.582031 66.855469 L 18.402344 66.621094 L 18.589844 64.980469 L 18.261719 65.074219 Z M 18.214844 65.097656 " fill-opacity="1" fill-rule="nonzero"/><path fill="#2b2a2a" d="M 31.769531 61.273438 L 30.292969 61.695312 L 30.574219 63.195312 L 32.050781 62.796875 Z M 31.769531 61.273438 " fill-opacity="1" fill-rule="nonzero"/><path fill="#2b2a2a" d="M 37.140625 54.519531 L 38.644531 54.167969 L 38.457031 52.640625 L 36.953125 52.992188 Z M 37.140625 54.519531 " fill-opacity="1" fill-rule="nonzero"/><path fill="#2b2a2a" d="M 28.980469 54.800781 L 29.285156 56.300781 L 30.761719 55.972656 L 30.480469 54.449219 Z M 28.980469 54.800781 " fill-opacity="1" fill-rule="nonzero"/></svg>