<svg xmlns="http://www.w3.org/2000/svg" xmlns:xlink="http://www.w3.org/1999/xlink" width="150" zoomAndPan="magnify" viewBox="0 0 112.5 112.499997" height="150" preserveAspectRatio="xMidYMid meet" version="1.0"><path fill="#2b2a2a" d="M 110.503906 74.066406 C 110.503906 71.394531 110.503906 68.722656 110.503906 66.046875 L 110.503906 65.09375 C 110.503906 63.179688 110.503906 61.199219 110.503906 59.257812 C 110.503906 58.203125 110.503906 56.75 109.460938 55.808594 C 108.976562 55.394531 108.417969 55.144531 107.789062 55.058594 C 107.671875 54.710938 107.507812 54.394531 107.289062 54.101562 C 106.925781 53.566406 106.523438 53.0625 106.078125 52.59375 C 105.890625 52.390625 105.726562 52.171875 105.550781 51.949219 C 105.378906 51.722656 105.257812 51.554688 105.09375 51.367188 C 104.546875 50.753906 103.929688 50.222656 103.242188 49.773438 C 100.671875 48.09375 97.59375 47.910156 95.464844 48.046875 C 95.230469 48.046875 95.003906 48.09375 94.710938 48.121094 C 94.207031 48.199219 93.707031 48.199219 93.203125 48.121094 C 92.769531 48.03125 92.339844 47.917969 91.910156 47.800781 C 91.480469 47.679688 91.15625 47.609375 90.824219 47.527344 C 90.214844 47.40625 89.597656 47.359375 88.972656 47.394531 L 88.882812 47.394531 C 88.207031 47.375 87.539062 47.285156 86.882812 47.121094 C 86.253906 47 85.636719 46.828125 85.035156 46.609375 C 84.554688 46.386719 84.054688 46.242188 83.53125 46.171875 C 83.160156 46.15625 82.792969 46.15625 82.425781 46.171875 L 81.8125 46.171875 C 81.378906 46.171875 80.917969 46.105469 80.453125 46.050781 L 79.8125 45.976562 L 53.742188 43.394531 L 53.671875 41.550781 C 53.597656 39.480469 53.507812 37.558594 53.425781 35.691406 C 53.339844 33.828125 53.214844 31.507812 53.046875 29.136719 L 53.046875 28.683594 C 52.941406 27.253906 52.84375 25.777344 52.597656 24.324219 C 52.507812 23.5 52.136719 22.832031 51.480469 22.324219 C 50.902344 21.953125 50.28125 21.851562 49.613281 22.027344 C 49.226562 22.085938 48.878906 22.242188 48.574219 22.496094 C 48.527344 22.546875 48.484375 22.605469 48.449219 22.667969 L 7.515625 21.457031 L 6.121094 21.457031 C 5.765625 20.960938 5.289062 20.632812 4.699219 20.46875 C 4.113281 20.332031 3.542969 20.382812 2.992188 20.621094 L 2.839844 20.6875 C 2.613281 20.75 2.417969 20.863281 2.253906 21.035156 C 2.089844 21.207031 1.984375 21.40625 1.9375 21.636719 C 1.773438 22.195312 1.675781 22.765625 1.644531 23.347656 C 1.496094 25.175781 1.449219 27.007812 1.492188 28.84375 C 1.492188 30.890625 1.566406 33.132812 1.671875 35.902344 C 1.757812 37.972656 1.863281 40.128906 1.996094 42.484375 C 2.078125 43.988281 2.164062 45.359375 2.246094 46.675781 C 2.246094 47.0625 2.285156 47.429688 2.285156 47.988281 L 2.285156 70.300781 C 2.277344 70.625 2.421875 70.855469 2.710938 70.996094 L 4.429688 71.746094 C 4.507812 71.78125 4.589844 71.800781 4.675781 71.808594 L 4.949219 71.808594 L 7.523438 71.410156 C 7.703125 71.375 7.851562 71.289062 7.96875 71.144531 C 8.085938 71.003906 8.144531 70.839844 8.140625 70.65625 L 8.019531 64.632812 L 11.582031 65.941406 L 11.21875 67.636719 C 11.167969 67.835938 11.191406 68.023438 11.292969 68.203125 C 11.390625 68.382812 11.542969 68.5 11.738281 68.554688 L 12.753906 68.902344 L 12.753906 68.976562 L 13.167969 69.042969 L 20.886719 71.640625 C 20.945312 72.058594 21.148438 72.378906 21.496094 72.613281 C 21.722656 72.726562 21.957031 72.824219 22.195312 72.90625 L 22.480469 73.019531 L 24.703125 73.9375 L 24.914062 74.382812 L 25.132812 74.066406 C 25.398438 74.136719 25.625 74.070312 25.808594 73.871094 C 25.886719 73.796875 25.941406 73.710938 25.984375 73.613281 L 26.945312 73.886719 L 29.957031 74.757812 L 30.070312 74.796875 L 30.3125 74.871094 L 30.644531 75.121094 L 30.761719 75.210938 C 31.652344 75.894531 32.578125 76.515625 33.550781 77.078125 C 34.339844 77.570312 35.1875 77.929688 36.09375 78.152344 L 35.824219 78.90625 C 35.769531 79.070312 35.769531 79.234375 35.828125 79.398438 C 35.882812 79.558594 35.984375 79.6875 36.132812 79.78125 L 44.285156 85.734375 L 44.375 85.796875 L 44.414062 85.796875 C 44.414062 85.855469 44.464844 85.929688 44.511719 86.027344 L 45.261719 88.289062 L 45.261719 88.6875 L 45.453125 88.6875 C 45.609375 88.863281 45.804688 88.949219 46.039062 88.949219 L 46.210938 88.949219 C 46.496094 88.910156 46.691406 88.753906 46.800781 88.492188 L 46.988281 88.445312 L 46.867188 88.078125 L 47.125 76.617188 C 47.355469 76.425781 47.5625 76.210938 47.746094 75.972656 L 47.890625 75.773438 L 47.890625 90.832031 C 47.886719 91.007812 47.933594 91.167969 48.042969 91.308594 C 48.148438 91.449219 48.285156 91.542969 48.457031 91.585938 C 48.53125 91.597656 48.605469 91.597656 48.679688 91.585938 L 48.832031 91.585938 L 60.3125 89.410156 C 60.492188 89.371094 60.636719 89.285156 60.75 89.140625 C 60.863281 89 60.917969 88.839844 60.914062 88.65625 C 60.84375 87.367188 61.132812 86.167969 61.78125 85.050781 C 61.957031 84.792969 62.167969 84.574219 62.414062 84.386719 C 62.582031 84.269531 62.761719 84.171875 62.957031 84.09375 L 63.113281 84.050781 C 63.457031 84.054688 63.792969 84.011719 64.121094 83.921875 L 64.265625 83.882812 C 65.246094 83.703125 66.238281 83.5 67.195312 83.296875 L 67.308594 83.296875 C 70.25 82.679688 73.238281 82.023438 76.121094 81.390625 L 78.914062 80.78125 C 82.222656 80.027344 85.632812 79.277344 88.996094 78.589844 L 89.675781 78.449219 C 92.390625 77.859375 95.199219 77.257812 97.957031 76.738281 L 99.257812 76.503906 L 99.769531 76.421875 L 99.996094 76.421875 C 100.265625 76.378906 100.523438 76.425781 100.761719 76.558594 C 101.003906 76.6875 101.179688 76.878906 101.289062 77.128906 C 101.511719 77.722656 101.585938 78.332031 101.507812 78.960938 L 101.507812 79.125 L 101.878906 79.214844 L 101.492188 79.214844 C 101.425781 79.507812 101.503906 79.761719 101.71875 79.96875 C 101.917969 80.160156 102.152344 80.222656 102.421875 80.15625 L 109.949219 78.652344 C 110.125 78.613281 110.269531 78.523438 110.382812 78.382812 C 110.492188 78.238281 110.546875 78.078125 110.542969 77.898438 Z M 63.332031 82.90625 L 63.25 82.695312 L 63.285156 82.609375 Z M 3.820312 47.046875 L 3.773438 46.292969 C 3.722656 45.539062 3.675781 44.789062 3.628906 44.035156 C 3.511719 41.964844 3.472656 39.9375 3.316406 38.011719 C 3.1875 36.417969 2.605469 24.167969 3.113281 24.273438 L 4.226562 46.105469 C 4.226562 47.300781 4.339844 47.519531 4.226562 47.949219 L 4.59375 70.203125 L 3.789062 69.851562 L 3.789062 48.324219 C 3.839844 47.910156 3.847656 47.476562 3.820312 47.046875 Z M 51.925781 43.199219 L 51.925781 43.140625 L 51.542969 43.140625 L 50.730469 25.964844 L 50.730469 25.128906 C 50.730469 24.632812 50.691406 24.121094 50.652344 23.625 C 50.695312 23.652344 50.730469 23.683594 50.757812 23.722656 C 50.972656 24.0625 51.089844 24.429688 51.105469 24.828125 L 51.21875 25.644531 C 51.21875 25.964844 51.292969 26.320312 51.332031 26.726562 C 51.398438 27.480469 51.46875 28.332031 51.542969 29.375 C 51.664062 31.152344 51.769531 33.082031 51.894531 35.609375 C 51.980469 37.410156 52.0625 39.261719 52.136719 41.265625 L 52.203125 43.152344 Z M 108.945312 70.503906 L 108.945312 77.28125 L 103.050781 78.460938 C 103.089844 77.917969 103.015625 77.390625 102.828125 76.878906 C 102.640625 76.367188 102.355469 75.917969 101.976562 75.527344 C 101.003906 74.675781 99.769531 74.886719 98.785156 75.050781 L 98.84375 75.421875 L 98.699219 75.066406 C 96.40625 75.457031 94.09375 75.949219 91.859375 76.429688 L 90.714844 76.671875 C 86.949219 77.46875 83.140625 78.304688 79.421875 79.109375 L 77.320312 79.570312 C 74.421875 80.203125 71.433594 80.855469 68.488281 81.480469 C 67.246094 81.753906 66.027344 82.007812 64.800781 82.234375 L 63.617188 82.460938 L 63.21875 82.527344 L 63.128906 82.527344 C 63.027344 82.496094 62.929688 82.496094 62.828125 82.527344 C 61.179688 82.777344 60.101562 84.394531 59.671875 85.71875 C 59.449219 86.472656 59.320312 87.246094 59.289062 88.03125 L 49.335938 89.914062 L 49.335938 68.585938 C 49.335938 68.277344 49.335938 67.976562 49.335938 67.667969 C 49.335938 67.09375 49.335938 66.449219 49.335938 65.828125 C 49.335938 65.703125 49.390625 65.589844 49.417969 65.492188 C 49.542969 65.070312 49.734375 64.679688 49.992188 64.324219 C 50.464844 63.730469 51.078125 63.410156 51.835938 63.367188 L 53.921875 63.113281 L 106.441406 56.636719 L 106.871094 56.578125 L 107.058594 56.578125 C 107.203125 56.566406 107.347656 56.566406 107.496094 56.578125 C 107.828125 56.609375 108.125 56.726562 108.382812 56.9375 C 108.960938 57.441406 108.945312 58.308594 108.933594 59.152344 L 108.933594 59.453125 C 108.933594 60.445312 108.933594 61.441406 108.933594 62.464844 C 108.941406 65.144531 108.945312 67.898438 108.945312 70.46875 Z M 63.226562 82.917969 L 63.226562 82.777344 Z M 47.847656 66.355469 L 47.847656 69.082031 C 47.160156 69.175781 46.539062 69.429688 45.980469 69.835938 C 45.554688 70.117188 45.175781 70.453125 44.847656 70.84375 C 45.007812 69.539062 45.347656 68.285156 45.867188 67.078125 C 46.488281 65.636719 47.242188 64.269531 48.125 62.96875 C 48.234375 62.792969 48.269531 62.605469 48.226562 62.402344 C 48.183594 62.199219 48.074219 62.042969 47.898438 61.929688 C 47.730469 61.824219 47.546875 61.78125 47.347656 61.800781 C 47.117188 61.835938 46.9375 61.949219 46.8125 62.148438 C 45.367188 64.25 44.308594 66.53125 43.636719 68.992188 C 43.320312 70.230469 43.210938 71.484375 43.3125 72.757812 L 43.3125 73.148438 C 43.265625 73.320312 43.277344 73.488281 43.351562 73.652344 C 43.292969 73.789062 43.246094 73.925781 43.199219 74.066406 C 42.957031 74.996094 42.8125 75.945312 42.765625 76.90625 L 42.476562 76.714844 C 42.054688 76.429688 41.628906 76.160156 41.207031 75.878906 C 40.785156 75.601562 40.316406 75.300781 39.875 75 C 39.714844 74.894531 39.550781 74.789062 39.398438 74.675781 L 39.339844 74.628906 C 39.625 74.109375 39.867188 73.59375 40.089844 73.179688 C 40.980469 71.167969 41.734375 69.105469 42.351562 66.996094 L 42.507812 66.453125 C 42.78125 65.398438 43.15625 64.378906 43.636719 63.398438 C 44.164062 62.421875 44.796875 61.519531 45.542969 60.695312 C 46.21875 59.945312 46.953125 59.253906 47.746094 58.625 C 48.46875 58.023438 49.246094 57.503906 50.074219 57.066406 C 51.292969 56.542969 52.566406 56.253906 53.890625 56.199219 L 92.25 51.96875 C 92.941406 51.894531 93.664062 51.820312 94.371094 51.757812 C 96.132812 51.625 97.570312 51.546875 98.890625 51.527344 C 99.644531 51.503906 100.394531 51.519531 101.148438 51.578125 C 101.390625 51.59375 101.628906 51.628906 101.863281 51.683594 C 102.132812 51.761719 102.382812 51.875 102.617188 52.03125 L 102.757812 52.121094 C 103.441406 52.519531 104.097656 52.957031 104.730469 53.429688 C 104.851562 53.558594 104.972656 53.6875 105.09375 53.828125 C 105.308594 54.050781 105.515625 54.28125 105.710938 54.523438 L 105.816406 54.644531 C 105.890625 54.742188 106.035156 54.914062 106.152344 55.09375 L 68.042969 59.828125 L 51.699219 61.832031 C 51.121094 61.878906 50.578125 62.039062 50.066406 62.316406 C 49.554688 62.597656 49.125 62.964844 48.773438 63.429688 C 48.246094 64.128906 47.941406 64.914062 47.851562 65.785156 C 47.839844 65.933594 47.847656 66.125 47.847656 66.363281 Z M 22.015625 69.324219 L 22.015625 69.253906 C 22.460938 69.464844 22.988281 69.730469 23.519531 70.007812 C 23.566406 70.027344 23.609375 70.054688 23.648438 70.082031 C 23.648438 70.1875 23.589844 70.308594 23.550781 70.4375 C 23.511719 70.566406 23.484375 70.679688 23.445312 70.796875 C 23.386719 71 23.40625 71.195312 23.507812 71.378906 C 23.605469 71.570312 23.761719 71.695312 23.972656 71.753906 L 24.890625 72.027344 C 24.808594 72.078125 24.730469 72.140625 24.664062 72.214844 L 22.480469 71.3125 C 22.453125 71.175781 22.414062 71.042969 22.363281 70.910156 C 22.441406 70.34375 22.328125 69.816406 22.015625 69.332031 Z M 43.011719 78.507812 Z M 8.191406 50.652344 C 8.191406 50.417969 8.191406 50.164062 8.148438 49.898438 C 8.152344 49.84375 8.152344 49.789062 8.148438 49.734375 C 8.152344 49.707031 8.152344 49.679688 8.148438 49.652344 C 8.226562 49.585938 8.3125 49.535156 8.402344 49.492188 L 8.464844 49.492188 L 19.546875 48.738281 L 18.613281 49.027344 L 18.191406 49.117188 C 17.613281 49.167969 17.140625 49.417969 16.777344 49.871094 C 16.285156 50.644531 15.921875 51.476562 15.675781 52.363281 L 15.5625 52.714844 C 15.429688 53.128906 15.292969 53.558594 15.148438 54.011719 C 15.007812 54.460938 14.804688 55.148438 14.601562 55.703125 C 14.601562 55.808594 14.53125 55.914062 14.480469 56.027344 C 14.300781 56.253906 14.167969 56.507812 14.082031 56.78125 C 14.082031 56.855469 14.027344 56.929688 13.996094 57.015625 L 8.199219 55.507812 C 8.199219 54.613281 8.261719 53.714844 8.269531 52.835938 C 8.214844 52.144531 8.222656 51.398438 8.191406 50.660156 Z M 49.976562 42.214844 C 49.976562 42.476562 49.976562 42.746094 49.976562 43.019531 C 48.171875 43.03125 46.375 43.179688 44.59375 43.460938 L 44.203125 43.515625 C 41.851562 43.824219 39.40625 44.222656 36.71875 44.734375 C 35.410156 44.992188 34.089844 45.222656 32.828125 45.488281 L 10.828125 46.503906 L 8.253906 46.632812 C 8.253906 45.933594 8.207031 45.230469 8.191406 44.523438 C 8.117188 42.144531 8.035156 39.933594 7.945312 37.75 C 7.816406 34.625 7.695312 32.222656 7.554688 29.949219 L 7.554688 29.851562 C 7.449219 28.203125 7.335938 26.597656 7.152344 25.019531 L 47.988281 25.882812 L 49.1875 25.882812 L 49.9375 41.347656 C 49.921875 41.695312 49.976562 41.933594 49.976562 42.214844 Z M 64.429688 47.316406 L 54.847656 47.964844 C 51.347656 48.199219 48.5 48.402344 45.878906 48.597656 C 43.667969 48.753906 41.3125 48.9375 38.925781 49.148438 L 38.171875 49.207031 C 36.417969 49.273438 34.703125 49.566406 33.03125 50.085938 C 32.371094 50.300781 31.789062 50.648438 31.289062 51.125 C 31.054688 51.378906 30.855469 51.660156 30.695312 51.96875 L 30.523438 52.234375 L 30.410156 52.300781 L 30.214844 52.453125 C 29.984375 52.675781 29.789062 52.929688 29.625 53.203125 L 29.582031 53.273438 C 28.941406 54.199219 28.371094 55.207031 27.859375 56.09375 L 27.796875 56.195312 C 27.15625 57.316406 26.488281 58.527344 25.628906 60.117188 C 24.636719 61.945312 23.632812 63.84375 22.566406 65.890625 C 22.277344 65.542969 21.925781 65.292969 21.503906 65.136719 C 20.46875 64.71875 19.398438 64.429688 18.296875 64.265625 C 17.25 64.082031 16.136719 63.925781 14.773438 63.773438 L 13.765625 63.675781 C 14.222656 61.765625 14.636719 60.175781 15.082031 58.707031 L 15.140625 58.496094 C 15.257812 58.347656 15.3125 58.175781 15.300781 57.984375 C 15.359375 57.8125 15.414062 57.640625 15.480469 57.464844 C 15.496094 57.410156 15.515625 57.359375 15.539062 57.308594 L 15.59375 57.171875 C 15.953125 56.679688 16.1875 56.136719 16.300781 55.539062 C 16.339844 55.386719 16.375 55.246094 16.421875 55.109375 L 16.558594 54.671875 C 16.828125 53.808594 17.128906 52.835938 17.507812 51.886719 C 17.632812 51.527344 17.796875 51.191406 18.003906 50.871094 L 18.152344 50.871094 C 18.945312 50.707031 19.714844 50.480469 20.464844 50.1875 L 20.910156 50.035156 C 21.851562 49.703125 22.875 49.328125 24.125 48.851562 L 24.515625 48.695312 C 24.761719 48.589844 25.011719 48.5 25.269531 48.425781 L 25.605469 48.371094 L 29.941406 47.65625 L 33.164062 47.105469 L 33.683594 47.105469 L 33.683594 47.046875 C 34.4375 46.910156 35.191406 46.769531 35.941406 46.617188 C 38.050781 46.195312 40.21875 45.8125 42.386719 45.480469 C 44.933594 45.039062 47.5 44.789062 50.082031 44.726562 L 50.367188 44.726562 L 50.367188 44.789062 L 50.730469 44.789062 L 72.238281 46.949219 Z M 8.035156 23.503906 L 6.929688 23.503906 C 6.929688 23.339844 6.875 23.171875 6.839844 23.015625 L 48.035156 24.234375 L 49.101562 24.234375 L 49.101562 24.378906 Z M 6.355469 37.175781 C 6.453125 39.359375 6.535156 41.601562 6.613281 44.042969 C 6.613281 44.457031 6.613281 44.878906 6.613281 45.300781 C 6.613281 46 6.613281 46.738281 6.6875 47.492188 C 6.6875 47.699219 6.761719 47.875 6.90625 48.023438 C 7.054688 48.167969 7.230469 48.242188 7.441406 48.242188 C 7.171875 48.390625 6.945312 48.589844 6.761719 48.839844 C 6.5 49.25 6.4375 49.6875 6.574219 50.15625 L 6.574219 50.304688 C 6.574219 50.441406 6.574219 50.570312 6.574219 50.699219 C 6.574219 51.058594 6.574219 51.449219 6.574219 51.707031 C 6.574219 52.941406 6.574219 54.183594 6.515625 55.207031 L 6.167969 55.117188 C 5.949219 55.054688 5.746094 55.085938 5.558594 55.207031 L 5.558594 55.246094 L 5.558594 49.320312 C 5.558594 49.070312 5.558594 48.824219 5.558594 48.566406 C 5.558594 48.046875 5.558594 47.519531 5.558594 46.992188 C 5.558594 46.464844 5.492188 45.804688 5.445312 45.222656 L 5.378906 44.351562 L 3.871094 21.917969 L 3.945312 21.917969 C 4.367188 21.878906 4.699219 22.039062 4.933594 22.390625 C 5.035156 22.539062 5.125 22.699219 5.195312 22.863281 L 5.195312 22.941406 C 5.222656 23.015625 5.246094 23.09375 5.265625 23.171875 C 5.332031 23.429688 5.378906 23.699219 5.414062 23.925781 L 5.476562 24.371094 C 5.476562 24.558594 5.527344 24.746094 5.550781 24.941406 C 5.597656 25.339844 5.640625 25.785156 5.6875 26.289062 C 5.777344 27.230469 5.851562 28.261719 5.933594 29.535156 C 6.109375 31.742188 6.226562 34.089844 6.355469 37.175781 Z M 5.558594 63.59375 C 5.636719 63.664062 5.726562 63.71875 5.828125 63.753906 L 6.460938 63.992188 L 6.574219 69.976562 L 5.558594 70.136719 Z M 6.84375 56.816406 L 13.402344 58.503906 C 13.199219 59.09375 13.050781 59.6875 12.890625 60.296875 C 12.542969 61.652344 12.257812 62.984375 12.070312 63.863281 C 12.070312 64.046875 11.988281 64.226562 11.949219 64.398438 L 6.84375 62.472656 Z M 13.261719 65.710938 L 13.386719 65.128906 C 14.050781 65.191406 14.742188 65.257812 15.535156 65.355469 C 17.125 65.511719 18.6875 65.808594 20.222656 66.242188 C 20.507812 66.328125 20.78125 66.4375 21.042969 66.574219 L 21.121094 66.621094 L 20.613281 68.628906 L 13.652344 67.5625 L 12.898438 67.3125 C 13.003906 66.777344 13.125 66.25 13.246094 65.722656 Z M 32.96875 74.433594 C 34 74.75 35.070312 75.082031 36.132812 75.4375 C 36.433594 75.535156 36.6875 75.625 36.929688 75.722656 L 37.074219 75.84375 L 36.664062 76.699219 C 35.761719 76.535156 34.925781 76.191406 34.167969 75.667969 L 34 75.570312 C 33.242188 75.109375 32.507812 74.605469 31.800781 74.066406 Z M 37.878906 77.753906 L 38.683594 76.0625 L 38.742188 76.105469 L 38.878906 76.1875 L 39.941406 76.898438 L 40.519531 77.273438 C 41.160156 77.695312 41.832031 78.132812 42.46875 78.582031 L 42.75 78.777344 L 42.75 78.9375 C 42.746094 78.984375 42.746094 79.03125 42.75 79.082031 L 42.75 79.164062 C 42.789062 79.652344 42.886719 80.132812 43.035156 80.601562 C 43.082031 80.765625 43.125 80.933594 43.164062 81.082031 C 43.367188 81.933594 43.585938 82.769531 43.773438 83.507812 L 37.464844 78.898438 Z M 44.359375 79.261719 C 44.308594 78.996094 44.316406 78.945312 44.359375 78.832031 C 44.566406 78.523438 44.816406 78.257812 45.113281 78.035156 L 45.511719 77.703125 L 45.382812 83.507812 C 45.203125 82.820312 45.03125 82.152344 44.871094 81.496094 L 44.828125 81.316406 C 44.636719 80.578125 44.480469 79.921875 44.34375 79.261719 Z M 46.113281 75.496094 L 45.910156 75.625 C 45.371094 75.941406 44.855469 76.296875 44.367188 76.695312 C 44.433594 75.1875 44.835938 73.777344 45.578125 72.460938 C 45.742188 72.191406 45.929688 71.941406 46.144531 71.710938 C 46.238281 71.609375 46.335938 71.511719 46.4375 71.421875 L 46.695312 71.210938 C 46.863281 71.085938 47.046875 70.980469 47.234375 70.890625 L 47.339844 70.835938 C 47.480469 71.945312 47.382812 73.03125 47.046875 74.097656 C 46.921875 74.445312 46.746094 74.769531 46.527344 75.066406 L 46.46875 75.144531 L 46.339844 75.277344 C 46.265625 75.347656 46.183594 75.410156 46.097656 75.464844 Z M 94.027344 49.832031 C 94.3125 49.832031 94.613281 49.777344 94.90625 49.742188 C 95.3125 49.695312 95.742188 49.652344 96.164062 49.636719 C 97.371094 49.59375 98.5625 49.714844 99.738281 49.996094 L 99.832031 49.996094 C 98.753906 49.996094 97.667969 50.042969 96.617188 50.101562 L 96.523438 50.101562 C 95.101562 50.179688 93.914062 50.277344 92.761719 50.398438 L 54.269531 54.636719 L 53.988281 54.636719 L 52.421875 54.808594 C 51.222656 54.941406 50.089844 55.292969 49.027344 55.871094 C 48.195312 56.355469 47.40625 56.902344 46.664062 57.519531 C 44.867188 58.917969 43.414062 60.613281 42.3125 62.609375 C 41.746094 63.734375 41.308594 64.910156 40.996094 66.132812 L 40.933594 66.335938 C 40.550781 67.613281 40.183594 68.839844 39.722656 69.976562 C 39.226562 71.347656 38.640625 72.679688 37.960938 73.96875 L 37.929688 74.066406 L 37.433594 74.066406 C 37.3125 74.0625 37.199219 74.089844 37.09375 74.148438 C 36.875 74.066406 36.652344 73.992188 36.394531 73.90625 C 35.363281 73.570312 34.355469 73.253906 33.226562 72.90625 C 30.65625 72.152344 28.152344 71.402344 26.035156 70.769531 L 25.132812 70.511719 L 25.207031 70.265625 C 25.296875 70.054688 25.3125 69.839844 25.261719 69.617188 C 25.191406 69.414062 25.074219 69.246094 24.90625 69.113281 C 24.417969 68.734375 23.890625 68.425781 23.324219 68.179688 L 23.136719 68.097656 L 23.414062 67.472656 C 24.167969 66.0625 24.921875 64.542969 25.863281 62.8125 L 25.921875 62.691406 C 27.234375 60.234375 28.585938 57.699219 30.046875 55.28125 C 30.289062 54.898438 30.546875 54.484375 30.800781 54.085938 L 30.945312 53.882812 L 31.042969 53.753906 C 31.042969 53.710938 31.117188 53.65625 31.164062 53.609375 C 31.457031 53.441406 31.683594 53.207031 31.847656 52.910156 L 31.96875 52.699219 C 32.066406 52.519531 32.179688 52.351562 32.316406 52.195312 C 32.71875 51.832031 33.1875 51.582031 33.714844 51.441406 C 34.210938 51.292969 34.710938 51.171875 35.21875 51.082031 L 35.898438 50.976562 L 35.980469 50.976562 C 36.605469 50.902344 37.222656 50.832031 37.808594 50.78125 C 39.835938 50.59375 41.859375 50.433594 44.113281 50.269531 C 46.609375 50.082031 49.277344 49.882812 52.761719 49.644531 C 55.644531 49.441406 58.738281 49.238281 62.226562 49.003906 L 71.167969 48.425781 L 78.050781 47.980469 L 81.503906 47.761719 L 82.613281 47.761719 C 83.097656 47.726562 83.570312 47.792969 84.027344 47.957031 C 84.542969 48.1875 85.074219 48.371094 85.625 48.507812 C 86.367188 48.699219 87.121094 48.84375 87.882812 48.945312 C 88.226562 48.96875 88.570312 48.96875 88.914062 48.945312 C 89.148438 48.945312 89.394531 48.945312 89.628906 48.945312 C 90.230469 49.015625 90.816406 49.148438 91.390625 49.34375 C 92.234375 49.664062 93.109375 49.816406 94.011719 49.800781 Z M 101.855469 79.261719 Z M 101.855469 79.261719 " fill-opacity="1" fill-rule="nonzero"/></svg>