<svg xmlns="http://www.w3.org/2000/svg" xmlns:xlink="http://www.w3.org/1999/xlink" width="150" zoomAndPan="magnify" viewBox="0 0 112.5 112.499997" height="150" preserveAspectRatio="xMidYMid meet" version="1.0"><path fill="#2b2a2a" d="M 30.554688 27.546875 C 30.554688 27.644531 30.554688 27.753906 30.554688 27.859375 L 30.777344 27.859375 C 30.707031 27.746094 30.625 27.632812 30.554688 27.546875 Z M 30.554688 27.546875 " fill-opacity="1" fill-rule="nonzero"/><path fill="#2b2a2a" d="M 50.84375 25.453125 C 50.339844 25.339844 49.832031 25.308594 49.316406 25.371094 C 48.804688 25.476562 48.300781 25.613281 47.789062 25.691406 C 46.621094 25.890625 45.4375 26.042969 44.261719 26.1875 C 41.878906 26.484375 39.496094 26.738281 37.121094 27.042969 C 36.023438 27.179688 34.921875 27.316406 33.832031 27.507812 C 33.550781 27.582031 33.269531 27.59375 32.984375 27.546875 L 30.800781 27.835938 C 31.65625 28.929688 32.328125 29.472656 33.855469 29.226562 C 38.855469 28.394531 43.941406 28.136719 48.925781 27.210938 C 49.859375 27.042969 51.644531 26.820312 51.859375 25.738281 L 51.769531 25.738281 C 51.417969 25.613281 51.148438 25.523438 50.84375 25.453125 Z M 50.84375 25.453125 " fill-opacity="1" fill-rule="nonzero"/><path fill="#2b2a2a" d="M 109.734375 40.964844 L 53.953125 24.804688 L 53.1875 24.5625 C 52.554688 24.371094 51.914062 24.179688 51.257812 24.042969 C 51.527344 24.359375 51.730469 24.71875 51.859375 25.117188 C 51.910156 25.320312 51.910156 25.527344 51.859375 25.730469 L 106.625 41.597656 L 48.589844 56.578125 C 46.195312 57.222656 43.820312 56.976562 42.238281 55.929688 L 4.835938 31.320312 L 6.753906 31.058594 C 6.316406 30.632812 5.90625 30.1875 5.484375 29.753906 L 2.484375 30.152344 L 2.316406 30.152344 L 2.195312 30.195312 C 1.960938 30.304688 1.773438 30.46875 1.636719 30.683594 C 1.496094 30.902344 1.429688 31.136719 1.429688 31.394531 C 1.347656 33 1.347656 34.640625 1.347656 36.230469 C 1.347656 37.03125 1.347656 37.832031 1.347656 38.632812 L 1.347656 39.65625 C 1.226562 39.863281 1.226562 40.070312 1.347656 40.277344 L 1.347656 40.839844 C 1.347656 42.460938 1.285156 44.132812 1.300781 45.773438 C 1.34375 46.617188 1.691406 47.304688 2.339844 47.84375 L 2.339844 51.074219 C 2.320312 51.285156 2.355469 51.488281 2.4375 51.683594 C 2.542969 51.890625 2.679688 52.066406 2.851562 52.21875 C 3.292969 52.609375 3.800781 52.742188 4.378906 52.625 C 4.691406 52.5625 4.976562 52.445312 5.242188 52.265625 C 5.585938 52.105469 5.773438 51.835938 5.804688 51.457031 C 5.804688 51.457031 5.804688 51.378906 5.804688 51.339844 L 16.824219 62.6875 L 16.824219 67.109375 C 16.824219 67.203125 16.824219 67.285156 16.824219 67.378906 C 16.847656 67.648438 16.957031 67.871094 17.160156 68.050781 C 17.355469 68.234375 17.574219 68.382812 17.816406 68.492188 C 18.058594 68.605469 18.316406 68.671875 18.582031 68.695312 C 18.847656 68.71875 19.109375 68.695312 19.371094 68.628906 C 19.628906 68.566406 19.871094 68.457031 20.09375 68.308594 C 20.332031 68.164062 20.453125 67.953125 20.460938 67.675781 L 20.460938 66.390625 L 23.867188 69.859375 C 27.929688 73.984375 32.53125 78.65625 37.097656 83.261719 L 40.238281 86.390625 L 40.238281 90.972656 C 40.238281 91.1875 40.238281 91.402344 40.238281 91.621094 C 40.207031 92.074219 40.207031 92.527344 40.238281 92.980469 C 40.320312 93.820312 41.335938 94.417969 41.992188 94.554688 C 42.144531 94.585938 42.296875 94.601562 42.453125 94.601562 C 43.066406 94.582031 43.621094 94.394531 44.117188 94.035156 C 44.300781 93.921875 44.4375 93.769531 44.535156 93.578125 C 44.628906 93.382812 44.660156 93.179688 44.636719 92.964844 L 44.636719 88.964844 C 44.816406 88.941406 44.992188 88.898438 45.164062 88.84375 L 48.980469 87.429688 C 49.164062 87.425781 49.328125 87.363281 49.46875 87.246094 L 101.609375 67.707031 L 103.007812 67.1875 L 103.296875 67.078125 L 103.296875 68.605469 C 103.269531 68.929688 103.386719 69.183594 103.648438 69.371094 C 103.71875 69.421875 103.792969 69.46875 103.871094 69.507812 C 104.320312 69.769531 104.808594 69.90625 105.328125 69.914062 C 105.945312 69.914062 106.855469 69.492188 106.855469 68.738281 C 106.855469 68.355469 106.855469 67.972656 106.894531 67.589844 C 106.894531 67.40625 106.894531 67.226562 106.894531 67.042969 L 106.933594 65.742188 L 107.304688 65.605469 L 108.261719 65.238281 C 108.578125 65.121094 108.867188 64.953125 109.132812 64.746094 C 109.394531 64.535156 109.621094 64.289062 109.8125 64.007812 C 110 63.726562 110.140625 63.425781 110.234375 63.101562 C 110.328125 62.777344 110.371094 62.445312 110.359375 62.109375 C 110.359375 61.589844 110.359375 61.0625 110.398438 60.582031 L 110.773438 43.019531 C 110.789062 42.421875 110.820312 41.167969 109.734375 40.964844 Z M 4.242188 51.128906 C 4.207031 51.152344 4.171875 51.171875 4.132812 51.1875 L 3.875 51.1875 L 3.757812 51.121094 L 3.757812 49.402344 L 4.285156 49.945312 Z M 18.984375 67.164062 C 18.878906 67.164062 18.808594 67.164062 18.742188 67.21875 L 18.429688 67.21875 L 18.328125 67.15625 L 18.328125 64.253906 L 19.015625 64.957031 Z M 43.15625 92.859375 C 42.984375 92.996094 42.785156 93.074219 42.566406 93.085938 C 42.347656 93.101562 42.144531 93.050781 41.957031 92.9375 L 41.765625 92.769531 C 41.765625 92.660156 41.765625 92.539062 41.765625 92.4375 C 41.761719 92.394531 41.761719 92.347656 41.765625 92.300781 L 41.765625 87.84375 L 41.871094 87.933594 C 42.269531 88.285156 42.71875 88.558594 43.214844 88.75 C 43.214844 89.957031 43.214844 91.15625 43.214844 92.355469 Z M 43.269531 84.160156 C 42.9375 83.988281 42.628906 83.785156 42.34375 83.542969 C 41.90625 83.132812 41.398438 82.847656 40.816406 82.695312 L 40.511719 82.695312 C 40 82.703125 39.574219 82.894531 39.230469 83.277344 C 36.777344 80.824219 34.304688 78.320312 31.914062 75.898438 L 31.761719 75.738281 C 27.984375 71.914062 24.210938 68.082031 20.4375 64.238281 C 20.367188 64.003906 20.214844 63.851562 19.980469 63.78125 L 18.269531 62.039062 C 18.199219 61.820312 18.054688 61.675781 17.832031 61.605469 L 13.320312 57.023438 L 5.601562 49.125 L 5.515625 49.125 L 5.308594 48.914062 L 3.613281 47.164062 L 3.453125 47.003906 C 3 46.6875 2.746094 46.253906 2.691406 45.707031 C 2.691406 44.339844 2.691406 42.964844 2.691406 41.660156 L 23.757812 59.734375 L 23.949219 59.917969 L 24.132812 60.101562 C 24.21875 60.1875 24.3125 60.253906 24.421875 60.304688 L 38.574219 72.449219 L 40.253906 73.898438 C 41.285156 74.785156 42.34375 75.707031 43.40625 76.601562 Z M 43.574219 72.707031 L 8.21875 42.925781 L 6.410156 41.398438 C 5.234375 40.398438 4.019531 39.359375 2.804688 38.34375 L 2.804688 38.292969 C 2.804688 37.527344 2.804688 36.71875 2.804688 35.929688 C 2.804688 34.550781 2.804688 33.175781 2.851562 31.800781 L 2.910156 31.839844 L 35.695312 53.417969 C 37.675781 54.726562 39.65625 56.03125 41.636719 57.328125 C 42.34375 57.773438 43.105469 58.070312 43.925781 58.230469 Z M 104.710938 68.414062 L 104.710938 68.347656 Z M 105.390625 68.226562 L 105.390625 68.332031 L 105.085938 68.332031 L 104.929688 68.285156 C 104.886719 68.277344 104.84375 68.261719 104.800781 68.242188 L 104.757812 68.324219 L 104.757812 66.53125 L 105.238281 66.355469 L 105.457031 66.261719 Z M 108.933594 60.589844 C 108.933594 61.839844 108.980469 63.253906 107.773438 63.75 C 107.277344 63.949219 106.757812 64.140625 106.246094 64.324219 L 105.480469 64.597656 L 49.890625 85.511719 C 49.890625 85.476562 49.890625 85.445312 49.890625 85.40625 C 49.78125 84.761719 49.433594 84.292969 48.84375 84 C 48.511719 83.84375 48.164062 83.769531 47.796875 83.773438 C 47.359375 83.785156 46.925781 83.851562 46.5 83.964844 L 46.332031 83.964844 C 45.925781 84.054688 45.398438 84.160156 44.859375 84.230469 L 44.789062 84.230469 L 44.988281 76.722656 L 101.953125 58.398438 C 102.792969 58.121094 103.632812 57.863281 104.480469 57.632812 C 106.007812 57.160156 107.535156 56.671875 109.0625 56.160156 L 108.988281 59.976562 C 108.925781 60.183594 108.933594 60.414062 108.933594 60.648438 Z M 109.308594 43.027344 C 109.308594 43.109375 109.308594 43.179688 109.308594 43.214844 L 109.085938 53.410156 L 52.179688 71.148438 L 49.667969 71.914062 C 48.140625 72.363281 46.613281 72.835938 45.085938 73.339844 L 45.300781 65.375 C 45.300781 64.566406 45.355469 63.75 45.382812 62.933594 C 45.4375 61.453125 45.5 59.878906 45.5 58.40625 C 46.699219 58.449219 47.875 58.3125 49.035156 58 L 108.839844 42.550781 L 108.988281 42.507812 C 109.097656 42.460938 109.207031 42.425781 109.324219 42.398438 C 109.347656 42.640625 109.34375 42.882812 109.308594 43.125 Z M 109.308594 43.027344 " fill-opacity="1" fill-rule="nonzero"/><path fill="#2b2a2a" d="M 9.59375 33.761719 C 10.15625 33.972656 10.71875 33.972656 11.28125 33.761719 L 14.585938 33.089844 L 23.820312 31.3125 L 29.929688 30.136719 C 30.238281 30.054688 30.4375 29.859375 30.523438 29.546875 C 30.65625 28.988281 30.675781 28.425781 30.585938 27.859375 L 28.90625 28.089844 C 28.917969 28.261719 28.917969 28.433594 28.90625 28.609375 L 10.347656 32.183594 C 9.851562 31.722656 9.378906 31.234375 8.890625 30.769531 L 6.722656 31.058594 C 7.128906 31.464844 7.53125 31.867188 7.945312 32.257812 C 8.4375 32.820312 8.988281 33.324219 9.59375 33.761719 Z M 9.59375 33.761719 " fill-opacity="1" fill-rule="nonzero"/><path fill="#2b2a2a" d="M 7.128906 29.050781 C 6.242188 28.160156 5.414062 27.214844 4.644531 26.21875 C 4.351562 25.859375 4.097656 25.480469 3.882812 25.074219 C 3.816406 24.949219 3.769531 24.820312 3.746094 24.683594 L 3.828125 24.683594 C 4.164062 24.589844 4.507812 24.523438 4.851562 24.445312 C 5.796875 24.253906 6.746094 24.101562 7.691406 23.949219 C 10.242188 23.539062 12.808594 23.1875 15.375 22.820312 L 21.828125 21.964844 C 22.308594 21.84375 22.800781 21.78125 23.300781 21.78125 C 23.769531 22.003906 24.207031 22.28125 24.613281 22.605469 C 25.476562 23.136719 26.265625 23.757812 26.980469 24.46875 C 27.621094 25.109375 28.132812 25.839844 28.507812 26.660156 L 31.664062 26.234375 C 31.5 26.042969 31.339844 25.851562 31.171875 25.667969 C 30.136719 24.53125 29.011719 23.460938 27.921875 22.378906 C 27.417969 21.875 26.914062 21.371094 26.394531 20.851562 C 26.316406 20.765625 26.148438 20.613281 25.988281 20.453125 L 33.203125 19.847656 C 36.3125 19.589844 39.535156 19.085938 42.664062 19.085938 C 43.421875 19.121094 44.046875 19.421875 44.542969 19.996094 C 45.539062 20.84375 46.523438 21.707031 47.46875 22.597656 C 47.933594 23.027344 48.402344 23.46875 48.851562 23.925781 L 48.988281 23.925781 C 49.746094 23.84375 50.492188 23.886719 51.234375 24.058594 C 50.875 23.613281 50.488281 23.195312 50.082031 22.796875 C 49.082031 21.757812 48.003906 20.78125 46.917969 19.828125 C 45.476562 18.582031 44.253906 17.246094 42.253906 17.414062 L 37.0625 17.820312 L 25.058594 18.847656 C 24.859375 18.8125 24.683594 18.851562 24.523438 18.972656 C 24.289062 19.085938 24.117188 19.261719 24.007812 19.496094 C 23.898438 19.726562 23.871094 19.972656 23.925781 20.222656 C 23.640625 20.125 23.347656 20.085938 23.046875 20.109375 C 18.222656 20.46875 13.34375 21.355469 8.539062 22.09375 C 7.257812 22.292969 5.980469 22.492188 4.722656 22.734375 C 4.125 22.824219 3.539062 22.964844 2.964844 23.15625 C 2.84375 23.183594 2.730469 23.234375 2.628906 23.308594 C 2.507812 23.375 2.410156 23.464844 2.339844 23.582031 C 0.972656 25.15625 3.8125 27.953125 4.773438 29.019531 C 4.996094 29.273438 5.242188 29.507812 5.46875 29.785156 L 7.5625 29.5 C 7.433594 29.324219 7.28125 29.195312 7.128906 29.050781 Z M 7.128906 29.050781 " fill-opacity="1" fill-rule="nonzero"/><path fill="#2b2a2a" d="M 28.90625 28.089844 L 30.585938 27.859375 C 30.585938 27.753906 30.585938 27.644531 30.585938 27.546875 C 30.652344 27.632812 30.738281 27.707031 30.808594 27.800781 L 32.992188 27.507812 C 32.714844 27.414062 32.496094 27.25 32.328125 27.011719 C 32.089844 26.753906 31.875 26.476562 31.65625 26.203125 L 28.5 26.628906 C 28.683594 27.019531 28.8125 27.421875 28.890625 27.84375 C 28.898438 27.945312 28.898438 28.011719 28.90625 28.089844 Z M 28.90625 28.089844 " fill-opacity="1" fill-rule="nonzero"/><path fill="#2b2a2a" d="M 6.753906 31.058594 L 8.921875 30.800781 C 8.472656 30.363281 8.011719 29.945312 7.578125 29.5 L 5.484375 29.785156 C 5.90625 30.1875 6.316406 30.632812 6.753906 31.058594 Z M 6.753906 31.058594 " fill-opacity="1" fill-rule="nonzero"/><path fill="#2b2a2a" d="M 48.972656 23.925781 L 48.835938 23.925781 C 49.183594 24.273438 49.507812 24.636719 49.8125 25.019531 C 49.8125 25.058594 49.890625 25.148438 49.941406 25.234375 C 49.730469 25.261719 49.523438 25.304688 49.316406 25.363281 C 49.832031 25.304688 50.339844 25.332031 50.84375 25.445312 C 51.148438 25.523438 51.449219 25.613281 51.753906 25.707031 L 51.84375 25.707031 C 51.894531 25.503906 51.894531 25.300781 51.84375 25.09375 C 51.714844 24.695312 51.515625 24.339844 51.242188 24.019531 C 50.492188 23.859375 49.734375 23.828125 48.972656 23.925781 Z M 48.972656 23.925781 " fill-opacity="1" fill-rule="nonzero"/></svg>