<svg xmlns="http://www.w3.org/2000/svg" xmlns:xlink="http://www.w3.org/1999/xlink" width="150" zoomAndPan="magnify" viewBox="0 0 112.5 112.499997" height="150" preserveAspectRatio="xMidYMid meet" version="1.0"><path fill="#2b2a2a" d="M 80.855469 53.449219 C 80.792969 53.164062 80.753906 52.875 80.742188 52.578125 C 77.347656 51.652344 73.894531 51.210938 70.378906 51.25 L 69.832031 51.25 C 69.816406 50.03125 69.578125 48.863281 69.113281 47.738281 C 68.75 46.90625 68.769531 45.609375 68.789062 44.230469 C 68.835938 43.097656 68.792969 41.960938 68.664062 40.832031 C 68.367188 40.125 68.238281 39.390625 68.269531 38.625 L 68.269531 38.171875 C 68.269531 38.097656 68.269531 38.027344 68.269531 37.960938 L 68.144531 37.960938 L 67.585938 31.972656 L 67.140625 32.027344 C 67.027344 32.027344 55.644531 33.316406 53.765625 33.109375 C 53.679688 33.101562 53.59375 33.082031 53.511719 33.058594 C 53.359375 33.019531 53.203125 32.992188 53.046875 32.984375 C 46.660156 32.726562 42.25 32.5 41.777344 32.40625 C 41.617188 32.347656 41.46875 32.375 41.339844 32.484375 C 41.085938 32.691406 40.886719 32.859375 41.953125 43.015625 C 42.4375 47.671875 43.0625 52.992188 43.136719 53.285156 C 43.207031 53.578125 43.328125 54.035156 45.796875 54.117188 L 45.890625 54.117188 C 45.988281 54.117188 56.277344 52.304688 59.417969 52.359375 C 61.265625 52.394531 63.296875 52.359375 65.25 52.273438 C 66.546875 52.238281 67.785156 52.199219 68.902344 52.195312 L 69.382812 52.195312 C 73.273438 52.066406 77.09375 52.53125 80.839844 53.589844 C 80.839844 53.589844 80.855469 53.476562 80.855469 53.449219 Z M 65.25 51.34375 C 63.296875 51.402344 61.261719 51.460938 59.449219 51.429688 C 56.296875 51.367188 46.648438 53.042969 45.800781 53.191406 C 45.183594 53.1875 44.574219 53.101562 43.980469 52.933594 C 43.699219 51.222656 41.984375 35.878906 41.984375 33.265625 C 42.914062 33.351562 45.496094 33.515625 52.992188 33.816406 C 53.097656 33.824219 53.199219 33.839844 53.296875 33.871094 C 53.417969 33.898438 53.535156 33.921875 53.65625 33.9375 C 55.433594 34.136719 64.613281 33.144531 66.78125 32.90625 L 67.285156 38.351562 L 67.570312 39.96875 L 67.570312 40 C 67.863281 41.394531 67.964844 42.800781 67.878906 44.21875 C 67.878906 45.695312 67.839844 47.085938 68.277344 48.089844 C 68.695312 49.105469 68.917969 50.164062 68.941406 51.261719 C 67.8125 51.261719 66.5625 51.296875 65.25 51.34375 Z M 65.25 51.34375 " fill-opacity="1" fill-rule="nonzero"/><path fill="#2b2a2a" d="M 18.398438 73.390625 L 4.066406 66.574219 C 3.882812 66.484375 3.789062 66.339844 3.785156 66.132812 L 3.785156 41.464844 L 2.914062 41.464844 L 2.914062 66.132812 C 2.917969 66.398438 2.988281 66.640625 3.128906 66.863281 C 3.269531 67.082031 3.457031 67.25 3.691406 67.363281 L 18.246094 74.28125 L 79.605469 68.753906 C 79.605469 68.457031 79.605469 68.164062 79.605469 67.871094 Z M 18.398438 73.390625 " fill-opacity="1" fill-rule="nonzero"/><path fill="#2b2a2a" d="M 9.128906 41.472656 L 8.773438 40.699219 C 9.597656 40.3125 10.460938 40.089844 11.367188 40.035156 L 11.335938 40.914062 C 10.566406 40.960938 9.828125 41.148438 9.128906 41.472656 Z M 9.128906 41.472656 " fill-opacity="1" fill-rule="nonzero"/><path fill="#2b2a2a" d="M 75.847656 59.125 L 75.132812 59.125 C 75.007812 59.125 55.738281 61.121094 55.046875 61.324219 C 54.914062 61.367188 54.820312 61.324219 54.589844 61.179688 L 54.496094 61.125 C 54.972656 59.554688 54.496094 57.429688 54.242188 56.429688 L 55.765625 56.355469 L 55.574219 56.285156 L 80.902344 53.894531 C 80.902344 53.738281 80.859375 53.582031 80.855469 53.429688 C 80.847656 53.277344 80.808594 53.15625 80.789062 53.023438 L 53.722656 55.574219 C 49.9375 54.269531 46.058594 53.367188 42.085938 52.867188 L 41.972656 53.738281 C 45.125 54.144531 48.230469 54.800781 51.28125 55.699219 L 23.28125 57.0625 L 23.179688 57.328125 C 21.1875 62.375 23.933594 64.359375 24.054688 64.445312 L 24.300781 64.613281 L 24.550781 64.445312 C 25.324219 63.914062 29.3125 63.660156 32.234375 63.480469 C 33.972656 63.414062 35.699219 63.253906 37.421875 63 C 39.917969 62.488281 53.550781 62.261719 53.683594 62.261719 L 53.898438 62.261719 L 54.023438 62.097656 L 54.144531 61.9375 C 54.488281 62.195312 54.867188 62.277344 55.285156 62.175781 C 55.878906 62.042969 74.25 60.035156 75.140625 60.007812 L 75.878906 60.007812 C 78.539062 59.914062 80.136719 59.902344 80.726562 59.96875 C 80.683594 59.675781 80.660156 59.378906 80.648438 59.085938 C 79.875 59.019531 78.414062 59.039062 75.847656 59.125 Z M 53.429688 61.40625 C 51.574219 61.40625 39.648438 61.664062 37.230469 62.164062 C 35.546875 62.402344 33.859375 62.554688 32.160156 62.621094 C 28.25 62.867188 25.507812 63.074219 24.34375 63.574219 C 23.832031 63.074219 22.582031 61.40625 23.878906 57.933594 L 53.339844 56.496094 C 53.699219 57.699219 54.183594 60.175781 53.429688 61.40625 Z M 53.429688 61.40625 " fill-opacity="1" fill-rule="nonzero"/><path fill="#2b2a2a" d="M 23.128906 57.5 L 23.1875 54.445312 L 24.0625 54.460938 L 24.007812 57.515625 Z M 23.128906 57.5 " fill-opacity="1" fill-rule="nonzero"/><path fill="#2b2a2a" d="M 23.644531 63.9375 L 24.523438 63.917969 L 24.726562 73.289062 L 23.847656 73.304688 Z M 23.644531 63.9375 " fill-opacity="1" fill-rule="nonzero"/><path fill="#2b2a2a" d="M 18.617188 77.054688 L 3.601562 69.964844 L 3.453125 66.992188 L 4.332031 66.945312 L 4.464844 69.375 L 17.808594 75.699219 L 17.894531 73.828125 L 17.035156 46.347656 C 17.023438 46.054688 16.925781 45.792969 16.738281 45.566406 C 16.554688 45.339844 16.320312 45.191406 16.039062 45.117188 L 3.335938 41.992188 C 3.058594 41.925781 2.917969 41.753906 2.910156 41.472656 C 2.902344 41.1875 3.035156 41.003906 3.308594 40.917969 L 5.449219 40.292969 C 6.28125 40.109375 7.105469 40.132812 7.921875 40.375 L 10.976562 41.113281 C 10.851562 40.261719 10.785156 39.40625 10.769531 38.546875 C 10.699219 37.96875 10.578125 37.402344 10.40625 36.847656 C 10.171875 36.15625 10.046875 35.445312 10.03125 34.714844 C 10.117188 34.050781 11.101562 33.4375 11.746094 33.097656 L 11.707031 32.871094 L 12.261719 32.90625 C 16.96875 33.171875 24.679688 33.570312 25.296875 33.4375 C 25.65625 33.371094 26.828125 33.332031 28.863281 33.277344 C 31.144531 33.273438 33.421875 33.152344 35.691406 32.910156 C 35.738281 32.910156 40.453125 32.011719 41.160156 32.484375 C 41.519531 32.726562 41.550781 33.265625 41.398438 36.308594 C 41.367188 36.976562 41.320312 37.820312 41.347656 38 L 41.398438 38.207031 C 41.820312 39.53125 42.160156 40.871094 42.421875 42.238281 C 42.457031 42.804688 42.441406 43.375 42.371094 43.9375 C 42.226562 45.050781 42.242188 46.160156 42.417969 47.265625 C 43.746094 52.539062 43.128906 53.183594 42.929688 53.398438 C 42.515625 53.84375 41.074219 53.882812 37.355469 53.890625 C 35.507812 53.890625 33.597656 53.890625 32.378906 54.035156 C 29.46875 54.355469 23.734375 54.867188 23.667969 54.875 L 23.214844 54.914062 L 22.800781 46.074219 C 22.726562 45.445312 22.410156 44.984375 21.851562 44.691406 L 7.722656 41.230469 C 7.066406 41.039062 6.402344 41.007812 5.730469 41.140625 L 4.746094 41.425781 L 16.277344 44.265625 C 16.753906 44.382812 17.148438 44.628906 17.457031 45.011719 C 17.765625 45.394531 17.925781 45.828125 17.941406 46.320312 L 18.75 73.835938 Z M 14.097656 41.863281 L 22.175781 43.859375 L 22.21875 43.859375 C 22.640625 44.074219 22.988281 44.375 23.25 44.769531 C 23.515625 45.167969 23.664062 45.601562 23.699219 46.074219 L 24.074219 54.003906 C 25.496094 53.875 29.886719 53.476562 32.308594 53.203125 C 33.570312 53.066406 35.507812 53.066406 37.375 53.058594 C 39.246094 53.050781 41.859375 53.058594 42.324219 52.824219 C 42.488281 52.527344 42.429688 50.890625 41.59375 47.503906 C 41.390625 46.304688 41.367188 45.105469 41.527344 43.898438 C 41.582031 43.386719 41.601562 42.875 41.578125 42.363281 C 41.3125 41.050781 40.984375 39.757812 40.585938 38.480469 L 40.519531 38.253906 C 40.453125 37.597656 40.453125 36.945312 40.519531 36.289062 C 40.59375 35.277344 40.613281 34.265625 40.582031 33.25 C 38.988281 33.289062 37.417969 33.472656 35.859375 33.804688 C 33.542969 34.054688 31.21875 34.179688 28.886719 34.183594 C 27.285156 34.226562 25.769531 34.269531 25.46875 34.328125 C 24.671875 34.488281 15.683594 34.003906 12.765625 33.835938 L 14.097656 41.484375 Z M 11.894531 41.367188 L 13.222656 41.683594 L 13.222656 41.542969 L 11.90625 34.050781 C 11.507812 34.238281 11.171875 34.511719 10.902344 34.867188 C 10.972656 35.464844 11.097656 36.054688 11.277344 36.628906 C 11.496094 37.277344 11.628906 37.941406 11.667969 38.625 C 11.6875 39.542969 11.765625 40.457031 11.894531 41.367188 Z M 3.535156 41.164062 Z M 3.535156 41.164062 " fill-opacity="1" fill-rule="nonzero"/><path fill="#2b2a2a" d="M 79.703125 70.152344 L 17.734375 75.953125 L 18.121094 80.839844 L 18.234375 80.953125 C 18.523438 81.210938 18.863281 81.328125 19.25 81.3125 C 19.640625 81.304688 20.011719 81.214844 20.363281 81.046875 L 20.601562 80.941406 L 20.980469 76.53125 L 79.796875 70.996094 C 79.757812 70.730469 79.730469 70.445312 79.703125 70.152344 Z M 19.769531 80.363281 C 19.507812 80.472656 19.238281 80.488281 18.964844 80.414062 L 18.679688 76.777344 L 20.082031 76.617188 Z M 19.769531 80.363281 " fill-opacity="1" fill-rule="nonzero"/><path fill="#2b2a2a" d="M 5.722656 74.101562 C 5.328125 74.101562 4.953125 74.015625 4.597656 73.84375 L 4.386719 73.730469 L 4.117188 69.964844 L 4.992188 69.898438 L 5.238281 73.183594 C 5.550781 73.28125 5.867188 73.28125 6.179688 73.183594 L 6.367188 70.964844 L 7.246094 71.035156 L 7.011719 73.769531 L 6.800781 73.875 C 6.457031 74.039062 6.101562 74.117188 5.722656 74.101562 Z M 5.722656 74.101562 " fill-opacity="1" fill-rule="nonzero"/><path fill="#2b2a2a" d="M 93.246094 36.847656 L 92.714844 31.109375 L 92.289062 31.15625 C 92.179688 31.15625 81.3125 32.394531 79.519531 32.191406 C 79.433594 32.183594 79.351562 32.167969 79.273438 32.148438 C 79.125 32.105469 78.976562 32.082031 78.824219 32.074219 C 72.734375 31.828125 68.523438 31.613281 68.078125 31.519531 C 67.921875 31.464844 67.78125 31.488281 67.652344 31.59375 C 67.582031 31.648438 67.539062 31.714844 67.519531 31.800781 C 67.519531 32.035156 67.558594 32.273438 67.570312 32.503906 L 67.917969 32.503906 C 68.042969 32.503906 68.164062 32.503906 68.289062 32.503906 C 68.289062 32.464844 68.289062 32.414062 68.289062 32.378906 C 69.175781 32.464844 71.617188 32.617188 78.800781 32.90625 C 78.898438 32.910156 78.992188 32.929688 79.085938 32.957031 L 79.429688 33.023438 C 81.128906 33.210938 89.894531 32.257812 91.960938 32.035156 L 92.449219 37.234375 L 92.71875 38.777344 L 92.71875 38.8125 C 92.996094 40.140625 93.09375 41.484375 93.011719 42.84375 C 93.011719 44.246094 92.972656 45.574219 93.390625 46.535156 C 93.785156 47.503906 93.988281 48.511719 94.003906 49.558594 C 92.914062 49.558594 91.722656 49.605469 90.464844 49.640625 C 88.601562 49.691406 86.679688 49.753906 84.9375 49.71875 C 81.925781 49.667969 72.707031 51.261719 71.902344 51.402344 C 71.570312 51.402344 71.238281 51.363281 70.945312 51.320312 C 71.0625 51.46875 71.195312 51.609375 71.328125 51.746094 C 72.050781 51.777344 72.761719 51.855469 73.472656 51.988281 C 76.339844 51.515625 82.617188 50.523438 84.910156 50.558594 C 86.679688 50.589844 88.617188 50.558594 90.484375 50.476562 C 91.722656 50.445312 92.898438 50.410156 93.972656 50.398438 L 94.421875 50.398438 C 101.527344 50.238281 106.082031 51.96875 106.128906 51.988281 L 106.703125 52.207031 L 106.703125 51.59375 C 106.703125 49.195312 106.609375 41.285156 106.164062 40.449219 C 106.117188 40.359375 106.0625 40.253906 105.75 40.09375 L 109.894531 40.886719 L 109.269531 64.964844 L 79.378906 67.882812 C 79.449219 68.15625 79.53125 68.46875 79.585938 68.75 L 110.085938 65.734375 L 110.75 40.195312 Z M 105.882812 51.015625 C 102.460938 49.992188 98.960938 49.503906 95.386719 49.554688 L 94.863281 49.554688 C 94.851562 48.402344 94.628906 47.292969 94.195312 46.226562 C 93.851562 45.441406 93.871094 44.199219 93.890625 42.902344 C 93.972656 41.476562 93.867188 40.0625 93.578125 38.664062 L 93.417969 37.78125 C 98.964844 38.972656 104.800781 40.441406 105.484375 40.925781 C 105.683594 41.589844 105.835938 46.472656 105.882812 51.015625 Z M 105.882812 51.015625 " fill-opacity="1" fill-rule="nonzero"/><path fill="#2b2a2a" d="M 79.984375 53.664062 C 80.351562 53.894531 80.683594 54.167969 80.980469 54.480469 L 81.425781 54.480469 L 81.234375 54.410156 L 105.882812 52.066406 L 105.882812 56.902344 C 105.863281 56.988281 105.828125 57.066406 105.777344 57.136719 L 105.742188 57.136719 C 105.351562 56.984375 103.960938 56.96875 100.601562 57.082031 L 99.9375 57.082031 C 99.84375 57.082031 88.042969 58.3125 83.003906 58.898438 C 83.003906 58.945312 78.015625 59.257812 80.476562 59.25 C 80.476562 59.476562 80.6875 59.710938 80.6875 59.914062 C 85.449219 59.363281 99.25 57.921875 99.9375 57.921875 L 100.648438 57.921875 C 102.257812 57.808594 103.863281 57.808594 105.472656 57.921875 C 105.722656 58.023438 105.96875 58.007812 106.210938 57.875 C 106.507812 57.664062 106.683594 57.378906 106.734375 57.015625 L 106.734375 51.144531 Z M 79.984375 53.664062 " fill-opacity="1" fill-rule="nonzero"/><path fill="#2b2a2a" d="M 105.648438 57.421875 L 106.488281 57.421875 L 106.488281 65.683594 L 105.648438 65.683594 Z M 105.648438 57.421875 " fill-opacity="1" fill-rule="nonzero"/><path fill="#2b2a2a" d="M 109.269531 65.351562 L 109.269531 67.140625 L 79.511719 70.152344 C 79.511719 70.429688 79.511719 70.769531 79.511719 71.054688 L 110.105469 67.902344 L 110.140625 65.363281 Z M 109.269531 65.351562 " fill-opacity="1" fill-rule="nonzero"/><path fill="#2b2a2a" d="M 107.933594 71.820312 C 107.53125 71.820312 107.175781 71.695312 106.859375 71.449219 L 106.726562 71.335938 L 106.441406 67.824219 L 107.28125 67.75 L 107.53125 70.890625 C 107.789062 71.027344 108.042969 71.027344 108.296875 70.890625 L 108.683594 67.566406 L 109.515625 67.65625 L 109.089844 71.390625 L 108.949219 71.496094 C 108.648438 71.722656 108.308594 71.828125 107.933594 71.820312 Z M 107.933594 71.820312 " fill-opacity="1" fill-rule="nonzero"/><path fill="#2b2a2a" d="M 80.152344 59.390625 L 80.757812 53.804688 L 81.796875 53.917969 L 81.1875 59.503906 Z M 80.152344 59.390625 " fill-opacity="1" fill-rule="nonzero"/></svg>