<svg xmlns="http://www.w3.org/2000/svg" xmlns:xlink="http://www.w3.org/1999/xlink" width="150" zoomAndPan="magnify" viewBox="0 0 112.5 112.499997" height="150" preserveAspectRatio="xMidYMid meet" version="1.0"><defs><clipPath id="8d0360c7f2"><path d="M 7 4.3125 L 105 4.3125 L 105 6 L 7 6 Z M 7 4.3125 " clip-rule="nonzero"/></clipPath><clipPath id="8138ffcf66"><path d="M 8 105 L 104 105 L 104 107.351562 L 8 107.351562 Z M 8 105 " clip-rule="nonzero"/></clipPath><clipPath id="758575da20"><path d="M 0 107.097656 L 112.003906 107.097656 L 112.003906 107.351562 L 0 107.351562 Z M 0 107.097656 " clip-rule="nonzero"/></clipPath></defs><g clip-path="url(#8d0360c7f2)"><path fill="#000000" d="M 7.28125 5.019531 L 104.597656 5.019531 L 104.597656 4.53125 L 7.28125 4.53125 Z M 104.816406 5.238281 L 7.0625 5.238281 L 7.0625 4.3125 L 104.816406 4.3125 L 104.816406 5.238281 " fill-opacity="1" fill-rule="nonzero"/></g><path fill="#000000" d="M 7.28125 41.4375 L 104.597656 41.4375 L 104.597656 40.949219 L 7.28125 40.949219 Z M 104.816406 41.65625 L 7.0625 41.65625 L 7.0625 40.730469 L 104.816406 40.730469 L 104.816406 41.65625 " fill-opacity="1" fill-rule="nonzero"/><path fill="#000000" d="M 7.28125 40.730469 L 38.113281 40.730469 L 38.113281 5.238281 L 7.28125 5.238281 Z M 38.332031 40.949219 L 7.0625 40.949219 L 7.0625 5.019531 L 38.332031 5.019531 L 38.332031 40.949219 " fill-opacity="1" fill-rule="nonzero"/><path fill="#000000" d="M 7.28125 105.46875 L 30.582031 105.46875 L 30.582031 69.980469 L 7.28125 69.980469 Z M 30.800781 105.6875 L 7.0625 105.6875 L 7.0625 69.757812 L 30.800781 69.757812 L 30.800781 105.6875 " fill-opacity="1" fill-rule="nonzero"/><path fill="#000000" d="M 81.355469 105.46875 L 104.65625 105.46875 L 104.65625 69.980469 L 81.355469 69.980469 Z M 104.875 105.6875 L 81.136719 105.6875 L 81.136719 69.757812 L 104.875 69.757812 L 104.875 105.6875 " fill-opacity="1" fill-rule="nonzero"/><path fill="#000000" d="M 30.746094 105.46875 L 54.050781 105.46875 L 54.050781 69.980469 L 30.746094 69.980469 Z M 54.269531 105.6875 L 30.527344 105.6875 L 30.527344 69.757812 L 54.269531 69.757812 L 54.269531 105.6875 " fill-opacity="1" fill-rule="nonzero"/><path fill="#000000" d="M 73.765625 40.730469 L 104.597656 40.730469 L 104.597656 5.238281 L 73.765625 5.238281 Z M 104.816406 40.949219 L 73.546875 40.949219 L 73.546875 5.019531 L 104.816406 5.019531 L 104.816406 40.949219 " fill-opacity="1" fill-rule="nonzero"/><path fill="#000000" d="M 56.050781 40.730469 L 73.546875 40.730469 L 73.546875 5.234375 L 56.050781 5.234375 Z M 73.765625 40.949219 L 55.828125 40.949219 L 55.828125 5.015625 L 73.765625 5.015625 L 73.765625 40.949219 " fill-opacity="1" fill-rule="nonzero"/><path fill="#000000" d="M 38.332031 17.214844 L 55.828125 17.214844 L 55.828125 16.488281 L 38.332031 16.488281 Z M 56.050781 17.433594 L 38.113281 17.433594 L 38.113281 16.269531 L 56.050781 16.269531 L 56.050781 17.433594 " fill-opacity="1" fill-rule="nonzero"/><path fill="#000000" d="M 8.148438 56.625 L 38.113281 56.625 L 38.113281 55.894531 L 8.148438 55.894531 Z M 38.332031 56.84375 L 7.929688 56.84375 L 7.929688 55.675781 L 38.332031 55.675781 L 38.332031 56.84375 " fill-opacity="1" fill-rule="nonzero"/><path fill="#000000" d="M 38.332031 28.929688 L 55.828125 28.929688 L 55.828125 28.199219 L 38.332031 28.199219 Z M 56.050781 29.148438 L 38.113281 29.148438 L 38.113281 27.980469 L 56.050781 27.980469 L 56.050781 29.148438 " fill-opacity="1" fill-rule="nonzero"/><path fill="#000000" d="M 22.804688 40.835938 L 22.585938 40.835938 L 22.585938 5.128906 L 22.804688 5.128906 L 22.804688 40.835938 " fill-opacity="1" fill-rule="nonzero"/><path fill="#000000" d="M 8.789062 39.308594 L 20.304688 39.308594 L 20.304688 6.777344 L 8.789062 6.777344 Z M 20.523438 39.527344 L 8.570312 39.527344 L 8.570312 6.558594 L 20.523438 6.558594 L 20.523438 39.527344 " fill-opacity="1" fill-rule="nonzero"/><path fill="#000000" d="M 57.558594 39.308594 L 71.265625 39.308594 L 71.265625 6.777344 L 57.558594 6.777344 Z M 71.484375 39.527344 L 57.339844 39.527344 L 57.339844 6.558594 L 71.484375 6.558594 L 71.484375 39.527344 " fill-opacity="1" fill-rule="nonzero"/><path fill="#000000" d="M 75.3125 14.9375 L 103.050781 14.9375 L 103.050781 6.777344 L 75.3125 6.777344 Z M 103.269531 15.160156 L 75.09375 15.160156 L 75.09375 6.558594 L 103.269531 6.558594 L 103.269531 15.160156 " fill-opacity="1" fill-rule="nonzero"/><path fill="#000000" d="M 75.3125 38.453125 L 103.050781 38.453125 L 103.050781 18.941406 L 75.3125 18.941406 Z M 103.269531 38.671875 L 75.09375 38.671875 L 75.09375 18.722656 L 103.269531 18.722656 L 103.269531 38.671875 " fill-opacity="1" fill-rule="nonzero"/><path fill="#000000" d="M 25.089844 39.308594 L 36.601562 39.308594 L 36.601562 6.777344 L 25.089844 6.777344 Z M 36.820312 39.527344 L 24.867188 39.527344 L 24.867188 6.558594 L 36.820312 6.558594 L 36.820312 39.527344 " fill-opacity="1" fill-rule="nonzero"/><path fill="#000000" d="M 104.707031 17.433594 L 73.65625 17.433594 L 73.65625 17.214844 L 104.707031 17.214844 L 104.707031 17.433594 " fill-opacity="1" fill-rule="nonzero"/><path fill="#000000" d="M 21.527344 18.96875 C 21.460938 18.96875 21.40625 19.023438 21.40625 19.089844 L 21.40625 25.210938 C 21.40625 25.28125 21.460938 25.335938 21.527344 25.335938 L 21.617188 25.335938 C 21.683594 25.335938 21.738281 25.28125 21.738281 25.210938 L 21.738281 19.089844 C 21.738281 19.023438 21.683594 18.96875 21.617188 18.96875 Z M 21.617188 25.554688 L 21.527344 25.554688 C 21.339844 25.554688 21.183594 25.402344 21.183594 25.210938 L 21.183594 19.089844 C 21.183594 18.902344 21.339844 18.75 21.527344 18.75 L 21.617188 18.75 C 21.808594 18.75 21.960938 18.902344 21.960938 19.089844 L 21.960938 25.210938 C 21.960938 25.402344 21.808594 25.554688 21.617188 25.554688 " fill-opacity="1" fill-rule="nonzero"/><path fill="#000000" d="M 23.792969 18.96875 C 23.726562 18.96875 23.671875 19.023438 23.671875 19.089844 L 23.671875 25.210938 C 23.671875 25.28125 23.726562 25.335938 23.792969 25.335938 L 23.882812 25.335938 C 23.949219 25.335938 24.003906 25.28125 24.003906 25.210938 L 24.003906 19.089844 C 24.003906 19.023438 23.949219 18.96875 23.882812 18.96875 Z M 23.882812 25.554688 L 23.792969 25.554688 C 23.601562 25.554688 23.449219 25.402344 23.449219 25.210938 L 23.449219 19.089844 C 23.449219 18.902344 23.601562 18.75 23.792969 18.75 L 23.882812 18.75 C 24.070312 18.75 24.222656 18.902344 24.222656 19.089844 L 24.222656 25.210938 C 24.222656 25.402344 24.070312 25.554688 23.882812 25.554688 " fill-opacity="1" fill-rule="nonzero"/><path fill="#000000" d="M 16.140625 70.820312 C 16.074219 70.820312 16.019531 70.875 16.019531 70.941406 L 16.019531 71.03125 C 16.019531 71.097656 16.074219 71.152344 16.140625 71.152344 L 22.277344 71.152344 C 22.34375 71.152344 22.398438 71.097656 22.398438 71.03125 L 22.398438 70.941406 C 22.398438 70.875 22.34375 70.820312 22.277344 70.820312 Z M 22.277344 71.371094 L 16.140625 71.371094 C 15.953125 71.371094 15.800781 71.21875 15.800781 71.03125 L 15.800781 70.941406 C 15.800781 70.753906 15.953125 70.601562 16.140625 70.601562 L 22.277344 70.601562 C 22.464844 70.601562 22.617188 70.753906 22.617188 70.941406 L 22.617188 71.03125 C 22.617188 71.21875 22.464844 71.371094 22.277344 71.371094 " fill-opacity="1" fill-rule="nonzero"/><path fill="#000000" d="M 39.296875 98.308594 C 39.226562 98.308594 39.171875 98.363281 39.171875 98.429688 L 39.171875 98.519531 C 39.171875 98.585938 39.226562 98.640625 39.296875 98.640625 L 45.429688 98.640625 C 45.5 98.640625 45.550781 98.585938 45.550781 98.519531 L 45.550781 98.429688 C 45.550781 98.363281 45.5 98.308594 45.429688 98.308594 Z M 45.429688 98.859375 L 39.296875 98.859375 C 39.105469 98.859375 38.953125 98.707031 38.953125 98.519531 L 38.953125 98.429688 C 38.953125 98.242188 39.105469 98.089844 39.296875 98.089844 L 45.429688 98.089844 C 45.617188 98.089844 45.773438 98.242188 45.773438 98.429688 L 45.773438 98.519531 C 45.773438 98.707031 45.617188 98.859375 45.429688 98.859375 " fill-opacity="1" fill-rule="nonzero"/><path fill="#000000" d="M 90.242188 70.820312 C 90.175781 70.820312 90.121094 70.875 90.121094 70.941406 L 90.121094 71.03125 C 90.121094 71.097656 90.175781 71.152344 90.242188 71.152344 L 96.378906 71.152344 C 96.445312 71.152344 96.5 71.097656 96.5 71.03125 L 96.5 70.941406 C 96.5 70.875 96.445312 70.820312 96.378906 70.820312 Z M 96.378906 71.371094 L 90.242188 71.371094 C 90.054688 71.371094 89.902344 71.21875 89.902344 71.03125 L 89.902344 70.941406 C 89.902344 70.753906 90.054688 70.601562 90.242188 70.601562 L 96.378906 70.601562 C 96.566406 70.601562 96.71875 70.753906 96.71875 70.941406 L 96.71875 71.03125 C 96.71875 71.21875 96.566406 71.371094 96.378906 71.371094 " fill-opacity="1" fill-rule="nonzero"/><path fill="#000000" d="M 33.507812 76.699219 C 33.4375 76.699219 33.382812 76.753906 33.382812 76.820312 L 33.382812 76.910156 C 33.382812 76.976562 33.4375 77.03125 33.507812 77.03125 L 51.40625 77.03125 C 51.472656 77.03125 51.527344 76.976562 51.527344 76.910156 L 51.527344 76.820312 C 51.527344 76.753906 51.472656 76.699219 51.40625 76.699219 Z M 51.40625 77.25 L 33.507812 77.25 C 33.316406 77.25 33.164062 77.097656 33.164062 76.910156 L 33.164062 76.820312 C 33.164062 76.632812 33.316406 76.480469 33.507812 76.480469 L 51.40625 76.480469 C 51.59375 76.480469 51.746094 76.632812 51.746094 76.820312 L 51.746094 76.910156 C 51.746094 77.097656 51.59375 77.25 51.40625 77.25 " fill-opacity="1" fill-rule="nonzero"/><path fill="#000000" d="M 16.140625 80.929688 C 16.074219 80.929688 16.019531 80.984375 16.019531 81.050781 L 16.019531 81.140625 C 16.019531 81.207031 16.074219 81.261719 16.140625 81.261719 L 22.277344 81.261719 C 22.34375 81.261719 22.398438 81.207031 22.398438 81.140625 L 22.398438 81.050781 C 22.398438 80.984375 22.34375 80.929688 22.277344 80.929688 Z M 22.277344 81.484375 L 16.140625 81.484375 C 15.953125 81.484375 15.800781 81.328125 15.800781 81.140625 L 15.800781 81.050781 C 15.800781 80.863281 15.953125 80.710938 16.140625 80.710938 L 22.277344 80.710938 C 22.464844 80.710938 22.617188 80.863281 22.617188 81.050781 L 22.617188 81.140625 C 22.617188 81.328125 22.464844 81.484375 22.277344 81.484375 " fill-opacity="1" fill-rule="nonzero"/><path fill="#000000" d="M 16.140625 91.007812 C 16.074219 91.007812 16.019531 91.0625 16.019531 91.128906 L 16.019531 91.21875 C 16.019531 91.285156 16.074219 91.339844 16.140625 91.339844 L 22.277344 91.339844 C 22.34375 91.339844 22.398438 91.285156 22.398438 91.21875 L 22.398438 91.128906 C 22.398438 91.0625 22.34375 91.007812 22.277344 91.007812 Z M 22.277344 91.5625 L 16.140625 91.5625 C 15.953125 91.5625 15.800781 91.40625 15.800781 91.21875 L 15.800781 91.128906 C 15.800781 90.941406 15.953125 90.789062 16.140625 90.789062 L 22.277344 90.789062 C 22.464844 90.789062 22.617188 90.941406 22.617188 91.128906 L 22.617188 91.21875 C 22.617188 91.40625 22.464844 91.5625 22.277344 91.5625 " fill-opacity="1" fill-rule="nonzero"/><path fill="#000000" d="M 72.46875 18.96875 C 72.402344 18.96875 72.347656 19.023438 72.347656 19.089844 L 72.347656 25.210938 C 72.347656 25.28125 72.402344 25.335938 72.46875 25.335938 L 72.5625 25.335938 C 72.628906 25.335938 72.683594 25.28125 72.683594 25.210938 L 72.683594 19.089844 C 72.683594 19.023438 72.628906 18.96875 72.5625 18.96875 Z M 72.5625 25.554688 L 72.46875 25.554688 C 72.28125 25.554688 72.128906 25.402344 72.128906 25.210938 L 72.128906 19.089844 C 72.128906 18.902344 72.28125 18.75 72.46875 18.75 L 72.5625 18.75 C 72.75 18.75 72.902344 18.902344 72.902344 19.089844 L 72.902344 25.210938 C 72.902344 25.402344 72.75 25.554688 72.5625 25.554688 " fill-opacity="1" fill-rule="nonzero"/><path fill="#000000" d="M 86.113281 15.933594 C 86.046875 15.933594 85.992188 15.988281 85.992188 16.054688 L 85.992188 16.144531 C 85.992188 16.214844 86.046875 16.269531 86.113281 16.269531 L 92.25 16.269531 C 92.316406 16.269531 92.371094 16.214844 92.371094 16.144531 L 92.371094 16.054688 C 92.371094 15.988281 92.316406 15.933594 92.25 15.933594 Z M 92.25 16.488281 L 86.113281 16.488281 C 85.925781 16.488281 85.773438 16.335938 85.773438 16.144531 L 85.773438 16.054688 C 85.773438 15.867188 85.925781 15.714844 86.113281 15.714844 L 92.25 15.714844 C 92.4375 15.714844 92.589844 15.867188 92.589844 16.054688 L 92.589844 16.144531 C 92.589844 16.335938 92.4375 16.488281 92.25 16.488281 " fill-opacity="1" fill-rule="nonzero"/><path fill="#000000" d="M 86.113281 39.53125 C 86.046875 39.53125 85.992188 39.585938 85.992188 39.652344 L 85.992188 39.746094 C 85.992188 39.8125 86.046875 39.867188 86.113281 39.867188 L 92.25 39.867188 C 92.316406 39.867188 92.371094 39.8125 92.371094 39.746094 L 92.371094 39.652344 C 92.371094 39.585938 92.316406 39.53125 92.25 39.53125 Z M 92.25 40.085938 L 86.113281 40.085938 C 85.925781 40.085938 85.773438 39.933594 85.773438 39.746094 L 85.773438 39.652344 C 85.773438 39.464844 85.925781 39.3125 86.113281 39.3125 L 92.25 39.3125 C 92.4375 39.3125 92.589844 39.464844 92.589844 39.652344 L 92.589844 39.746094 C 92.589844 39.933594 92.4375 40.085938 92.25 40.085938 " fill-opacity="1" fill-rule="nonzero"/><path fill="#000000" d="M 44.007812 40.640625 L 47.539062 40.640625 C 48.191406 40.25 48.140625 39.546875 48.101562 39.320312 L 43.445312 39.320312 C 43.40625 39.546875 43.347656 40.246094 44.007812 40.640625 Z M 47.566406 40.84375 L 43.980469 40.84375 C 43.964844 40.84375 43.945312 40.839844 43.929688 40.828125 C 42.984375 40.285156 43.261719 39.203125 43.265625 39.191406 C 43.277344 39.148438 43.316406 39.117188 43.363281 39.117188 L 48.183594 39.117188 C 48.230469 39.117188 48.269531 39.148438 48.28125 39.191406 C 48.285156 39.203125 48.558594 40.285156 47.617188 40.828125 C 47.601562 40.839844 47.582031 40.84375 47.566406 40.84375 " fill-opacity="1" fill-rule="nonzero"/><path fill="#000000" d="M 47.988281 39.320312 C 47.96875 39.320312 47.949219 39.3125 47.933594 39.300781 C 47.886719 39.269531 47.875 39.207031 47.90625 39.160156 C 48.167969 38.789062 48.128906 38.347656 48.101562 38.175781 L 43.445312 38.175781 C 43.417969 38.347656 43.378906 38.789062 43.640625 39.160156 C 43.671875 39.207031 43.660156 39.269531 43.613281 39.300781 C 43.566406 39.332031 43.503906 39.320312 43.472656 39.277344 C 43.089844 38.726562 43.257812 38.074219 43.265625 38.050781 C 43.277344 38.003906 43.316406 37.972656 43.363281 37.972656 L 48.183594 37.972656 C 48.230469 37.972656 48.269531 38.003906 48.28125 38.050781 C 48.289062 38.074219 48.457031 38.726562 48.074219 39.277344 C 48.054688 39.304688 48.023438 39.320312 47.988281 39.320312 " fill-opacity="1" fill-rule="nonzero"/><path fill="#000000" d="M 51.277344 40.640625 L 52.464844 40.640625 C 53.0625 40.328125 53.121094 39.417969 53.125 39.121094 L 50.613281 39.121094 C 50.617188 39.417969 50.679688 40.328125 51.277344 40.640625 Z M 52.488281 40.84375 L 51.25 40.84375 C 51.234375 40.84375 51.222656 40.839844 51.207031 40.832031 C 50.351562 40.410156 50.410156 39.070312 50.414062 39.015625 C 50.414062 38.960938 50.460938 38.917969 50.515625 38.917969 L 53.226562 38.917969 C 53.28125 38.917969 53.324219 38.960938 53.328125 39.015625 C 53.328125 39.070312 53.386719 40.410156 52.53125 40.832031 C 52.519531 40.839844 52.503906 40.84375 52.488281 40.84375 " fill-opacity="1" fill-rule="nonzero"/><path fill="#000000" d="M 53.226562 40.285156 C 53.179688 40.285156 53.140625 40.253906 53.128906 40.207031 C 53.039062 39.839844 53.292969 39.683594 53.460938 39.582031 C 53.632812 39.472656 53.671875 39.4375 53.628906 39.332031 C 53.621094 39.308594 53.601562 39.269531 53.574219 39.265625 C 53.511719 39.257812 53.375 39.378906 53.289062 39.488281 C 53.253906 39.535156 53.191406 39.542969 53.148438 39.511719 C 53.101562 39.476562 53.09375 39.414062 53.125 39.371094 C 53.167969 39.3125 53.386719 39.039062 53.601562 39.066406 C 53.667969 39.074219 53.757812 39.113281 53.816406 39.253906 C 53.929688 39.527344 53.722656 39.660156 53.566406 39.753906 C 53.382812 39.867188 53.273438 39.945312 53.324219 40.160156 C 53.339844 40.214844 53.304688 40.269531 53.25 40.28125 C 53.242188 40.28125 53.234375 40.285156 53.226562 40.285156 " fill-opacity="1" fill-rule="nonzero"/><path fill="#000000" d="M 48.507812 27.929688 L 49.527344 27.929688 L 50.230469 24.523438 L 46.121094 24.523438 L 46.820312 27.929688 Z M 49.613281 28.140625 L 46.738281 28.140625 C 46.6875 28.140625 46.644531 28.105469 46.632812 28.054688 L 45.890625 24.441406 C 45.882812 24.410156 45.890625 24.378906 45.914062 24.355469 C 45.933594 24.328125 45.960938 24.316406 45.992188 24.316406 L 50.355469 24.316406 C 50.386719 24.316406 50.417969 24.328125 50.4375 24.355469 C 50.457031 24.378906 50.464844 24.410156 50.457031 24.441406 L 49.714844 28.054688 C 49.707031 28.105469 49.664062 28.140625 49.613281 28.140625 " fill-opacity="1" fill-rule="nonzero"/><path fill="#000000" d="M 46.167969 24.316406 L 50.183594 24.316406 C 49.980469 23.980469 49.382812 23.199219 48.175781 23.199219 C 46.984375 23.199219 46.375 23.984375 46.167969 24.316406 Z M 50.355469 24.523438 L 45.992188 24.523438 C 45.957031 24.523438 45.925781 24.503906 45.90625 24.476562 C 45.886719 24.445312 45.882812 24.410156 45.898438 24.378906 C 45.902344 24.363281 46.535156 22.992188 48.175781 22.992188 C 49.8125 22.992188 50.445312 24.363281 50.453125 24.378906 C 50.464844 24.410156 50.464844 24.445312 50.445312 24.476562 C 50.425781 24.503906 50.390625 24.523438 50.355469 24.523438 " fill-opacity="1" fill-rule="nonzero"/><path fill="#000000" d="M 48.417969 23.210938 C 48.394531 23.210938 48.367188 23.199219 48.347656 23.179688 C 48.304688 23.140625 48.304688 23.078125 48.34375 23.035156 C 48.417969 22.957031 48.507812 22.8125 48.480469 22.75 C 48.464844 22.710938 48.375 22.667969 48.175781 22.667969 C 47.996094 22.667969 47.871094 22.703125 47.847656 22.757812 C 47.816406 22.828125 47.898438 22.96875 47.949219 23.027344 C 47.988281 23.070312 47.980469 23.136719 47.9375 23.175781 C 47.894531 23.210938 47.828125 23.207031 47.789062 23.164062 C 47.765625 23.132812 47.558594 22.882812 47.65625 22.671875 C 47.722656 22.53125 47.894531 22.460938 48.175781 22.460938 C 48.449219 22.460938 48.613281 22.527344 48.671875 22.667969 C 48.765625 22.882812 48.523438 23.148438 48.496094 23.175781 C 48.476562 23.199219 48.449219 23.210938 48.417969 23.210938 " fill-opacity="1" fill-rule="nonzero"/><path fill="#000000" d="M 50.445312 24.507812 L 50.34375 25.007812 C 50.992188 24.523438 52.507812 24.179688 53.660156 23.917969 C 54.105469 23.816406 54.566406 23.710938 54.75 23.644531 C 54.636719 23.566406 54.542969 23.609375 54.539062 23.613281 C 54.53125 23.617188 54.523438 23.617188 54.515625 23.621094 Z M 50.167969 25.453125 C 50.15625 25.453125 50.144531 25.449219 50.132812 25.445312 C 50.082031 25.429688 50.054688 25.378906 50.0625 25.328125 L 50.253906 24.398438 C 50.261719 24.359375 50.292969 24.328125 50.335938 24.316406 L 54.460938 23.417969 C 54.566406 23.375 54.792969 23.355469 54.980469 23.574219 C 55.011719 23.609375 55.019531 23.65625 55.003906 23.699219 C 54.960938 23.824219 54.738281 23.886719 53.707031 24.121094 C 52.523438 24.386719 50.546875 24.835938 50.257812 25.394531 C 50.242188 25.429688 50.203125 25.453125 50.167969 25.453125 " fill-opacity="1" fill-rule="nonzero"/><path fill="#000000" d="M 44.128906 16.277344 L 45.714844 16.277344 C 45.753906 15.753906 45.925781 12.984375 45.546875 12.207031 C 45.109375 11.3125 45.132812 10.660156 45.132812 10.632812 L 45.132812 8.550781 L 44.710938 8.550781 L 44.710938 10.636719 C 44.714844 10.660156 44.734375 11.3125 44.300781 12.207031 C 43.921875 12.984375 44.09375 15.753906 44.128906 16.277344 Z M 45.800781 16.460938 L 44.042969 16.460938 C 43.996094 16.460938 43.957031 16.425781 43.953125 16.375 C 43.941406 16.238281 43.695312 13.027344 44.132812 12.128906 C 44.546875 11.273438 44.527344 10.644531 44.527344 10.640625 L 44.527344 8.457031 C 44.527344 8.40625 44.570312 8.367188 44.621094 8.367188 L 45.226562 8.367188 C 45.277344 8.367188 45.320312 8.40625 45.320312 8.457031 L 45.320312 10.636719 C 45.320312 10.644531 45.300781 11.273438 45.714844 12.128906 C 46.152344 13.027344 45.90625 16.238281 45.894531 16.375 C 45.890625 16.425781 45.851562 16.460938 45.800781 16.460938 " fill-opacity="1" fill-rule="nonzero"/><path fill="#000000" d="M 44.671875 8.367188 L 45.171875 8.367188 C 45.222656 8.277344 45.289062 8.109375 45.234375 8.011719 C 45.1875 7.925781 45.039062 7.90625 44.921875 7.90625 C 44.808594 7.90625 44.660156 7.925781 44.613281 8.011719 C 44.558594 8.109375 44.625 8.277344 44.671875 8.367188 Z M 45.226562 8.550781 L 44.621094 8.550781 C 44.589844 8.550781 44.558594 8.535156 44.542969 8.507812 C 44.519531 8.472656 44.320312 8.15625 44.449219 7.921875 C 44.523438 7.789062 44.683594 7.71875 44.921875 7.71875 C 45.164062 7.71875 45.324219 7.789062 45.398438 7.921875 C 45.523438 8.15625 45.328125 8.472656 45.304688 8.507812 C 45.289062 8.535156 45.257812 8.550781 45.226562 8.550781 " fill-opacity="1" fill-rule="nonzero"/><path fill="#000000" d="M 47.761719 16.460938 C 47.742188 16.460938 47.722656 16.457031 47.707031 16.445312 C 47.390625 16.214844 47.230469 15.957031 47.230469 15.675781 C 47.230469 15.210938 47.6875 14.875 47.707031 14.863281 C 47.722656 14.851562 47.742188 14.84375 47.761719 14.84375 L 49.265625 14.84375 C 49.285156 14.84375 49.304688 14.851562 49.320312 14.863281 C 49.339844 14.875 49.796875 15.210938 49.796875 15.675781 C 49.796875 15.957031 49.636719 16.214844 49.320312 16.445312 C 49.28125 16.472656 49.222656 16.464844 49.191406 16.425781 C 49.160156 16.382812 49.171875 16.324219 49.210938 16.292969 C 49.476562 16.101562 49.609375 15.894531 49.609375 15.679688 C 49.609375 15.359375 49.320312 15.097656 49.234375 15.027344 L 47.792969 15.027344 C 47.707031 15.097656 47.417969 15.359375 47.417969 15.679688 C 47.417969 15.894531 47.550781 16.101562 47.816406 16.292969 C 47.855469 16.324219 47.867188 16.382812 47.835938 16.425781 C 47.816406 16.449219 47.789062 16.460938 47.761719 16.460938 " fill-opacity="1" fill-rule="nonzero"/><path fill="#000000" d="M 47.65625 14.84375 L 49.371094 14.84375 C 49.332031 14.644531 49.152344 14.492188 48.941406 14.492188 L 48.085938 14.492188 C 47.871094 14.492188 47.695312 14.644531 47.65625 14.84375 Z M 49.472656 15.027344 L 47.554688 15.027344 C 47.503906 15.027344 47.464844 14.988281 47.464844 14.9375 L 47.464844 14.925781 C 47.464844 14.585938 47.742188 14.308594 48.085938 14.308594 L 48.941406 14.308594 C 49.285156 14.308594 49.5625 14.585938 49.5625 14.925781 L 49.5625 14.9375 C 49.5625 14.988281 49.523438 15.027344 49.472656 15.027344 " fill-opacity="1" fill-rule="nonzero"/><path fill="#000000" d="M 50.75 12.953125 L 52.460938 12.953125 C 52.421875 12.753906 52.246094 12.601562 52.035156 12.601562 L 51.175781 12.601562 C 50.964844 12.601562 50.789062 12.753906 50.75 12.953125 Z M 52.5625 13.136719 L 50.648438 13.136719 C 50.597656 13.136719 50.554688 13.097656 50.554688 13.046875 L 50.554688 13.035156 C 50.554688 12.695312 50.835938 12.414062 51.175781 12.414062 L 52.035156 12.414062 C 52.375 12.414062 52.65625 12.695312 52.65625 13.035156 L 52.65625 13.046875 C 52.65625 13.097656 52.613281 13.136719 52.5625 13.136719 " fill-opacity="1" fill-rule="nonzero"/><path fill="#000000" d="M 52.597656 16.460938 C 52.585938 16.460938 52.574219 16.460938 52.566406 16.457031 C 52.515625 16.4375 52.492188 16.382812 52.511719 16.335938 C 53.210938 14.558594 53.046875 13.785156 52.789062 13.449219 C 52.519531 13.097656 52.082031 13.144531 52.078125 13.148438 C 52.074219 13.148438 52.070312 13.148438 52.070312 13.148438 L 51.140625 13.148438 C 51.136719 13.148438 51.136719 13.148438 51.132812 13.148438 C 51.113281 13.144531 50.6875 13.101562 50.421875 13.453125 C 50.160156 13.789062 50 14.558594 50.699219 16.335938 C 50.71875 16.382812 50.695312 16.4375 50.644531 16.457031 C 50.597656 16.472656 50.542969 16.449219 50.527344 16.402344 C 49.9375 14.910156 49.855469 13.878906 50.273438 13.335938 C 50.59375 12.925781 51.082031 12.957031 51.148438 12.960938 L 52.0625 12.960938 C 52.128906 12.957031 52.617188 12.925781 52.9375 13.335938 C 53.355469 13.878906 53.273438 14.910156 52.683594 16.402344 C 52.671875 16.4375 52.636719 16.460938 52.597656 16.460938 " fill-opacity="1" fill-rule="nonzero"/><path fill="#000000" d="M 49.175781 14.550781 C 49.125 14.550781 49.082031 14.507812 49.082031 14.457031 L 49.082031 12.167969 C 49.082031 12.117188 49.125 12.074219 49.175781 12.074219 L 51.605469 12.074219 C 51.65625 12.074219 51.699219 12.117188 51.699219 12.167969 L 51.699219 12.507812 C 51.699219 12.558594 51.65625 12.601562 51.605469 12.601562 C 51.554688 12.601562 51.511719 12.558594 51.511719 12.507812 L 51.511719 12.261719 L 49.265625 12.261719 L 49.265625 14.457031 C 49.265625 14.507812 49.226562 14.550781 49.175781 14.550781 " fill-opacity="1" fill-rule="nonzero"/><path fill="#000000" d="M 49.058594 12.074219 L 51.722656 12.074219 L 51.722656 11.453125 L 49.058594 11.453125 Z M 51.816406 12.261719 L 48.964844 12.261719 C 48.914062 12.261719 48.871094 12.21875 48.871094 12.167969 L 48.871094 11.363281 C 48.871094 11.3125 48.914062 11.269531 48.964844 11.269531 L 51.816406 11.269531 C 51.867188 11.269531 51.910156 11.3125 51.910156 11.363281 L 51.910156 12.167969 C 51.910156 12.21875 51.867188 12.261719 51.816406 12.261719 " fill-opacity="1" fill-rule="nonzero"/><path fill="#000000" d="M 5.820312 69.71875 L 106.054688 69.71875 L 106.054688 67.835938 L 5.820312 67.835938 Z M 106.277344 69.9375 L 5.601562 69.9375 L 5.601562 67.617188 L 106.277344 67.617188 L 106.277344 69.9375 " fill-opacity="1" fill-rule="nonzero"/><path fill="#000000" d="M 67.574219 67.585938 L 104.1875 67.585938 C 104.140625 67.417969 103.984375 67.292969 103.796875 67.292969 L 67.96875 67.292969 C 67.78125 67.292969 67.625 67.417969 67.574219 67.585938 Z M 104.328125 67.832031 L 67.4375 67.832031 C 67.371094 67.832031 67.3125 67.777344 67.3125 67.707031 L 67.3125 67.699219 C 67.3125 67.339844 67.609375 67.046875 67.96875 67.046875 L 103.796875 67.046875 C 104.15625 67.046875 104.449219 67.339844 104.449219 67.699219 L 104.449219 67.707031 C 104.449219 67.777344 104.394531 67.832031 104.328125 67.832031 " fill-opacity="1" fill-rule="nonzero"/><path fill="#000000" d="M 69.382812 67.046875 L 78.683594 67.046875 L 80.007812 65.175781 L 68.328125 65.175781 Z M 78.75 67.292969 L 69.308594 67.292969 C 69.265625 67.292969 69.222656 67.269531 69.203125 67.230469 L 68.011719 65.113281 C 67.992188 65.074219 67.992188 65.027344 68.015625 64.992188 C 68.035156 64.953125 68.078125 64.929688 68.121094 64.929688 L 80.242188 64.929688 C 80.289062 64.929688 80.332031 64.957031 80.351562 64.996094 C 80.375 65.039062 80.371094 65.085938 80.34375 65.125 L 78.847656 67.238281 C 78.824219 67.273438 78.789062 67.292969 78.75 67.292969 " fill-opacity="1" fill-rule="nonzero"/><path fill="#000000" d="M 70.351562 67.292969 C 70.308594 67.292969 70.265625 67.265625 70.242188 67.222656 L 69.199219 65.105469 C 69.167969 65.046875 69.195312 64.972656 69.257812 64.941406 C 69.316406 64.914062 69.390625 64.9375 69.421875 65 L 70.464844 67.117188 C 70.492188 67.175781 70.46875 67.25 70.40625 67.28125 C 70.390625 67.289062 70.371094 67.292969 70.351562 67.292969 " fill-opacity="1" fill-rule="nonzero"/><path fill="#000000" d="M 71.515625 67.292969 C 71.460938 67.292969 71.414062 67.257812 71.398438 67.203125 L 70.816406 65.085938 C 70.796875 65.019531 70.835938 64.953125 70.902344 64.933594 C 70.96875 64.917969 71.035156 64.957031 71.054688 65.019531 L 71.636719 67.136719 C 71.652344 67.203125 71.613281 67.269531 71.550781 67.289062 C 71.539062 67.289062 71.527344 67.292969 71.515625 67.292969 " fill-opacity="1" fill-rule="nonzero"/><path fill="#000000" d="M 72.679688 67.292969 C 72.613281 67.292969 72.558594 67.238281 72.558594 67.167969 L 72.558594 65.054688 C 72.558594 64.984375 72.613281 64.929688 72.679688 64.929688 C 72.75 64.929688 72.804688 64.984375 72.804688 65.054688 L 72.804688 67.167969 C 72.804688 67.238281 72.75 67.292969 72.679688 67.292969 " fill-opacity="1" fill-rule="nonzero"/><path fill="#000000" d="M 73.925781 67.292969 C 73.859375 67.292969 73.804688 67.238281 73.804688 67.167969 L 73.804688 65.054688 C 73.804688 64.984375 73.859375 64.929688 73.925781 64.929688 C 73.996094 64.929688 74.050781 64.984375 74.050781 65.054688 L 74.050781 67.167969 C 74.050781 67.238281 73.996094 67.292969 73.925781 67.292969 " fill-opacity="1" fill-rule="nonzero"/><path fill="#000000" d="M 75.132812 67.292969 C 75.0625 67.292969 75.007812 67.238281 75.007812 67.167969 L 75.007812 65.054688 C 75.007812 64.984375 75.0625 64.929688 75.132812 64.929688 C 75.199219 64.929688 75.253906 64.984375 75.253906 65.054688 L 75.253906 67.167969 C 75.253906 67.238281 75.199219 67.292969 75.132812 67.292969 " fill-opacity="1" fill-rule="nonzero"/><path fill="#000000" d="M 76.128906 67.292969 C 76.121094 67.292969 76.117188 67.292969 76.109375 67.289062 C 76.042969 67.277344 75.996094 67.214844 76.007812 67.148438 L 76.382812 65.03125 C 76.394531 64.964844 76.457031 64.921875 76.523438 64.933594 C 76.59375 64.945312 76.636719 65.007812 76.625 65.074219 L 76.25 67.191406 C 76.242188 67.25 76.1875 67.292969 76.128906 67.292969 " fill-opacity="1" fill-rule="nonzero"/><path fill="#000000" d="M 77.375 67.292969 C 77.363281 67.292969 77.351562 67.289062 77.339844 67.285156 C 77.273438 67.265625 77.238281 67.199219 77.257812 67.132812 L 77.925781 65.015625 C 77.945312 64.953125 78.011719 64.914062 78.078125 64.9375 C 78.144531 64.957031 78.179688 65.023438 78.160156 65.089844 L 77.492188 67.207031 C 77.476562 67.257812 77.429688 67.292969 77.375 67.292969 " fill-opacity="1" fill-rule="nonzero"/><path fill="#000000" d="M 79.265625 66.523438 L 68.867188 66.503906 C 68.796875 66.503906 68.742188 66.449219 68.742188 66.382812 C 68.742188 66.3125 68.796875 66.257812 68.867188 66.257812 L 79.265625 66.28125 C 79.332031 66.28125 79.386719 66.335938 79.386719 66.402344 C 79.386719 66.46875 79.332031 66.523438 79.265625 66.523438 " fill-opacity="1" fill-rule="nonzero"/><path fill="#000000" d="M 77.167969 66.257812 L 78.75 66.257812 L 78.75 63.988281 L 77.167969 63.988281 Z M 78.871094 66.503906 L 77.042969 66.503906 C 76.976562 66.503906 76.921875 66.449219 76.921875 66.382812 L 76.921875 63.863281 C 76.921875 63.796875 76.976562 63.742188 77.042969 63.742188 L 78.871094 63.742188 C 78.941406 63.742188 78.996094 63.796875 78.996094 63.863281 L 78.996094 66.382812 C 78.996094 66.449219 78.941406 66.503906 78.871094 66.503906 " fill-opacity="1" fill-rule="nonzero"/><path fill="#000000" d="M 71.519531 66.753906 L 71.921875 66.925781 L 69.371094 61.796875 L 69.269531 62.398438 Z M 72.179688 67.292969 C 72.164062 67.292969 72.148438 67.289062 72.132812 67.28125 L 71.378906 66.960938 C 71.355469 66.953125 71.332031 66.929688 71.320312 66.90625 L 69.035156 62.472656 C 69.023438 62.449219 69.019531 62.425781 69.023438 62.398438 L 69.1875 61.382812 C 69.199219 61.332031 69.238281 61.289062 69.292969 61.28125 C 69.34375 61.273438 69.394531 61.300781 69.421875 61.347656 L 72.292969 67.113281 C 72.316406 67.160156 72.304688 67.214844 72.269531 67.253906 C 72.246094 67.277344 72.214844 67.292969 72.179688 67.292969 " fill-opacity="1" fill-rule="nonzero"/><path fill="#000000" d="M 71.429688 66.972656 C 71.414062 66.972656 71.402344 66.96875 71.386719 66.964844 C 71.308594 66.9375 69.414062 66.242188 69.019531 62.492188 C 69.015625 62.425781 69.0625 62.367188 69.128906 62.359375 C 69.199219 62.351562 69.257812 62.398438 69.265625 62.46875 C 69.640625 66.046875 71.449219 66.726562 71.46875 66.734375 C 71.53125 66.757812 71.566406 66.828125 71.542969 66.890625 C 71.527344 66.941406 71.480469 66.972656 71.429688 66.972656 " fill-opacity="1" fill-rule="nonzero"/><path fill="#000000" d="M 74.019531 66.753906 L 74.527344 66.949219 L 70.785156 58.320312 L 70.785156 59.0625 Z M 74.757812 67.292969 C 74.742188 67.292969 74.726562 67.289062 74.714844 67.285156 L 73.882812 66.964844 C 73.851562 66.953125 73.828125 66.929688 73.8125 66.898438 L 70.550781 59.136719 C 70.542969 59.121094 70.539062 59.105469 70.539062 59.089844 L 70.539062 57.730469 C 70.539062 57.671875 70.582031 57.621094 70.636719 57.609375 C 70.695312 57.597656 70.753906 57.628906 70.773438 57.679688 L 74.871094 67.121094 C 74.890625 67.167969 74.878906 67.21875 74.847656 67.253906 C 74.824219 67.277344 74.792969 67.292969 74.757812 67.292969 " fill-opacity="1" fill-rule="nonzero"/><path fill="#000000" d="M 70.832031 59.808594 C 70.96875 61.125 71.5 63.984375 73.558594 66.285156 Z M 73.925781 66.972656 C 73.894531 66.972656 73.863281 66.960938 73.839844 66.9375 C 72.125 65.269531 71.320312 63.226562 70.945312 61.804688 C 70.539062 60.265625 70.539062 59.136719 70.539062 59.089844 C 70.539062 59.03125 70.582031 58.980469 70.636719 58.96875 C 70.695312 58.957031 70.753906 58.988281 70.777344 59.042969 L 74.039062 66.800781 C 74.0625 66.855469 74.042969 66.917969 73.996094 66.953125 C 73.976562 66.964844 73.949219 66.972656 73.925781 66.972656 " fill-opacity="1" fill-rule="nonzero"/><path fill="#000000" d="M 78.5625 63.742188 L 78.769531 63.742188 C 78.894531 63.113281 79.113281 62.703125 79.308594 62.335938 C 79.46875 62.035156 79.621094 61.75 79.707031 61.375 C 79.929688 60.433594 79.75 59.136719 79.574219 59.050781 C 79.539062 59.035156 79.523438 59.042969 79.515625 59.046875 C 79.449219 59.085938 79.398438 59.257812 79.386719 59.359375 C 79.386719 59.363281 79.386719 59.367188 79.386719 59.367188 Z M 78.871094 63.988281 L 78.414062 63.988281 C 78.378906 63.988281 78.34375 63.96875 78.320312 63.941406 C 78.296875 63.914062 78.289062 63.878906 78.292969 63.839844 L 79.144531 59.328125 C 79.152344 59.253906 79.203125 58.945312 79.394531 58.835938 C 79.449219 58.800781 79.546875 58.773438 79.667969 58.824219 C 80.078125 58.992188 80.144531 60.597656 79.949219 61.429688 C 79.851562 61.835938 79.695312 62.136719 79.527344 62.453125 C 79.320312 62.839844 79.105469 63.238281 78.992188 63.886719 C 78.984375 63.945312 78.933594 63.988281 78.871094 63.988281 " fill-opacity="1" fill-rule="nonzero"/><path fill="#000000" d="M 77.5 63.742188 L 77.585938 63.742188 L 77.585938 62.746094 C 77.585938 62.707031 77.601562 62.671875 77.632812 62.648438 C 77.65625 62.628906 78.242188 62.132812 78.128906 61.089844 C 78.0625 60.511719 77.882812 59.828125 77.386719 59.867188 C 77.175781 59.878906 76.625 59.917969 76.625 61.074219 C 76.625 62.082031 77.441406 62.679688 77.449219 62.6875 C 77.480469 62.710938 77.5 62.746094 77.5 62.785156 Z M 77.707031 63.988281 L 77.375 63.988281 C 77.308594 63.988281 77.253906 63.933594 77.253906 63.863281 L 77.253906 62.847656 C 77.058594 62.6875 76.378906 62.066406 76.378906 61.074219 C 76.378906 60.15625 76.714844 59.667969 77.367188 59.621094 C 77.75 59.59375 78.234375 59.820312 78.371094 61.0625 C 78.484375 62.082031 77.988281 62.648438 77.832031 62.800781 L 77.832031 63.863281 C 77.832031 63.933594 77.777344 63.988281 77.707031 63.988281 " fill-opacity="1" fill-rule="nonzero"/><path fill="#000000" d="M 83.367188 67.046875 L 83.613281 67.046875 L 83.613281 63.988281 L 83.367188 63.988281 Z M 83.734375 67.292969 L 83.242188 67.292969 C 83.175781 67.292969 83.121094 67.238281 83.121094 67.167969 L 83.121094 63.863281 C 83.121094 63.796875 83.175781 63.742188 83.242188 63.742188 L 83.734375 63.742188 C 83.804688 63.742188 83.859375 63.796875 83.859375 63.863281 L 83.859375 67.167969 C 83.859375 67.238281 83.804688 67.292969 83.734375 67.292969 " fill-opacity="1" fill-rule="nonzero"/><path fill="#000000" d="M 83.859375 67.046875 L 85.757812 67.046875 L 85.757812 66.234375 L 83.859375 66.234375 Z M 85.882812 67.292969 L 83.734375 67.292969 C 83.667969 67.292969 83.613281 67.238281 83.613281 67.167969 L 83.613281 66.109375 C 83.613281 66.042969 83.667969 65.988281 83.734375 65.988281 L 85.882812 65.988281 C 85.949219 65.988281 86.003906 66.042969 86.003906 66.109375 L 86.003906 67.167969 C 86.003906 67.238281 85.949219 67.292969 85.882812 67.292969 " fill-opacity="1" fill-rule="nonzero"/><path fill="#000000" d="M 84.480469 65.988281 L 85.441406 65.988281 C 85.453125 65.101562 85.523438 59.648438 85.523438 59.347656 C 85.523438 58.90625 85.9375 58.1875 87.050781 58.125 C 88.242188 58.058594 88.742188 58.449219 88.949219 58.789062 C 89.128906 59.070312 89.21875 59.695312 89.25 59.949219 L 90.09375 59.949219 C 90.082031 59.628906 89.988281 58.707031 89.351562 58.039062 C 88.855469 57.527344 88.140625 57.261719 87.226562 57.257812 C 87.21875 57.257812 87.210938 57.257812 87.203125 57.257812 C 86.242188 57.257812 85.519531 57.515625 85.054688 58.023438 C 84.398438 58.738281 84.480469 59.722656 84.480469 59.730469 C 84.480469 59.734375 84.480469 59.738281 84.480469 59.742188 Z M 85.5625 66.234375 L 84.359375 66.234375 C 84.289062 66.234375 84.234375 66.179688 84.234375 66.109375 L 84.234375 59.75 C 84.226562 59.652344 84.160156 58.632812 84.871094 57.859375 C 85.382812 57.296875 86.167969 57.015625 87.203125 57.015625 C 87.210938 57.015625 87.21875 57.015625 87.226562 57.015625 C 88.210938 57.019531 88.988281 57.308594 89.527344 57.871094 C 90.386719 58.769531 90.34375 60.023438 90.339844 60.078125 C 90.339844 60.144531 90.285156 60.195312 90.21875 60.195312 L 89.136719 60.195312 C 89.074219 60.195312 89.019531 60.148438 89.015625 60.082031 C 88.992188 59.84375 88.898438 59.171875 88.742188 58.917969 C 88.597656 58.683594 88.191406 58.308594 87.066406 58.371094 C 86.085938 58.425781 85.769531 59.050781 85.769531 59.347656 C 85.769531 59.675781 85.6875 66.046875 85.6875 66.113281 C 85.6875 66.179688 85.628906 66.234375 85.5625 66.234375 " fill-opacity="1" fill-rule="nonzero"/><path fill="#000000" d="M 89.261719 60.296875 L 90.09375 60.296875 L 90.09375 60.195312 L 89.261719 60.195312 Z M 90.21875 60.542969 L 89.136719 60.542969 C 89.070312 60.542969 89.015625 60.488281 89.015625 60.417969 L 89.015625 60.070312 C 89.015625 60.003906 89.070312 59.949219 89.136719 59.949219 L 90.21875 59.949219 C 90.285156 59.949219 90.339844 60.003906 90.339844 60.070312 L 90.34375 60.417969 C 90.34375 60.449219 90.328125 60.480469 90.304688 60.503906 C 90.28125 60.527344 90.25 60.542969 90.21875 60.542969 " fill-opacity="1" fill-rule="nonzero"/><path fill="#000000" d="M 100.398438 67.046875 L 103.019531 67.046875 L 103.019531 63.40625 L 100.398438 63.40625 Z M 103.144531 67.292969 L 100.277344 67.292969 C 100.207031 67.292969 100.152344 67.238281 100.152344 67.167969 L 100.152344 63.285156 C 100.152344 63.214844 100.207031 63.160156 100.277344 63.160156 L 103.144531 63.160156 C 103.210938 63.160156 103.265625 63.214844 103.265625 63.285156 L 103.265625 67.167969 C 103.265625 67.238281 103.210938 67.292969 103.144531 67.292969 " fill-opacity="1" fill-rule="nonzero"/><path fill="#000000" d="M 101.0625 63.160156 L 102.355469 63.160156 L 102.355469 62.351562 L 101.0625 62.351562 Z M 102.476562 63.40625 L 100.941406 63.40625 C 100.871094 63.40625 100.816406 63.351562 100.816406 63.285156 L 100.816406 62.230469 C 100.816406 62.164062 100.871094 62.109375 100.941406 62.109375 L 102.476562 62.109375 C 102.546875 62.109375 102.601562 62.164062 102.601562 62.230469 L 102.601562 63.285156 C 102.601562 63.351562 102.546875 63.40625 102.476562 63.40625 " fill-opacity="1" fill-rule="nonzero"/><path fill="#000000" d="M 100.941406 62.351562 L 99.652344 62.351562 C 99.582031 62.351562 99.527344 62.296875 99.527344 62.230469 C 99.527344 62.164062 99.582031 62.109375 99.652344 62.109375 L 100.941406 62.109375 C 101.007812 62.109375 101.0625 62.164062 101.0625 62.230469 C 101.0625 62.296875 101.007812 62.351562 100.941406 62.351562 " fill-opacity="1" fill-rule="nonzero"/><path fill="#000000" d="M 30.636719 80.046875 L 7.171875 80.046875 L 7.171875 79.828125 L 30.636719 79.828125 L 30.636719 80.046875 " fill-opacity="1" fill-rule="nonzero"/><path fill="#000000" d="M 30.636719 90.15625 L 7.171875 90.15625 L 7.171875 89.9375 L 30.636719 89.9375 L 30.636719 90.15625 " fill-opacity="1" fill-rule="nonzero"/><path fill="#000000" d="M 8.789062 78.320312 L 28.886719 78.320312 L 28.886719 72.257812 L 8.789062 72.257812 Z M 29.105469 78.539062 L 8.570312 78.539062 L 8.570312 72.035156 L 29.105469 72.035156 L 29.105469 78.539062 " fill-opacity="1" fill-rule="nonzero"/><path fill="#000000" d="M 32.195312 103.820312 L 52.289062 103.820312 L 52.289062 99.847656 L 32.195312 99.847656 Z M 52.511719 104.039062 L 31.976562 104.039062 L 31.976562 99.628906 L 52.511719 99.628906 L 52.511719 104.039062 " fill-opacity="1" fill-rule="nonzero"/><path fill="#000000" d="M 82.894531 78.320312 L 102.988281 78.320312 L 102.988281 72.257812 L 82.894531 72.257812 Z M 103.207031 78.539062 L 82.671875 78.539062 L 82.671875 72.035156 L 103.207031 72.035156 L 103.207031 78.539062 " fill-opacity="1" fill-rule="nonzero"/><path fill="#000000" d="M 64.636719 70.820312 C 64.566406 70.820312 64.511719 70.875 64.511719 70.941406 L 64.511719 71.03125 C 64.511719 71.097656 64.566406 71.152344 64.636719 71.152344 L 70.769531 71.152344 C 70.835938 71.152344 70.890625 71.097656 70.890625 71.03125 L 70.890625 70.941406 C 70.890625 70.875 70.835938 70.820312 70.769531 70.820312 Z M 70.769531 71.371094 L 64.636719 71.371094 C 64.445312 71.371094 64.292969 71.21875 64.292969 71.03125 L 64.292969 70.941406 C 64.292969 70.753906 64.445312 70.601562 64.636719 70.601562 L 70.769531 70.601562 C 70.957031 70.601562 71.113281 70.753906 71.113281 70.941406 L 71.113281 71.03125 C 71.113281 71.21875 70.957031 71.371094 70.769531 71.371094 " fill-opacity="1" fill-rule="nonzero"/><path fill="#000000" d="M 55.839844 103.976562 L 79.535156 103.976562 L 79.535156 72.257812 L 55.839844 72.257812 Z M 79.753906 104.195312 L 55.621094 104.195312 L 55.621094 72.035156 L 79.753906 72.035156 L 79.753906 104.195312 " fill-opacity="1" fill-rule="nonzero"/><path fill="#000000" d="M 8.789062 88.429688 L 28.886719 88.429688 L 28.886719 82.367188 L 8.789062 82.367188 Z M 29.105469 88.648438 L 8.570312 88.648438 L 8.570312 82.144531 L 29.105469 82.144531 L 29.105469 88.648438 " fill-opacity="1" fill-rule="nonzero"/><path fill="#000000" d="M 8.789062 103.976562 L 28.886719 103.976562 L 28.886719 92.414062 L 8.789062 92.414062 Z M 29.105469 104.195312 L 8.570312 104.195312 L 8.570312 92.191406 L 29.105469 92.191406 L 29.105469 104.195312 " fill-opacity="1" fill-rule="nonzero"/><path fill="#000000" d="M 90.242188 80.929688 C 90.175781 80.929688 90.121094 80.984375 90.121094 81.050781 L 90.121094 81.140625 C 90.121094 81.207031 90.175781 81.261719 90.242188 81.261719 L 96.378906 81.261719 C 96.445312 81.261719 96.5 81.207031 96.5 81.140625 L 96.5 81.050781 C 96.5 80.984375 96.445312 80.929688 96.378906 80.929688 Z M 96.378906 81.484375 L 90.242188 81.484375 C 90.054688 81.484375 89.902344 81.328125 89.902344 81.140625 L 89.902344 81.050781 C 89.902344 80.863281 90.054688 80.710938 90.242188 80.710938 L 96.378906 80.710938 C 96.566406 80.710938 96.71875 80.863281 96.71875 81.050781 L 96.71875 81.140625 C 96.71875 81.328125 96.566406 81.484375 96.378906 81.484375 " fill-opacity="1" fill-rule="nonzero"/><path fill="#000000" d="M 90.242188 91.007812 C 90.175781 91.007812 90.121094 91.0625 90.121094 91.128906 L 90.121094 91.21875 C 90.121094 91.285156 90.175781 91.339844 90.242188 91.339844 L 96.378906 91.339844 C 96.445312 91.339844 96.5 91.285156 96.5 91.21875 L 96.5 91.128906 C 96.5 91.0625 96.445312 91.007812 96.378906 91.007812 Z M 96.378906 91.5625 L 90.242188 91.5625 C 90.054688 91.5625 89.902344 91.40625 89.902344 91.21875 L 89.902344 91.128906 C 89.902344 90.941406 90.054688 90.789062 90.242188 90.789062 L 96.378906 90.789062 C 96.566406 90.789062 96.71875 90.941406 96.71875 91.128906 L 96.71875 91.21875 C 96.71875 91.40625 96.566406 91.5625 96.378906 91.5625 " fill-opacity="1" fill-rule="nonzero"/><path fill="#000000" d="M 104.738281 80.046875 L 81.273438 80.046875 L 81.273438 79.828125 L 104.738281 79.828125 L 104.738281 80.046875 " fill-opacity="1" fill-rule="nonzero"/><path fill="#000000" d="M 104.738281 90.15625 L 81.273438 90.15625 L 81.273438 89.9375 L 104.738281 89.9375 L 104.738281 90.15625 " fill-opacity="1" fill-rule="nonzero"/><path fill="#000000" d="M 82.894531 88.429688 L 102.988281 88.429688 L 102.988281 82.367188 L 82.894531 82.367188 Z M 103.207031 88.648438 L 82.671875 88.648438 L 82.671875 82.144531 L 103.207031 82.144531 L 103.207031 88.648438 " fill-opacity="1" fill-rule="nonzero"/><path fill="#000000" d="M 82.894531 103.976562 L 102.988281 103.976562 L 102.988281 92.414062 L 82.894531 92.414062 Z M 103.207031 104.195312 L 82.671875 104.195312 L 82.671875 92.191406 L 103.207031 92.191406 L 103.207031 104.195312 " fill-opacity="1" fill-rule="nonzero"/><path fill="#000000" d="M 54.160156 78.539062 L 30.65625 78.539062 L 30.65625 78.320312 L 54.160156 78.320312 L 54.160156 78.539062 " fill-opacity="1" fill-rule="nonzero"/><path fill="#000000" d="M 54.160156 72.445312 L 30.65625 72.445312 L 30.65625 72.226562 L 54.160156 72.226562 L 54.160156 72.445312 " fill-opacity="1" fill-rule="nonzero"/><path fill="#000000" d="M 32.96875 94.25 L 51.945312 94.25 L 51.945312 80.558594 L 32.96875 80.558594 Z M 52.164062 94.46875 L 32.75 94.46875 L 32.75 80.339844 L 52.164062 80.339844 L 52.164062 94.46875 " fill-opacity="1" fill-rule="nonzero"/><path fill="#000000" d="M 42.71875 90.140625 L 42.589844 89.960938 L 46.398438 87.242188 L 46.523438 87.421875 L 42.71875 90.140625 " fill-opacity="1" fill-rule="nonzero"/><path fill="#000000" d="M 38.820312 89.859375 L 38.691406 89.679688 L 46.714844 83.949219 L 46.84375 84.128906 L 38.820312 89.859375 " fill-opacity="1" fill-rule="nonzero"/><path fill="#000000" d="M 38.789062 86.8125 L 38.660156 86.636719 L 43.160156 83.421875 L 43.289062 83.597656 L 38.789062 86.8125 " fill-opacity="1" fill-rule="nonzero"/><path fill="#000000" d="M 47.957031 74.105469 C 47.675781 74.105469 47.449219 74.332031 47.449219 74.609375 C 47.449219 74.886719 47.675781 75.113281 47.957031 75.113281 C 48.234375 75.113281 48.464844 74.886719 48.464844 74.609375 C 48.464844 74.332031 48.234375 74.105469 47.957031 74.105469 Z M 47.957031 75.335938 C 47.554688 75.335938 47.230469 75.007812 47.230469 74.609375 C 47.230469 74.210938 47.554688 73.882812 47.957031 73.882812 C 48.355469 73.882812 48.683594 74.210938 48.683594 74.609375 C 48.683594 75.007812 48.355469 75.335938 47.957031 75.335938 " fill-opacity="1" fill-rule="nonzero"/><path fill="#000000" d="M 42.457031 73.601562 C 41.898438 73.601562 41.445312 74.054688 41.445312 74.609375 C 41.445312 75.164062 41.898438 75.617188 42.457031 75.617188 C 43.011719 75.617188 43.464844 75.164062 43.464844 74.609375 C 43.464844 74.054688 43.011719 73.601562 42.457031 73.601562 Z M 42.457031 75.835938 C 41.777344 75.835938 41.226562 75.285156 41.226562 74.609375 C 41.226562 73.933594 41.777344 73.382812 42.457031 73.382812 C 43.132812 73.382812 43.683594 73.933594 43.683594 74.609375 C 43.683594 75.285156 43.132812 75.835938 42.457031 75.835938 " fill-opacity="1" fill-rule="nonzero"/><path fill="#000000" d="M 36.957031 74.105469 C 36.675781 74.105469 36.449219 74.332031 36.449219 74.609375 C 36.449219 74.886719 36.675781 75.113281 36.957031 75.113281 C 37.234375 75.113281 37.460938 74.886719 37.460938 74.609375 C 37.460938 74.332031 37.234375 74.105469 36.957031 74.105469 Z M 36.957031 75.335938 C 36.554688 75.335938 36.230469 75.007812 36.230469 74.609375 C 36.230469 74.210938 36.554688 73.882812 36.957031 73.882812 C 37.355469 73.882812 37.683594 74.210938 37.683594 74.609375 C 37.683594 75.007812 37.355469 75.335938 36.957031 75.335938 " fill-opacity="1" fill-rule="nonzero"/><path fill="#000000" d="M 54.160156 97.425781 L 30.636719 97.425781 L 30.636719 97.207031 L 54.160156 97.207031 L 54.160156 97.425781 " fill-opacity="1" fill-rule="nonzero"/><g clip-path="url(#8138ffcf66)"><path fill="#000000" d="M 8.789062 107.074219 L 102.988281 107.074219 L 102.988281 105.6875 L 8.789062 105.6875 Z M 103.207031 107.292969 L 8.570312 107.292969 L 8.570312 105.46875 L 103.207031 105.46875 L 103.207031 107.292969 " fill-opacity="1" fill-rule="nonzero"/></g><path fill="#000000" d="M 30.449219 67.613281 L 54.035156 67.613281 C 53.988281 67.410156 53.800781 67.257812 53.582031 67.257812 L 30.902344 67.257812 C 30.683594 67.257812 30.5 67.410156 30.449219 67.613281 Z M 54.269531 67.832031 L 30.214844 67.832031 L 30.214844 67.722656 C 30.214844 67.34375 30.523438 67.035156 30.902344 67.035156 L 53.582031 67.035156 C 53.960938 67.035156 54.269531 67.34375 54.269531 67.722656 L 54.269531 67.832031 " fill-opacity="1" fill-rule="nonzero"/><path fill="#000000" d="M 44.984375 67.007812 L 50.28125 67.007812 C 51.796875 66.199219 51.761719 64.117188 51.730469 63.648438 L 43.535156 63.648438 C 43.507812 64.117188 43.472656 66.199219 44.984375 67.007812 Z M 50.308594 67.21875 L 44.960938 67.21875 C 44.941406 67.21875 44.925781 67.214844 44.910156 67.207031 C 43.058594 66.242188 43.320312 63.640625 43.332031 63.53125 C 43.339844 63.476562 43.382812 63.4375 43.4375 63.4375 L 51.828125 63.4375 C 51.882812 63.4375 51.929688 63.476562 51.933594 63.53125 C 51.945312 63.640625 52.207031 66.242188 50.355469 67.207031 C 50.339844 67.214844 50.324219 67.21875 50.308594 67.21875 " fill-opacity="1" fill-rule="nonzero"/><path fill="#000000" d="M 43.484375 63.4375 L 51.78125 63.4375 C 51.820312 63.382812 51.886719 63.269531 51.832031 63.140625 C 51.734375 62.910156 51.132812 62.375 47.632812 62.375 C 44.128906 62.375 43.53125 62.910156 43.433594 63.140625 C 43.378906 63.269531 43.445312 63.386719 43.484375 63.4375 Z M 51.828125 63.648438 L 43.4375 63.648438 C 43.410156 63.648438 43.382812 63.636719 43.363281 63.617188 C 43.351562 63.609375 43.113281 63.363281 43.238281 63.058594 C 43.484375 62.46875 44.964844 62.167969 47.632812 62.167969 C 50.304688 62.167969 51.78125 62.46875 52.027344 63.058594 C 52.152344 63.363281 51.914062 63.609375 51.902344 63.617188 C 51.882812 63.636719 51.855469 63.648438 51.828125 63.648438 " fill-opacity="1" fill-rule="nonzero"/><path fill="#000000" d="M 48.925781 62.40625 C 48.871094 62.40625 48.824219 62.359375 48.824219 62.300781 C 48.820312 62.277344 48.78125 61.636719 47.632812 61.636719 C 46.484375 61.636719 46.445312 62.277344 46.445312 62.304688 C 46.441406 62.359375 46.394531 62.40625 46.335938 62.402344 C 46.277344 62.402344 46.230469 62.355469 46.234375 62.296875 C 46.234375 62.289062 46.269531 61.429688 47.632812 61.429688 C 48.996094 61.429688 49.03125 62.289062 49.03125 62.296875 C 49.035156 62.355469 48.988281 62.402344 48.929688 62.40625 C 48.929688 62.40625 48.929688 62.40625 48.925781 62.40625 " fill-opacity="1" fill-rule="nonzero"/><path fill="#000000" d="M 43.304688 63.648438 L 42.277344 63.648438 C 42.21875 63.648438 42.171875 63.601562 42.171875 63.542969 C 42.171875 63.484375 42.21875 63.4375 42.277344 63.4375 L 43.304688 63.4375 C 43.363281 63.4375 43.410156 63.484375 43.410156 63.542969 C 43.410156 63.601562 43.363281 63.648438 43.304688 63.648438 " fill-opacity="1" fill-rule="nonzero"/><path fill="#000000" d="M 52.988281 63.648438 L 51.957031 63.648438 C 51.898438 63.648438 51.851562 63.601562 51.851562 63.542969 C 51.851562 63.484375 51.898438 63.4375 51.957031 63.4375 L 52.988281 63.4375 C 53.046875 63.4375 53.09375 63.484375 53.09375 63.542969 C 53.09375 63.601562 53.046875 63.648438 52.988281 63.648438 " fill-opacity="1" fill-rule="nonzero"/><path fill="#000000" d="M 11.734375 55.613281 L 17.074219 55.613281 L 17.074219 53.582031 L 11.734375 53.582031 Z M 17.171875 55.808594 L 11.636719 55.808594 C 11.582031 55.808594 11.539062 55.765625 11.539062 55.710938 L 11.539062 53.484375 C 11.539062 53.429688 11.582031 53.386719 11.636719 53.386719 L 17.171875 53.386719 C 17.226562 53.386719 17.269531 53.429688 17.269531 53.484375 L 17.269531 55.710938 C 17.269531 55.765625 17.226562 55.808594 17.171875 55.808594 " fill-opacity="1" fill-rule="nonzero"/><path fill="#000000" d="M 11.539062 53.386719 L 17.269531 53.386719 L 17.269531 52.691406 L 11.539062 52.691406 Z M 17.367188 53.582031 L 11.441406 53.582031 C 11.386719 53.582031 11.34375 53.539062 11.34375 53.484375 L 11.34375 52.59375 C 11.34375 52.539062 11.386719 52.496094 11.441406 52.496094 L 17.367188 52.496094 C 17.421875 52.496094 17.464844 52.539062 17.464844 52.59375 L 17.464844 53.484375 C 17.464844 53.539062 17.421875 53.582031 17.367188 53.582031 " fill-opacity="1" fill-rule="nonzero"/><path fill="#000000" d="M 13.273438 52.496094 L 15.539062 52.496094 L 15.539062 49.75 L 13.273438 49.75 Z M 15.636719 52.691406 L 13.175781 52.691406 C 13.121094 52.691406 13.078125 52.644531 13.078125 52.59375 L 13.078125 49.652344 C 13.078125 49.597656 13.121094 49.554688 13.175781 49.554688 L 15.636719 49.554688 C 15.691406 49.554688 15.734375 49.597656 15.734375 49.652344 L 15.734375 52.59375 C 15.734375 52.644531 15.691406 52.691406 15.636719 52.691406 " fill-opacity="1" fill-rule="nonzero"/><path fill="#000000" d="M 13.003906 49.554688 L 15.804688 49.554688 L 15.804688 48.664062 L 13.003906 48.664062 Z M 15.902344 49.75 L 12.90625 49.75 C 12.851562 49.75 12.808594 49.707031 12.808594 49.652344 L 12.808594 48.566406 C 12.808594 48.511719 12.851562 48.46875 12.90625 48.46875 L 15.902344 48.46875 C 15.957031 48.46875 16 48.511719 16 48.566406 L 16 49.652344 C 16 49.707031 15.957031 49.75 15.902344 49.75 " fill-opacity="1" fill-rule="nonzero"/><path fill="#000000" d="M 20.570312 55.613281 L 22.511719 55.613281 C 22.554688 55.015625 22.769531 51.625 22.308594 50.675781 C 21.785156 49.597656 21.808594 48.8125 21.8125 48.78125 L 21.8125 46.25 L 21.273438 46.25 L 21.273438 48.785156 C 21.273438 48.8125 21.300781 49.597656 20.773438 50.675781 C 20.316406 51.625 20.53125 55.015625 20.570312 55.613281 Z M 22.605469 55.808594 L 20.480469 55.808594 C 20.429688 55.808594 20.386719 55.769531 20.382812 55.71875 C 20.371094 55.554688 20.074219 51.675781 20.597656 50.59375 C 21.101562 49.558594 21.078125 48.796875 21.078125 48.789062 L 21.078125 46.152344 C 21.078125 46.097656 21.121094 46.054688 21.175781 46.054688 L 21.910156 46.054688 C 21.960938 46.054688 22.007812 46.097656 22.007812 46.152344 L 22.007812 48.785156 C 22.007812 48.796875 21.984375 49.558594 22.484375 50.59375 C 23.011719 51.675781 22.714844 55.554688 22.703125 55.71875 C 22.699219 55.769531 22.65625 55.808594 22.605469 55.808594 " fill-opacity="1" fill-rule="nonzero"/><path fill="#000000" d="M 21.230469 46.054688 L 21.851562 46.054688 C 21.914062 45.945312 22 45.734375 21.929688 45.609375 C 21.867188 45.496094 21.683594 45.472656 21.542969 45.472656 C 21.398438 45.472656 21.214844 45.496094 21.152344 45.609375 C 21.085938 45.734375 21.171875 45.945312 21.230469 46.054688 Z M 21.910156 46.25 L 21.175781 46.25 C 21.140625 46.25 21.109375 46.234375 21.09375 46.207031 C 21.066406 46.164062 20.832031 45.789062 20.980469 45.515625 C 21.066406 45.355469 21.257812 45.277344 21.542969 45.277344 C 21.828125 45.277344 22.015625 45.355469 22.101562 45.515625 C 22.25 45.789062 22.019531 46.164062 21.992188 46.207031 C 21.972656 46.234375 21.941406 46.25 21.910156 46.25 " fill-opacity="1" fill-rule="nonzero"/><path fill="#000000" d="M 26.789062 55.808594 C 26.757812 55.808594 26.726562 55.792969 26.707031 55.769531 C 26.675781 55.722656 26.6875 55.664062 26.730469 55.632812 C 27.054688 55.394531 27.21875 55.140625 27.21875 54.875 C 27.21875 54.480469 26.851562 54.15625 26.753906 54.078125 L 25 54.078125 C 24.902344 54.15625 24.539062 54.480469 24.539062 54.875 C 24.539062 55.140625 24.703125 55.394531 25.027344 55.632812 C 25.070312 55.664062 25.078125 55.722656 25.046875 55.769531 C 25.015625 55.8125 24.953125 55.820312 24.910156 55.789062 C 24.53125 55.511719 24.34375 55.207031 24.34375 54.875 C 24.34375 54.320312 24.886719 53.917969 24.910156 53.902344 C 24.925781 53.886719 24.949219 53.882812 24.96875 53.882812 L 26.789062 53.882812 C 26.808594 53.882812 26.828125 53.886719 26.84375 53.902344 C 26.867188 53.917969 27.414062 54.320312 27.414062 54.875 C 27.414062 55.207031 27.222656 55.511719 26.84375 55.789062 C 26.828125 55.800781 26.808594 55.808594 26.789062 55.808594 " fill-opacity="1" fill-rule="nonzero"/><path fill="#000000" d="M 24.820312 53.882812 L 26.9375 53.882812 C 26.933594 53.632812 26.726562 53.429688 26.476562 53.429688 L 25.28125 53.429688 C 25.027344 53.429688 24.824219 53.632812 24.820312 53.882812 Z M 27.035156 54.078125 L 24.722656 54.078125 C 24.667969 54.078125 24.625 54.035156 24.625 53.980469 L 24.625 53.886719 C 24.625 53.527344 24.917969 53.230469 25.28125 53.230469 L 26.476562 53.230469 C 26.839844 53.230469 27.132812 53.527344 27.132812 53.886719 L 27.132812 53.980469 C 27.132812 54.035156 27.089844 54.078125 27.035156 54.078125 " fill-opacity="1" fill-rule="nonzero"/><path fill="#000000" d="M 28.554688 51.597656 L 30.671875 51.597656 C 30.667969 51.347656 30.460938 51.144531 30.210938 51.144531 L 29.015625 51.144531 C 28.761719 51.144531 28.554688 51.347656 28.554688 51.597656 Z M 30.769531 51.792969 L 28.457031 51.792969 C 28.402344 51.792969 28.359375 51.75 28.359375 51.695312 L 28.359375 51.601562 C 28.359375 51.242188 28.652344 50.949219 29.015625 50.949219 L 30.210938 50.949219 C 30.570312 50.949219 30.867188 51.242188 30.867188 51.601562 L 30.867188 51.695312 C 30.867188 51.75 30.824219 51.792969 30.769531 51.792969 " fill-opacity="1" fill-rule="nonzero"/><path fill="#000000" d="M 30.8125 55.808594 C 30.800781 55.808594 30.789062 55.804688 30.777344 55.800781 C 30.726562 55.78125 30.699219 55.722656 30.71875 55.675781 C 31.566406 53.519531 31.367188 52.582031 31.050781 52.175781 C 30.71875 51.746094 30.1875 51.800781 30.183594 51.804688 C 30.179688 51.804688 30.175781 51.804688 30.171875 51.804688 L 29.050781 51.804688 C 29.046875 51.804688 29.042969 51.804688 29.042969 51.804688 C 29.019531 51.800781 28.5 51.746094 28.167969 52.175781 C 27.855469 52.585938 27.65625 53.523438 28.503906 55.675781 C 28.523438 55.722656 28.5 55.78125 28.449219 55.800781 C 28.398438 55.820312 28.339844 55.796875 28.320312 55.746094 C 27.613281 53.949219 27.511719 52.707031 28.015625 52.054688 C 28.398438 51.558594 28.984375 51.601562 29.058594 51.609375 L 30.167969 51.609375 C 30.238281 51.601562 30.824219 51.558594 31.207031 52.054688 C 31.710938 52.707031 31.609375 53.949219 30.902344 55.746094 C 30.886719 55.785156 30.851562 55.808594 30.8125 55.808594 " fill-opacity="1" fill-rule="nonzero"/><path fill="#000000" d="M 26.675781 53.4375 C 26.621094 53.4375 26.578125 53.394531 26.578125 53.339844 L 26.578125 50.632812 C 26.578125 50.582031 26.621094 50.535156 26.675781 50.535156 L 29.613281 50.535156 C 29.664062 50.535156 29.710938 50.582031 29.710938 50.632812 L 29.710938 51.046875 C 29.710938 51.097656 29.664062 51.144531 29.613281 51.144531 C 29.558594 51.144531 29.515625 51.097656 29.515625 51.046875 L 29.515625 50.734375 L 26.773438 50.734375 L 26.773438 53.339844 C 26.773438 53.394531 26.730469 53.4375 26.675781 53.4375 " fill-opacity="1" fill-rule="nonzero"/><path fill="#000000" d="M 26.519531 50.535156 L 29.769531 50.535156 L 29.769531 49.757812 L 26.519531 49.757812 Z M 29.867188 50.734375 L 26.421875 50.734375 C 26.367188 50.734375 26.324219 50.6875 26.324219 50.632812 L 26.324219 49.660156 C 26.324219 49.605469 26.367188 49.5625 26.421875 49.5625 L 29.867188 49.5625 C 29.921875 49.5625 29.964844 49.605469 29.964844 49.660156 L 29.964844 50.632812 C 29.964844 50.6875 29.921875 50.734375 29.867188 50.734375 " fill-opacity="1" fill-rule="nonzero"/><path fill="#000000" d="M 32.503906 55.808594 C 32.449219 55.808594 32.40625 55.765625 32.40625 55.714844 C 32.402344 55.6875 32.308594 53.019531 32.40625 51.503906 C 32.503906 49.984375 33.121094 48.027344 33.125 48.007812 C 33.140625 47.957031 33.195312 47.925781 33.25 47.945312 C 33.300781 47.960938 33.328125 48.015625 33.3125 48.066406 C 33.304688 48.085938 32.695312 50.019531 32.601562 51.519531 C 32.503906 53.023438 32.601562 55.679688 32.601562 55.707031 C 32.601562 55.761719 32.558594 55.804688 32.507812 55.808594 C 32.503906 55.808594 32.503906 55.808594 32.503906 55.808594 " fill-opacity="1" fill-rule="nonzero"/><path fill="#000000" d="M 34.585938 55.808594 C 34.585938 55.808594 34.585938 55.808594 34.582031 55.808594 C 34.527344 55.804688 34.488281 55.761719 34.488281 55.707031 C 34.488281 55.679688 34.585938 53.023438 34.488281 51.519531 C 34.394531 50.019531 33.785156 48.085938 33.777344 48.066406 C 33.761719 48.015625 33.789062 47.960938 33.839844 47.945312 C 33.890625 47.925781 33.949219 47.957031 33.964844 48.007812 C 33.96875 48.027344 34.585938 49.984375 34.683594 51.503906 C 34.78125 53.019531 34.6875 55.6875 34.683594 55.714844 C 34.683594 55.765625 34.640625 55.808594 34.585938 55.808594 " fill-opacity="1" fill-rule="nonzero"/><path fill="#000000" d="M 33.050781 47.882812 L 34 47.882812 C 34.039062 47.808594 34.058594 47.726562 34.058594 47.640625 C 34.058594 47.351562 33.820312 47.113281 33.527344 47.113281 C 33.234375 47.113281 32.996094 47.351562 32.996094 47.640625 C 32.996094 47.726562 33.015625 47.808594 33.050781 47.882812 Z M 34.058594 48.078125 L 32.996094 48.078125 C 32.960938 48.078125 32.929688 48.058594 32.914062 48.03125 C 32.835938 47.914062 32.796875 47.78125 32.796875 47.640625 C 32.796875 47.242188 33.125 46.914062 33.527344 46.914062 C 33.929688 46.914062 34.253906 47.242188 34.253906 47.640625 C 34.253906 47.78125 34.214844 47.914062 34.140625 48.03125 C 34.121094 48.058594 34.089844 48.078125 34.058594 48.078125 " fill-opacity="1" fill-rule="nonzero"/><g clip-path="url(#758575da20)"><path fill="#000000" d="M 117.535156 107.355469 L -5.660156 107.355469 L -5.660156 107.109375 L 117.535156 107.109375 L 117.535156 107.355469 " fill-opacity="1" fill-rule="nonzero"/></g><path fill="#000000" d="M 8.753906 67.832031 L 8.695312 67.832031 L 8.695312 56.761719 L 8.753906 56.761719 L 8.753906 67.832031 " fill-opacity="1" fill-rule="nonzero"/><path fill="#000000" d="M 8.753906 55.773438 L 8.695312 55.773438 L 8.695312 41.65625 L 8.753906 41.65625 L 8.753906 55.773438 " fill-opacity="1" fill-rule="nonzero"/><path fill="#000000" d="M 15.046875 67.832031 L 14.984375 67.832031 L 14.984375 56.765625 L 15.046875 56.765625 L 15.046875 67.832031 " fill-opacity="1" fill-rule="nonzero"/><path fill="#000000" d="M 15.046875 48.5625 L 14.984375 48.5625 L 14.984375 41.65625 L 15.046875 41.65625 L 15.046875 48.5625 " fill-opacity="1" fill-rule="nonzero"/><path fill="#000000" d="M 21.339844 67.832031 L 21.277344 67.832031 L 21.277344 56.765625 L 21.339844 56.765625 L 21.339844 67.832031 " fill-opacity="1" fill-rule="nonzero"/><path fill="#000000" d="M 21.339844 45.390625 L 21.277344 45.390625 L 21.277344 41.65625 L 21.339844 41.65625 L 21.339844 45.390625 " fill-opacity="1" fill-rule="nonzero"/><path fill="#000000" d="M 27.628906 67.832031 L 27.570312 67.832031 L 27.570312 56.699219 L 27.628906 56.699219 L 27.628906 67.832031 " fill-opacity="1" fill-rule="nonzero"/><path fill="#000000" d="M 27.628906 49.644531 L 27.570312 49.644531 L 27.570312 41.65625 L 27.628906 41.65625 L 27.628906 49.644531 " fill-opacity="1" fill-rule="nonzero"/><path fill="#000000" d="M 33.921875 67.121094 L 33.859375 67.121094 L 33.859375 56.699219 L 33.921875 56.699219 L 33.921875 67.121094 " fill-opacity="1" fill-rule="nonzero"/><path fill="#000000" d="M 33.921875 47.121094 L 33.859375 47.121094 L 33.859375 41.65625 L 33.921875 41.65625 L 33.921875 47.121094 " fill-opacity="1" fill-rule="nonzero"/><path fill="#000000" d="M 40.214844 67.121094 L 40.152344 67.121094 L 40.152344 41.65625 L 40.214844 41.65625 L 40.214844 67.121094 " fill-opacity="1" fill-rule="nonzero"/><path fill="#000000" d="M 46.503906 61.992188 L 46.445312 61.992188 L 46.445312 41.4375 L 46.503906 41.4375 L 46.503906 61.992188 " fill-opacity="1" fill-rule="nonzero"/><path fill="#000000" d="M 52.796875 67.121094 L 52.734375 67.121094 L 52.734375 41.65625 L 52.796875 41.65625 L 52.796875 67.121094 " fill-opacity="1" fill-rule="nonzero"/><path fill="#000000" d="M 59.089844 67.832031 L 59.027344 67.832031 L 59.027344 41.65625 L 59.089844 41.65625 L 59.089844 67.832031 " fill-opacity="1" fill-rule="nonzero"/><path fill="#000000" d="M 65.378906 67.832031 L 65.316406 67.832031 L 65.316406 41.65625 L 65.378906 41.65625 L 65.378906 67.832031 " fill-opacity="1" fill-rule="nonzero"/><path fill="#000000" d="M 71.671875 65.988281 L 71.609375 65.988281 L 71.609375 63.40625 L 71.671875 63.40625 L 71.671875 65.988281 " fill-opacity="1" fill-rule="nonzero"/><path fill="#000000" d="M 71.671875 59.949219 L 71.609375 59.949219 L 71.609375 41.65625 L 71.671875 41.65625 L 71.671875 59.949219 " fill-opacity="1" fill-rule="nonzero"/><path fill="#000000" d="M 77.964844 67.105469 L 77.902344 67.105469 L 77.902344 66.363281 L 77.964844 66.363281 L 77.964844 67.105469 " fill-opacity="1" fill-rule="nonzero"/><path fill="#000000" d="M 77.964844 63.925781 L 77.902344 63.925781 L 77.902344 62.386719 L 77.964844 62.386719 L 77.964844 63.925781 " fill-opacity="1" fill-rule="nonzero"/><path fill="#000000" d="M 77.964844 59.949219 L 77.902344 59.949219 L 77.902344 41.65625 L 77.964844 41.65625 L 77.964844 59.949219 " fill-opacity="1" fill-rule="nonzero"/><path fill="#000000" d="M 84.253906 66.109375 L 84.191406 66.109375 L 84.191406 41.65625 L 84.253906 41.65625 L 84.253906 66.109375 " fill-opacity="1" fill-rule="nonzero"/><path fill="#000000" d="M 90.546875 67.167969 L 90.484375 67.167969 L 90.484375 41.65625 L 90.546875 41.65625 L 90.546875 67.167969 " fill-opacity="1" fill-rule="nonzero"/><path fill="#000000" d="M 96.839844 67.167969 L 96.777344 67.167969 L 96.777344 41.65625 L 96.839844 41.65625 L 96.839844 67.167969 " fill-opacity="1" fill-rule="nonzero"/><path fill="#000000" d="M 103.128906 67.167969 L 103.070312 67.167969 L 103.070312 41.65625 L 103.128906 41.65625 L 103.128906 67.167969 " fill-opacity="1" fill-rule="nonzero"/><path fill="#000000" d="M 103.097656 47.527344 L 34.160156 47.527344 L 34.160156 47.464844 L 103.097656 47.464844 L 103.097656 47.527344 " fill-opacity="1" fill-rule="nonzero"/><path fill="#000000" d="M 32.894531 47.527344 L 21.925781 47.527344 L 21.925781 47.464844 L 32.894531 47.464844 L 32.894531 47.527344 " fill-opacity="1" fill-rule="nonzero"/><path fill="#000000" d="M 21.1875 47.527344 L 8.722656 47.527344 L 8.722656 47.464844 L 21.1875 47.464844 L 21.1875 47.527344 " fill-opacity="1" fill-rule="nonzero"/><path fill="#000000" d="M 103.097656 53.914062 L 34.652344 53.914062 L 34.652344 53.851562 L 103.097656 53.851562 L 103.097656 53.914062 " fill-opacity="1" fill-rule="nonzero"/><path fill="#000000" d="M 32.464844 53.914062 L 31.339844 53.914062 L 31.339844 53.851562 L 32.464844 53.851562 L 32.464844 53.914062 " fill-opacity="1" fill-rule="nonzero"/><path fill="#000000" d="M 24.695312 53.914062 L 22.691406 53.914062 L 22.691406 53.851562 L 24.695312 53.851562 L 24.695312 53.914062 " fill-opacity="1" fill-rule="nonzero"/><path fill="#000000" d="M 20.398438 53.914062 L 17.210938 53.914062 L 17.210938 53.851562 L 20.398438 53.851562 L 20.398438 53.914062 " fill-opacity="1" fill-rule="nonzero"/><path fill="#000000" d="M 11.652344 53.914062 L 8.722656 53.914062 L 8.722656 53.851562 L 11.652344 53.851562 L 11.652344 53.914062 " fill-opacity="1" fill-rule="nonzero"/><path fill="#000000" d="M 103.097656 60.296875 L 90.230469 60.296875 L 90.230469 60.234375 L 103.097656 60.234375 L 103.097656 60.296875 " fill-opacity="1" fill-rule="nonzero"/><path fill="#000000" d="M 89.117188 60.296875 L 85.613281 60.296875 L 85.613281 60.234375 L 89.117188 60.234375 L 89.117188 60.296875 " fill-opacity="1" fill-rule="nonzero"/><path fill="#000000" d="M 84.304688 60.296875 L 79.921875 60.296875 L 79.921875 60.234375 L 84.304688 60.234375 L 84.304688 60.296875 " fill-opacity="1" fill-rule="nonzero"/><path fill="#000000" d="M 79.082031 60.296875 L 78.085938 60.296875 L 78.085938 60.234375 L 79.082031 60.234375 L 79.082031 60.296875 " fill-opacity="1" fill-rule="nonzero"/><path fill="#000000" d="M 76.671875 60.296875 L 71.75 60.296875 L 71.75 60.234375 L 76.671875 60.234375 L 76.671875 60.296875 " fill-opacity="1" fill-rule="nonzero"/><path fill="#000000" d="M 70.71875 60.296875 L 8.722656 60.296875 L 8.722656 60.234375 L 70.71875 60.234375 L 70.71875 60.296875 " fill-opacity="1" fill-rule="nonzero"/><path fill="#000000" d="M 100.296875 66.683594 L 85.882812 66.683594 L 85.882812 66.621094 L 100.296875 66.621094 L 100.296875 66.683594 " fill-opacity="1" fill-rule="nonzero"/><path fill="#000000" d="M 83.253906 66.683594 L 50.945312 66.683594 L 50.945312 66.621094 L 83.253906 66.621094 L 83.253906 66.683594 " fill-opacity="1" fill-rule="nonzero"/><path fill="#000000" d="M 44.320312 66.683594 L 8.722656 66.683594 L 8.722656 66.621094 L 44.320312 66.621094 L 44.320312 66.683594 " fill-opacity="1" fill-rule="nonzero"/></svg>