<svg xmlns="http://www.w3.org/2000/svg" xmlns:xlink="http://www.w3.org/1999/xlink" width="150" zoomAndPan="magnify" viewBox="0 0 112.5 112.499997" height="150" preserveAspectRatio="xMidYMid meet" version="1.0"><defs><clipPath id="a93aa11d82"><path d="M 68 83 L 103 83 L 103 109.53125 L 68 109.53125 Z M 68 83 " clip-rule="nonzero"/></clipPath><clipPath id="596e710f89"><path d="M 61 107 L 110.007812 107 L 110.007812 109.53125 L 61 109.53125 Z M 61 107 " clip-rule="nonzero"/></clipPath><clipPath id="eb319e79c4"><path d="M 20 78 L 39 78 L 39 109.53125 L 20 109.53125 Z M 20 78 " clip-rule="nonzero"/></clipPath><clipPath id="cab896120e"><path d="M 1.738281 52 L 57 52 L 57 77 L 1.738281 77 Z M 1.738281 52 " clip-rule="nonzero"/></clipPath><clipPath id="a5e8c79e55"><path d="M 35 2.757812 L 73 2.757812 L 73 29 L 35 29 Z M 35 2.757812 " clip-rule="nonzero"/></clipPath></defs><g clip-path="url(#a93aa11d82)"><path fill="#504F4F" d="M 98.703125 109.53125 C 98.023438 109.53125 97.472656 108.976562 97.472656 108.296875 C 97.472656 107.613281 98.023438 107.058594 98.703125 107.058594 C 99.226562 107.058594 99.644531 106.867188 99.988281 106.472656 C 100.328125 106.078125 100.464844 105.632812 100.394531 105.113281 L 97.710938 85.222656 C 97.617188 84.546875 98.089844 83.925781 98.761719 83.832031 C 99.4375 83.742188 100.058594 84.214844 100.148438 84.890625 L 102.832031 104.78125 C 103 106.011719 102.65625 107.160156 101.839844 108.097656 C 101.027344 109.035156 99.945312 109.53125 98.703125 109.53125 Z M 73.128906 109.53125 C 71.890625 109.53125 70.804688 109.035156 69.992188 108.101562 C 69.179688 107.164062 68.835938 106.015625 69 104.78125 L 71.683594 84.890625 C 71.777344 84.214844 72.394531 83.742188 73.070312 83.832031 C 73.742188 83.925781 74.214844 84.546875 74.121094 85.226562 L 71.4375 105.117188 C 71.367188 105.632812 71.5 106.078125 71.84375 106.476562 C 72.1875 106.871094 72.605469 107.0625 73.128906 107.0625 C 73.808594 107.0625 74.359375 107.613281 74.359375 108.296875 C 74.359375 108.980469 73.808594 109.53125 73.128906 109.53125 Z M 73.128906 109.53125 " fill-opacity="1" fill-rule="nonzero"/></g><path fill="#504F4F" d="M 101.285156 103.734375 L 70.550781 103.734375 C 69.871094 103.734375 69.320312 103.183594 69.320312 102.5 C 69.320312 101.816406 69.871094 101.261719 70.550781 101.261719 L 101.285156 101.261719 C 101.964844 101.261719 102.515625 101.816406 102.515625 102.5 C 102.515625 103.183594 101.964844 103.734375 101.285156 103.734375 Z M 101.285156 103.734375 " fill-opacity="1" fill-rule="nonzero"/><path fill="#504F4F" d="M 85.917969 92.089844 C 75.550781 92.089844 67.121094 83.617188 67.121094 73.203125 C 67.121094 72.519531 67.671875 71.964844 68.351562 71.964844 C 69.03125 71.964844 69.582031 72.519531 69.582031 73.203125 C 69.582031 82.253906 76.910156 89.617188 85.917969 89.617188 C 94.921875 89.617188 102.25 82.253906 102.25 73.203125 C 102.25 72.519531 102.800781 71.964844 103.480469 71.964844 C 104.160156 71.964844 104.710938 72.519531 104.710938 73.203125 C 104.710938 83.617188 96.28125 92.089844 85.917969 92.089844 Z M 85.917969 92.089844 " fill-opacity="1" fill-rule="nonzero"/><path fill="#504F4F" d="M 104.765625 74.4375 L 67.066406 74.4375 C 64.914062 74.4375 63.164062 72.675781 63.164062 70.515625 C 63.164062 68.351562 64.914062 66.589844 67.066406 66.589844 L 104.769531 66.589844 C 106.921875 66.589844 108.671875 68.351562 108.671875 70.515625 C 108.671875 72.675781 106.921875 74.4375 104.765625 74.4375 Z M 67.066406 69.058594 C 66.269531 69.058594 65.621094 69.710938 65.621094 70.511719 C 65.621094 71.3125 66.269531 71.964844 67.066406 71.964844 L 104.769531 71.964844 C 105.566406 71.964844 106.210938 71.3125 106.210938 70.511719 C 106.210938 69.710938 105.566406 69.058594 104.769531 69.058594 Z M 67.066406 69.058594 " fill-opacity="1" fill-rule="nonzero"/><path fill="#504F4F" d="M 98.289062 69.0625 C 98.132812 69.0625 97.976562 69.03125 97.824219 68.972656 C 97.195312 68.714844 96.894531 67.992188 97.148438 67.363281 C 98.292969 64.535156 98.894531 61.304688 98.894531 58.027344 C 98.894531 47.722656 93.074219 39.34375 85.917969 39.34375 C 78.761719 39.34375 72.9375 47.722656 72.9375 58.027344 C 72.9375 61.304688 73.542969 64.535156 74.683594 67.363281 C 74.9375 67.996094 74.636719 68.714844 74.007812 68.972656 C 73.378906 69.226562 72.660156 68.925781 72.40625 68.292969 C 71.144531 65.171875 70.480469 61.621094 70.480469 58.027344 C 70.480469 46.359375 77.40625 36.871094 85.917969 36.871094 C 94.433594 36.871094 101.359375 46.359375 101.359375 58.027344 C 101.359375 61.621094 100.691406 65.171875 99.429688 68.292969 C 99.234375 68.769531 98.773438 69.0625 98.289062 69.0625 Z M 98.289062 69.0625 " fill-opacity="1" fill-rule="nonzero"/><path fill="#504F4F" d="M 104.765625 69.058594 C 104.085938 69.058594 103.535156 68.507812 103.535156 67.824219 L 103.535156 40.117188 C 103.535156 36.898438 100.933594 34.285156 97.730469 34.285156 L 74.101562 34.285156 C 70.898438 34.285156 68.296875 36.898438 68.296875 40.117188 L 68.296875 67.828125 C 68.296875 68.507812 67.746094 69.0625 67.066406 69.0625 C 66.386719 69.0625 65.835938 68.507812 65.835938 67.828125 L 65.835938 40.117188 C 65.835938 35.535156 69.542969 31.8125 74.101562 31.8125 L 97.730469 31.8125 C 102.289062 31.8125 105.996094 35.535156 105.996094 40.117188 L 105.996094 67.828125 C 105.996094 68.507812 105.445312 69.058594 104.765625 69.058594 Z M 104.765625 69.058594 " fill-opacity="1" fill-rule="nonzero"/><path fill="#504F4F" d="M 93.101562 97.914062 L 78.734375 97.914062 C 78.054688 97.914062 77.503906 97.359375 77.503906 96.675781 C 77.503906 95.996094 78.054688 95.441406 78.734375 95.441406 L 93.101562 95.441406 C 93.777344 95.441406 94.328125 95.996094 94.328125 96.675781 C 94.328125 97.359375 93.777344 97.914062 93.101562 97.914062 Z M 93.101562 97.914062 " fill-opacity="1" fill-rule="nonzero"/><path fill="#504F4F" d="M 90.425781 83.265625 L 81.40625 83.265625 C 80.726562 83.265625 80.175781 82.710938 80.175781 82.027344 C 80.175781 81.347656 80.726562 80.792969 81.40625 80.792969 L 90.425781 80.792969 C 91.105469 80.792969 91.65625 81.347656 91.65625 82.027344 C 91.65625 82.710938 91.105469 83.265625 90.425781 83.265625 Z M 90.425781 83.265625 " fill-opacity="1" fill-rule="nonzero"/><g clip-path="url(#596e710f89)"><path fill="#504F4F" d="M 108.777344 109.53125 L 63.054688 109.53125 C 62.375 109.53125 61.824219 108.976562 61.824219 108.296875 C 61.824219 107.613281 62.375 107.058594 63.054688 107.058594 L 108.777344 107.058594 C 109.457031 107.058594 110.007812 107.613281 110.007812 108.296875 C 110.007812 108.976562 109.457031 109.53125 108.777344 109.53125 Z M 108.777344 109.53125 " fill-opacity="1" fill-rule="nonzero"/></g><g clip-path="url(#eb319e79c4)"><path fill="#504F4F" d="M 37.089844 109.53125 L 21.550781 109.53125 C 20.871094 109.53125 20.320312 108.976562 20.320312 108.296875 L 20.320312 79.351562 C 20.320312 78.671875 20.871094 78.117188 21.550781 78.117188 C 22.230469 78.117188 22.78125 78.671875 22.78125 79.351562 L 22.78125 107.0625 L 35.859375 107.0625 L 35.859375 79.238281 C 35.859375 78.554688 36.410156 78 37.089844 78 C 37.765625 78 38.320312 78.554688 38.320312 79.238281 L 38.320312 108.296875 C 38.320312 108.980469 37.765625 109.53125 37.089844 109.53125 Z M 37.089844 109.53125 " fill-opacity="1" fill-rule="nonzero"/></g><path fill="#504F4F" d="M 29.019531 81.808594 C 24.894531 81.808594 20.84375 80.769531 16.96875 78.71875 C 16.089844 78.253906 15.445312 77.480469 15.152344 76.527344 C 14.863281 75.578125 14.953125 74.570312 15.414062 73.6875 C 15.746094 73.058594 16.242188 72.539062 16.859375 72.1875 C 17.449219 71.851562 18.199219 72.058594 18.535156 72.652344 C 18.875 73.246094 18.667969 74 18.078125 74.339844 C 17.871094 74.457031 17.707031 74.628906 17.59375 74.84375 C 17.4375 75.140625 17.40625 75.480469 17.503906 75.796875 C 17.601562 76.117188 17.820312 76.378906 18.113281 76.535156 C 21.730469 78.445312 25.503906 79.386719 29.335938 79.335938 C 32.933594 79.285156 36.679688 78.351562 40.472656 76.558594 C 40.777344 76.414062 41.003906 76.167969 41.117188 75.855469 C 41.230469 75.539062 41.214844 75.203125 41.078125 74.898438 C 40.964844 74.664062 40.789062 74.472656 40.566406 74.34375 C 39.972656 74.007812 39.765625 73.253906 40.097656 72.660156 C 40.433594 72.066406 41.183594 71.855469 41.773438 72.191406 C 42.445312 72.574219 42.976562 73.148438 43.300781 73.855469 C 43.722656 74.753906 43.765625 75.765625 43.429688 76.699219 C 43.089844 77.632812 42.410156 78.382812 41.515625 78.800781 C 37.40625 80.742188 33.316406 81.757812 29.367188 81.8125 C 29.253906 81.808594 29.136719 81.808594 29.019531 81.808594 Z M 29.019531 81.808594 " fill-opacity="1" fill-rule="nonzero"/><g clip-path="url(#cab896120e)"><path fill="#504F4F" d="M 29.320312 76.832031 C 14.113281 76.832031 1.746094 66.480469 1.746094 53.757812 C 1.746094 53.074219 2.296875 52.519531 2.972656 52.519531 L 55.667969 52.519531 C 56.347656 52.519531 56.898438 53.074219 56.898438 53.757812 C 56.898438 66.480469 44.523438 76.832031 29.320312 76.832031 Z M 4.25 54.992188 C 5.03125 65.78125 15.976562 74.359375 29.320312 74.359375 C 42.660156 74.359375 53.609375 65.78125 54.390625 54.992188 Z M 4.25 54.992188 " fill-opacity="1" fill-rule="nonzero"/></g><path fill="#504F4F" d="M 33.375 54.992188 C 32.695312 54.992188 32.144531 54.4375 32.144531 53.757812 L 32.144531 37.746094 C 32.144531 35.921875 31.433594 34.203125 30.140625 32.902344 C 28.847656 31.605469 27.136719 30.890625 25.324219 30.890625 C 23.511719 30.890625 21.800781 31.605469 20.507812 32.902344 C 19.484375 33.933594 18.828125 35.222656 18.597656 36.621094 L 20.21875 36.621094 C 20.429688 35.652344 20.914062 34.757812 21.632812 34.035156 C 22.621094 33.039062 23.933594 32.492188 25.320312 32.492188 C 26.710938 32.492188 28.023438 33.042969 29.011719 34.035156 C 30.003906 35.03125 30.546875 36.347656 30.546875 37.746094 L 30.546875 53.757812 C 30.546875 54.4375 29.996094 54.992188 29.316406 54.992188 C 28.636719 54.992188 28.085938 54.4375 28.085938 53.757812 L 28.085938 37.746094 C 28.085938 37.007812 27.796875 36.3125 27.273438 35.785156 C 26.746094 35.253906 26.050781 34.964844 25.320312 34.964844 C 24.589844 34.964844 23.894531 35.257812 23.371094 35.785156 C 22.84375 36.3125 22.554688 37.007812 22.554688 37.746094 C 22.554688 37.804688 22.554688 37.867188 22.550781 37.925781 C 22.515625 38.582031 21.976562 39.09375 21.324219 39.09375 L 17.277344 39.09375 C 16.621094 39.09375 16.085938 38.582031 16.050781 37.925781 C 16.046875 37.867188 16.042969 37.804688 16.042969 37.746094 C 16.042969 35.261719 17.011719 32.921875 18.769531 31.15625 C 20.523438 29.390625 22.855469 28.417969 25.324219 28.417969 C 27.796875 28.417969 30.125 29.390625 31.878906 31.15625 C 33.636719 32.921875 34.605469 35.261719 34.605469 37.746094 L 34.605469 53.757812 C 34.605469 54.4375 34.050781 54.992188 33.375 54.992188 Z M 33.375 54.992188 " fill-opacity="1" fill-rule="nonzero"/><path fill="#504F4F" d="M 16.992188 54.992188 C 16.3125 54.992188 15.761719 54.4375 15.761719 53.757812 L 15.761719 47.53125 C 15.761719 46.851562 16.3125 46.296875 16.992188 46.296875 C 17.671875 46.296875 18.222656 46.851562 18.222656 47.53125 L 18.222656 53.757812 C 18.222656 54.4375 17.671875 54.992188 16.992188 54.992188 Z M 16.992188 54.992188 " fill-opacity="1" fill-rule="nonzero"/><path fill="#504F4F" d="M 20.085938 48.769531 L 13.894531 48.769531 C 13.214844 48.769531 12.664062 48.214844 12.664062 47.53125 C 12.664062 46.851562 13.214844 46.296875 13.894531 46.296875 L 20.085938 46.296875 C 20.765625 46.296875 21.316406 46.851562 21.316406 47.53125 C 21.316406 48.214844 20.769531 48.769531 20.085938 48.769531 Z M 20.085938 48.769531 " fill-opacity="1" fill-rule="nonzero"/><path fill="#504F4F" d="M 41.648438 54.992188 C 40.96875 54.992188 40.417969 54.4375 40.417969 53.757812 L 40.417969 47.53125 C 40.417969 46.851562 40.96875 46.296875 41.648438 46.296875 C 42.328125 46.296875 42.878906 46.851562 42.878906 47.53125 L 42.878906 53.757812 C 42.878906 54.4375 42.328125 54.992188 41.648438 54.992188 Z M 41.648438 54.992188 " fill-opacity="1" fill-rule="nonzero"/><path fill="#504F4F" d="M 44.746094 48.769531 L 38.550781 48.769531 C 37.875 48.769531 37.320312 48.214844 37.320312 47.53125 C 37.320312 46.851562 37.875 46.296875 38.550781 46.296875 L 44.746094 46.296875 C 45.421875 46.296875 45.972656 46.851562 45.972656 47.53125 C 45.972656 48.214844 45.421875 48.769531 44.746094 48.769531 Z M 44.746094 48.769531 " fill-opacity="1" fill-rule="nonzero"/><g clip-path="url(#a5e8c79e55)"><path fill="#504F4F" d="M 71.578125 28.109375 L 36.582031 28.109375 C 35.902344 28.109375 35.351562 27.554688 35.351562 26.875 L 35.351562 4.011719 C 35.351562 3.328125 35.902344 2.773438 36.582031 2.773438 L 71.578125 2.773438 C 72.253906 2.773438 72.804688 3.328125 72.804688 4.011719 L 72.804688 26.871094 C 72.804688 27.554688 72.253906 28.109375 71.578125 28.109375 Z M 37.8125 25.636719 L 70.347656 25.636719 L 70.347656 5.246094 L 37.8125 5.246094 Z M 37.8125 25.636719 " fill-opacity="1" fill-rule="nonzero"/></g><path fill="#504F4F" d="M 50.101562 20.5 C 49.894531 20.5 49.679688 20.445312 49.488281 20.332031 C 48.898438 19.992188 48.699219 19.234375 49.035156 18.644531 L 53.429688 11.003906 C 53.769531 10.414062 54.519531 10.210938 55.109375 10.550781 C 55.695312 10.890625 55.898438 11.648438 55.558594 12.238281 L 51.167969 19.882812 C 50.9375 20.277344 50.527344 20.5 50.101562 20.5 Z M 50.101562 20.5 " fill-opacity="1" fill-rule="nonzero"/><path fill="#504F4F" d="M 56.671875 20.5 C 56.464844 20.5 56.253906 20.445312 56.058594 20.332031 C 55.46875 19.992188 55.269531 19.234375 55.609375 18.644531 L 56.988281 16.242188 C 57.328125 15.652344 58.082031 15.449219 58.667969 15.789062 C 59.257812 16.128906 59.457031 16.886719 59.117188 17.476562 L 57.738281 19.882812 C 57.511719 20.277344 57.097656 20.5 56.671875 20.5 Z M 56.671875 20.5 " fill-opacity="1" fill-rule="nonzero"/></svg>