<svg xmlns="http://www.w3.org/2000/svg" xmlns:xlink="http://www.w3.org/1999/xlink" width="150" zoomAndPan="magnify" viewBox="0 0 112.5 112.499997" height="150" preserveAspectRatio="xMidYMid meet" version="1.0"><defs><clipPath id="c73806ddd0"><path d="M 0 2.492188 L 112.003906 2.492188 L 112.003906 109.265625 L 0 109.265625 Z M 0 2.492188 " clip-rule="nonzero"/></clipPath></defs><path fill="#2b2a2a" d="M 104.09375 60.460938 L 45.390625 60.460938 L 45.390625 38.320312 L 95.441406 38.320312 C 97.765625 38.320312 100.164062 38.484375 102.476562 38.320312 L 102.589844 38.320312 C 102.816406 38.316406 103.011719 38.234375 103.167969 38.074219 C 103.328125 37.914062 103.410156 37.722656 103.414062 37.496094 L 103.414062 5.722656 C 103.421875 5.40625 103.285156 5.179688 103.003906 5.042969 L 103.003906 4.921875 L 12.558594 4.921875 C 10.882812 4.921875 9.195312 4.921875 7.515625 4.921875 L 7.300781 4.921875 C 7.074219 4.921875 6.882812 5.003906 6.722656 5.164062 C 6.5625 5.324219 6.480469 5.515625 6.476562 5.742188 L 6.476562 52.640625 C 6.46875 52.699219 6.46875 52.757812 6.476562 52.816406 L 6.476562 88.039062 C 6.476562 91.804688 6.335938 95.609375 6.476562 99.355469 L 6.476562 99.511719 C 6.476562 99.738281 6.558594 99.929688 6.71875 100.09375 C 6.878906 100.253906 7.074219 100.332031 7.300781 100.332031 L 7.363281 100.332031 C 7.476562 102.492188 7.578125 104.644531 7.691406 106.792969 C 7.691406 107.144531 7.691406 107.496094 7.691406 107.824219 C 7.699219 108.046875 7.78125 108.242188 7.9375 108.398438 C 8.097656 108.558594 8.289062 108.640625 8.515625 108.648438 L 10.492188 108.648438 C 10.71875 108.644531 10.910156 108.5625 11.070312 108.402344 C 11.230469 108.242188 11.3125 108.050781 11.3125 107.824219 L 11.621094 100.539062 C 11.628906 100.464844 11.628906 100.386719 11.621094 100.3125 L 38.839844 100.3125 C 38.941406 102.472656 39.050781 104.628906 39.167969 106.773438 C 39.167969 107.125 39.167969 107.472656 39.21875 107.804688 C 39.222656 108.027344 39.308594 108.21875 39.464844 108.378906 C 39.625 108.539062 39.816406 108.621094 40.042969 108.625 L 42.019531 108.625 C 42.242188 108.621094 42.433594 108.539062 42.59375 108.378906 C 42.753906 108.21875 42.835938 108.027344 42.839844 107.804688 L 43.148438 100.519531 C 43.144531 100.441406 43.144531 100.367188 43.148438 100.292969 L 43.757812 100.292969 C 43.875 102.453125 43.984375 104.605469 44.085938 106.753906 L 44.148438 107.78125 C 44.148438 108.007812 44.230469 108.203125 44.390625 108.363281 C 44.550781 108.519531 44.746094 108.601562 44.96875 108.605469 L 46.945312 108.605469 C 47.171875 108.601562 47.363281 108.519531 47.523438 108.359375 C 47.683594 108.199219 47.765625 108.007812 47.769531 107.78125 L 48.078125 100.496094 C 48.074219 100.421875 48.074219 100.347656 48.078125 100.269531 L 90.984375 100.269531 C 93.660156 100.269531 96.34375 100.332031 99.019531 100.332031 C 99.132812 102.460938 99.238281 104.601562 99.351562 106.734375 C 99.351562 107.082031 99.351562 107.433594 99.351562 107.761719 C 99.355469 107.988281 99.4375 108.179688 99.597656 108.339844 C 99.753906 108.496094 99.949219 108.578125 100.171875 108.585938 L 102.148438 108.585938 C 102.375 108.578125 102.566406 108.496094 102.722656 108.339844 C 102.882812 108.179688 102.964844 107.988281 102.972656 107.761719 L 103.28125 100.476562 C 103.28125 100.324219 103.28125 100.15625 103.28125 99.992188 C 103.4375 99.835938 103.515625 99.648438 103.515625 99.425781 L 103.660156 86.996094 C 103.730469 80.390625 103.804688 73.78125 103.886719 67.171875 L 103.886719 63.414062 L 103.960938 63.414062 C 104.183594 63.410156 104.375 63.328125 104.535156 63.167969 C 104.695312 63.007812 104.777344 62.816406 104.78125 62.589844 L 104.78125 61.285156 C 104.78125 61.082031 104.714844 60.90625 104.585938 60.75 C 104.457031 60.59375 104.292969 60.5 104.09375 60.460938 Z M 101.4375 107.042969 L 101.027344 107.042969 C 100.914062 104.890625 100.8125 102.730469 100.699219 100.578125 L 100.699219 100.394531 L 101.726562 100.394531 C 101.632812 102.546875 101.542969 104.683594 101.457031 106.835938 C 101.449219 106.902344 101.441406 106.972656 101.4375 107.042969 Z M 102.300781 70.875 L 84.8125 70.875 L 84.8125 63.519531 L 96.632812 63.519531 C 98.546875 63.519531 100.492188 63.621094 102.414062 63.578125 C 102.339844 66.007812 102.300781 68.441406 102.300781 70.875 Z M 44.394531 98.707031 C 44.394531 94.839844 44.394531 90.96875 44.394531 87.101562 L 44.269531 67.316406 L 44.269531 63.519531 L 62.914062 63.519531 L 62.914062 98.707031 Z M 26.6875 98.707031 L 26.6875 53.363281 C 31.097656 53.363281 35.515625 53.382812 39.9375 53.425781 L 43.734375 53.425781 L 43.734375 60.574219 L 43.078125 60.574219 C 42.851562 60.578125 42.660156 60.660156 42.5 60.820312 C 42.339844 60.980469 42.257812 61.171875 42.253906 61.398438 L 42.253906 62.664062 C 42.265625 62.941406 42.386719 63.164062 42.613281 63.324219 L 42.613281 75.09375 C 42.613281 81.707031 42.640625 88.320312 42.695312 94.929688 L 42.695312 98.675781 Z M 11.253906 98.707031 C 10.222656 98.707031 9.195312 98.613281 8.164062 98.707031 L 8.164062 53.433594 L 8.566406 53.433594 C 9.503906 53.433594 10.449219 53.433594 11.386719 53.433594 C 14.359375 53.433594 17.332031 53.433594 20.316406 53.433594 L 25.082031 53.433594 L 25.082031 88.039062 C 25.082031 91.585938 24.96875 95.15625 25.082031 98.707031 Z M 26.6875 17.238281 C 26.6875 13.6875 26.800781 10.117188 26.6875 6.566406 L 43.652344 6.566406 L 43.652344 25.859375 C 43.695312 30.085938 43.738281 34.316406 43.789062 38.554688 L 43.789062 51.808594 L 31.65625 51.726562 L 26.738281 51.726562 L 26.738281 17.238281 Z M 101.796875 19.078125 L 101.796875 25.035156 L 74.324219 25.035156 L 74.324219 6.609375 L 101.757812 6.609375 Z M 72.722656 23.359375 L 72.722656 25.035156 L 51.617188 25.035156 C 49.507812 25.035156 47.359375 24.914062 45.25 25.035156 L 45.25 6.609375 L 72.679688 6.609375 Z M 64.59375 87.152344 L 64.59375 63.519531 L 83.164062 63.519531 L 83.164062 98.707031 L 64.550781 98.707031 Z M 51.75 36.734375 C 49.695312 36.734375 47.511719 36.609375 45.402344 36.734375 L 45.300781 26.765625 L 95.417969 26.765625 C 97.476562 26.765625 99.679688 26.878906 101.796875 26.765625 L 101.796875 36.734375 Z M 8.175781 6.609375 L 25.039062 6.609375 L 25.039062 51.695312 C 20.511719 51.695312 15.980469 51.695312 11.449219 51.695312 C 10.417969 51.695312 9.390625 51.695312 8.289062 51.695312 L 8.125 51.695312 L 8.125 9.507812 C 8.125 8.605469 8.226562 7.554688 8.175781 6.609375 Z M 9.769531 106.855469 C 9.765625 106.933594 9.765625 107.007812 9.769531 107.082031 L 9.359375 107.082031 C 9.257812 104.933594 9.144531 102.773438 9.03125 100.621094 L 9.03125 100.394531 L 10.058594 100.394531 C 9.945312 102.515625 9.863281 104.664062 9.769531 106.816406 Z M 41.296875 106.855469 C 41.296875 106.929688 41.296875 107 41.296875 107.082031 L 40.894531 107.082031 C 40.78125 104.933594 40.667969 102.773438 40.566406 100.621094 C 40.5625 100.546875 40.5625 100.46875 40.566406 100.394531 L 41.597656 100.394531 Z M 46.234375 106.855469 C 46.234375 106.929688 46.234375 107 46.234375 107.082031 L 45.835938 107.082031 C 45.722656 104.933594 45.609375 102.773438 45.503906 100.621094 L 45.503906 100.394531 L 46.535156 100.394531 Z M 84.8125 98.707031 L 84.8125 72.519531 L 102.300781 72.519531 L 102.300781 75.125 C 102.234375 81.738281 102.160156 88.347656 102.078125 94.960938 C 102.078125 96.207031 102.078125 97.460938 102.078125 98.707031 Z M 84.8125 98.707031 " fill-opacity="1" fill-rule="nonzero"/><g clip-path="url(#c73806ddd0)"><path stroke-linecap="butt" transform="matrix(1.02893, 0, 0, 1.02893, -98.338802, 2.491933)" fill="none" stroke-linejoin="miter" d="M 196.740747 56.339087 L 139.68818 56.339087 L 139.68818 34.820991 L 188.331682 34.820991 C 190.59055 34.820991 192.921551 34.980441 195.16903 34.820991 L 195.279126 34.820991 C 195.499319 34.817195 195.689139 34.73747 195.840996 34.581817 C 195.996649 34.426164 196.076374 34.240139 196.08017 34.019947 L 196.08017 3.139885 C 196.087763 2.832375 195.954889 2.612182 195.681547 2.479308 L 195.681547 2.361619 L 107.779289 2.361619 C 106.150625 2.361619 104.510573 2.361619 102.878113 2.361619 L 102.66931 2.361619 C 102.449118 2.361619 102.263094 2.441344 102.10744 2.596997 C 101.951787 2.75265 101.872063 2.938674 101.868266 3.158867 L 101.868266 48.738659 C 101.860673 48.795605 101.860673 48.852551 101.868266 48.909498 L 101.868266 83.141797 C 101.868266 86.801544 101.731595 90.499255 101.868266 94.140019 L 101.868266 94.291876 C 101.868266 94.512068 101.947991 94.698093 102.103644 94.857542 C 102.259297 95.013195 102.449118 95.089124 102.66931 95.089124 L 102.730053 95.089124 C 102.840149 97.188543 102.938856 99.280369 103.048952 101.368399 C 103.048952 101.710076 103.048952 102.051754 103.048952 102.370653 C 103.056545 102.587049 103.13627 102.77687 103.288126 102.928727 C 103.44378 103.08438 103.629804 103.164104 103.849996 103.171697 L 105.770984 103.171697 C 105.991176 103.167901 106.1772 103.088176 106.332854 102.932523 C 106.488507 102.77687 106.568231 102.590845 106.568231 102.370653 L 106.868148 95.290334 C 106.875741 95.218202 106.875741 95.142274 106.868148 95.070142 L 133.321588 95.070142 C 133.420295 97.169561 133.526594 99.265183 133.640487 101.349417 C 133.640487 101.691094 133.640487 102.028976 133.68984 102.351671 C 133.693637 102.568067 133.777158 102.754091 133.929015 102.909744 C 134.084668 103.065398 134.270692 103.145122 134.490884 103.148919 L 136.411872 103.148919 C 136.628268 103.145122 136.814292 103.065398 136.969945 102.909744 C 137.125598 102.754091 137.205323 102.568067 137.20912 102.351671 L 137.509037 95.271352 C 137.50524 95.195423 137.50524 95.123292 137.509037 95.05116 L 138.101278 95.05116 C 138.21517 97.150579 138.32147 99.242405 138.420177 101.330435 L 138.480919 102.328893 C 138.480919 102.549085 138.560644 102.738906 138.716297 102.894559 C 138.871951 103.046416 139.061771 103.12614 139.278167 103.129937 L 141.199155 103.129937 C 141.419347 103.12614 141.605371 103.046416 141.761024 102.890762 C 141.916678 102.735109 141.996402 102.549085 142.000199 102.328893 L 142.300116 95.248573 C 142.296319 95.176441 142.296319 95.104309 142.300116 95.028381 L 183.999969 95.028381 C 186.600515 95.028381 189.208654 95.089124 191.8092 95.089124 C 191.919297 97.158171 192.0218 99.238608 192.131896 101.311453 C 192.131896 101.649334 192.131896 101.991011 192.131896 102.30991 C 192.135692 102.530103 192.215417 102.716127 192.37107 102.87178 C 192.522927 103.023637 192.712748 103.103362 192.929144 103.110955 L 194.850131 103.110955 C 195.070323 103.103362 195.256348 103.023637 195.408205 102.87178 C 195.563858 102.716127 195.643582 102.530103 195.651175 102.30991 L 195.951092 95.229591 C 195.951092 95.081531 195.951092 94.918285 195.951092 94.758835 C 196.102949 94.606979 196.178877 94.424751 196.178877 94.208355 L 196.319345 82.128153 C 196.38768 75.708411 196.459812 69.284872 196.539537 62.861333 L 196.539537 59.209179 L 196.611669 59.209179 C 196.828065 59.205383 197.014089 59.125658 197.169742 58.970005 C 197.325395 58.814352 197.40512 58.628327 197.408917 58.408135 L 197.408917 57.140131 C 197.408917 56.942718 197.344378 56.771879 197.219096 56.620022 C 197.093814 56.468165 196.934364 56.377051 196.740747 56.339087 Z M 194.159183 101.61137 L 193.760559 101.61137 C 193.650463 99.519543 193.551756 97.420124 193.44166 95.328298 L 193.44166 95.149866 L 194.440118 95.149866 C 194.349004 97.241693 194.261686 99.318333 194.178165 101.410159 C 194.170572 101.474699 194.162979 101.543034 194.159183 101.61137 Z M 194.998191 66.460337 L 178.001629 66.460337 L 178.001629 59.311682 L 189.489589 59.311682 C 191.349834 59.311682 193.24045 59.410389 195.108287 59.368629 C 195.036156 61.730001 194.998191 64.095169 194.998191 66.460337 Z M 138.720094 93.509814 C 138.720094 89.75136 138.720094 85.98911 138.720094 82.230657 L 138.598608 63.0018 L 138.598608 59.311682 L 156.718911 59.311682 L 156.718911 93.509814 Z M 121.510932 93.509814 L 121.510932 49.440996 C 125.797088 49.440996 130.090836 49.459978 134.388381 49.501739 L 138.078499 49.501739 L 138.078499 56.449183 L 137.440701 56.449183 C 137.220509 56.45298 137.034484 56.532705 136.878831 56.688358 C 136.723178 56.844011 136.643453 57.030035 136.639657 57.250228 L 136.639657 58.480267 C 136.651046 58.749813 136.768735 58.966208 136.988927 59.121861 L 136.988927 70.560468 C 136.988927 76.987804 137.015502 83.415139 137.068652 89.838678 L 137.068652 93.479443 Z M 106.511285 93.509814 C 105.509031 93.509814 104.510573 93.4187 103.508319 93.509814 L 103.508319 49.509332 L 103.89935 49.509332 C 104.81049 49.509332 105.729223 49.509332 106.640363 49.509332 C 109.529437 49.509332 112.418511 49.509332 115.318974 49.509332 L 119.950604 49.509332 L 119.950604 83.141797 C 119.950604 86.588944 119.840508 90.05887 119.950604 93.509814 Z M 121.510932 14.331724 C 121.510932 10.88078 121.621028 7.410855 121.510932 3.959911 L 137.998774 3.959911 L 137.998774 22.710418 C 138.040535 26.818142 138.082296 30.929663 138.131649 35.048776 L 138.131649 47.930022 L 126.339975 47.850297 L 121.560285 47.850297 L 121.560285 14.331724 Z M 194.508453 16.119837 L 194.508453 21.909374 L 167.808247 21.909374 L 167.808247 4.001671 L 194.470489 4.001671 Z M 166.251716 20.280711 L 166.251716 21.909374 L 145.73967 21.909374 C 143.689605 21.909374 141.601575 21.791685 139.551509 21.909374 L 139.551509 4.001671 L 166.209955 4.001671 Z M 158.35137 82.28001 L 158.35137 59.311682 L 176.399541 59.311682 L 176.399541 93.509814 L 158.30961 93.509814 Z M 145.868749 33.279645 C 143.871833 33.279645 141.749635 33.15816 139.69957 33.279645 L 139.600863 23.591187 L 188.308903 23.591187 C 190.309615 23.591187 192.450795 23.701283 194.508453 23.591187 L 194.508453 33.279645 Z M 103.519708 4.001671 L 119.908844 4.001671 L 119.908844 47.819926 C 115.508795 47.819926 111.104951 47.819926 106.701106 47.819926 C 105.698852 47.819926 104.700394 47.819926 103.629804 47.819926 L 103.470354 47.819926 L 103.470354 6.818613 C 103.470354 5.941641 103.569061 4.920404 103.519708 4.001671 Z M 105.068646 101.429142 C 105.06485 101.50507 105.06485 101.577202 105.068646 101.649334 L 104.670023 101.649334 C 104.571316 99.561304 104.46122 97.461885 104.351123 95.370059 L 104.351123 95.149866 L 105.349581 95.149866 C 105.239485 97.211321 105.15976 99.299351 105.068646 101.391177 Z M 135.709534 101.429142 C 135.709534 101.501273 135.709534 101.569609 135.709534 101.649334 L 135.318503 101.649334 C 135.208407 99.561304 135.098311 97.461885 134.999604 95.370059 C 134.995808 95.297927 134.995808 95.221998 134.999604 95.149866 L 136.001859 95.149866 Z M 140.508207 101.429142 C 140.508207 101.501273 140.508207 101.569609 140.508207 101.649334 L 140.120972 101.649334 C 140.010876 99.561304 139.90078 97.461885 139.798276 95.370059 L 139.798276 95.149866 L 140.800531 95.149866 Z M 178.001629 93.509814 L 178.001629 68.058629 L 194.998191 68.058629 L 194.998191 70.59084 C 194.933652 77.018175 194.86152 83.441714 194.781796 89.869049 C 194.781796 91.080107 194.781796 92.298757 194.781796 93.509814 Z M 178.001629 93.509814 " stroke="#353130" stroke-width="0.5" stroke-opacity="1" stroke-miterlimit="10"/></g><path stroke-linecap="butt" transform="matrix(1.02893, 0, 0, 1.02893, -98.338802, 2.491933)" fill-opacity="1" fill="#2b2a2a" fill-rule="nonzero" stroke-linejoin="miter" d="M 107.198437 45.659764 L 116.199743 45.659764 C 116.419936 45.659764 116.609757 45.580039 116.76541 45.424386 C 116.921063 45.268733 117.000788 45.082708 117.000788 44.85872 C 117.000788 44.638528 116.921063 44.448707 116.76541 44.293054 C 116.609757 44.1374 116.419936 44.061472 116.199743 44.061472 L 107.198437 44.061472 C 106.978245 44.061472 106.79222 44.1374 106.632771 44.293054 C 106.477117 44.448707 106.401189 44.638528 106.401189 44.85872 C 106.401189 45.082708 106.477117 45.268733 106.632771 45.424386 C 106.79222 45.580039 106.978245 45.659764 107.198437 45.659764 Z M 107.198437 45.659764 " stroke="#353130" stroke-width="0.5" stroke-opacity="1" stroke-miterlimit="10"/><path stroke-linecap="butt" transform="matrix(1.02893, 0, 0, 1.02893, -98.338802, 2.491933)" fill-opacity="1" fill="#2b2a2a" fill-rule="nonzero" stroke-linejoin="miter" d="M 116.249097 51.741625 L 107.251587 51.741625 C 107.027598 51.741625 106.841573 51.817554 106.68592 51.973207 C 106.526471 52.12886 106.450542 52.318681 106.450542 52.538873 C 106.450542 52.759065 106.526471 52.948886 106.68592 53.104539 C 106.841573 53.260192 107.027598 53.339917 107.251587 53.339917 L 116.249097 53.339917 C 116.469289 53.339917 116.65911 53.260192 116.814763 53.104539 C 116.970416 52.948886 117.050141 52.759065 117.050141 52.538873 C 117.050141 52.318681 116.970416 52.12886 116.814763 51.973207 C 116.65911 51.817554 116.469289 51.741625 116.249097 51.741625 Z M 116.249097 51.741625 " stroke="#353130" stroke-width="0.5" stroke-opacity="1" stroke-miterlimit="10"/><path stroke-linecap="butt" transform="matrix(1.02893, 0, 0, 1.02893, -98.338802, 2.491933)" fill-opacity="1" fill="#2b2a2a" fill-rule="nonzero" stroke-linejoin="miter" d="M 125.440224 45.659764 L 134.490884 45.659764 C 134.711077 45.659764 134.900897 45.580039 135.056551 45.424386 C 135.212204 45.268733 135.288132 45.082708 135.288132 44.85872 C 135.288132 44.638528 135.212204 44.448707 135.056551 44.293054 C 134.900897 44.1374 134.711077 44.061472 134.490884 44.061472 L 125.440224 44.061472 C 125.220032 44.061472 125.030211 44.1374 124.874558 44.293054 C 124.718905 44.448707 124.63918 44.638528 124.63918 44.85872 C 124.63918 45.082708 124.718905 45.268733 124.874558 45.424386 C 125.030211 45.580039 125.220032 45.659764 125.440224 45.659764 Z M 125.440224 45.659764 " stroke="#353130" stroke-width="0.5" stroke-opacity="1" stroke-miterlimit="10"/><path stroke-linecap="butt" transform="matrix(1.02893, 0, 0, 1.02893, -98.338802, 2.491933)" fill-opacity="1" fill="#2b2a2a" fill-rule="nonzero" stroke-linejoin="miter" d="M 148.351606 20.219968 L 157.398469 20.219968 C 157.622458 20.219968 157.808483 20.140243 157.964136 19.98459 C 158.123585 19.828937 158.199514 19.639116 158.199514 19.418924 C 158.199514 19.198732 158.123585 19.008911 157.964136 18.853258 C 157.808483 18.697605 157.622458 18.621676 157.398469 18.621676 L 148.351606 18.621676 C 148.127617 18.621676 147.941593 18.697605 147.78594 18.853258 C 147.62649 19.008911 147.550562 19.198732 147.550562 19.418924 C 147.550562 19.639116 147.62649 19.828937 147.78594 19.98459 C 147.941593 20.140243 148.127617 20.219968 148.351606 20.219968 Z M 148.351606 20.219968 " stroke="#353130" stroke-width="0.5" stroke-opacity="1" stroke-miterlimit="10"/><path stroke-linecap="butt" transform="matrix(1.02893, 0, 0, 1.02893, -98.338802, 2.491933)" fill-opacity="1" fill="#2b2a2a" fill-rule="nonzero" stroke-linejoin="miter" d="M 152.880732 61.88945 L 143.818683 61.88945 C 143.598491 61.88945 143.412466 61.969175 143.256813 62.124828 C 143.10116 62.280481 143.021435 62.470302 143.021435 62.690494 C 143.021435 62.910686 143.10116 63.100507 143.256813 63.25616 C 143.412466 63.411814 143.598491 63.487742 143.818683 63.491538 L 152.880732 63.491538 C 153.100924 63.487742 153.286949 63.411814 153.442602 63.25616 C 153.598255 63.100507 153.67798 62.910686 153.67798 62.690494 C 153.67798 62.470302 153.598255 62.280481 153.442602 62.124828 C 153.286949 61.969175 153.100924 61.88945 152.880732 61.88945 Z M 152.880732 61.88945 " stroke="#353130" stroke-width="0.5" stroke-opacity="1" stroke-miterlimit="10"/><path stroke-linecap="butt" transform="matrix(1.02893, 0, 0, 1.02893, -98.338802, 2.491933)" fill-opacity="1" fill="#2b2a2a" fill-rule="nonzero" stroke-linejoin="miter" d="M 171.859025 61.88945 L 162.800772 61.88945 C 162.58058 61.88945 162.390759 61.969175 162.235106 62.124828 C 162.079453 62.280481 162.003524 62.470302 162.003524 62.690494 C 162.003524 62.910686 162.079453 63.100507 162.235106 63.25616 C 162.390759 63.411814 162.58058 63.487742 162.800772 63.491538 L 171.859025 63.491538 C 172.079217 63.487742 172.269038 63.411814 172.424691 63.25616 C 172.580344 63.100507 172.656273 62.910686 172.656273 62.690494 C 172.656273 62.470302 172.580344 62.280481 172.424691 62.124828 C 172.269038 61.969175 172.079217 61.88945 171.859025 61.88945 Z M 171.859025 61.88945 " stroke="#353130" stroke-width="0.5" stroke-opacity="1" stroke-miterlimit="10"/><path stroke-linecap="butt" transform="matrix(1.02893, 0, 0, 1.02893, -98.338802, 2.491933)" fill-opacity="1" fill="#2b2a2a" fill-rule="nonzero" stroke-linejoin="miter" d="M 191.000563 61.308598 L 181.938514 61.308598 C 181.718322 61.312395 181.532297 61.388323 181.376644 61.543976 C 181.220991 61.699629 181.141266 61.88945 181.141266 62.109642 C 181.141266 62.329835 181.220991 62.519655 181.376644 62.675309 C 181.532297 62.830962 181.718322 62.910686 181.938514 62.910686 L 191.000563 62.910686 C 191.220756 62.910686 191.40678 62.830962 191.562433 62.675309 C 191.718086 62.519655 191.797811 62.329835 191.797811 62.109642 C 191.797811 61.88945 191.718086 61.699629 191.562433 61.543976 C 191.40678 61.388323 191.220756 61.312395 191.000563 61.308598 Z M 191.000563 61.308598 " stroke="#353130" stroke-width="0.5" stroke-opacity="1" stroke-miterlimit="10"/><path stroke-linecap="butt" transform="matrix(1.02893, 0, 0, 1.02893, -98.338802, 2.491933)" fill-opacity="1" fill="#2b2a2a" fill-rule="nonzero" stroke-linejoin="miter" d="M 191.000563 70.359258 L 181.938514 70.359258 C 181.733508 70.382037 181.562669 70.469354 181.425998 70.625007 C 181.289327 70.776864 181.220991 70.959092 181.220991 71.164099 C 181.220991 71.372902 181.289327 71.551333 181.425998 71.70319 C 181.562669 71.858843 181.733508 71.946161 181.938514 71.968939 L 191.000563 71.968939 C 191.20557 71.946161 191.376409 71.858843 191.51308 71.70319 C 191.649751 71.551333 191.721883 71.372902 191.721883 71.164099 C 191.721883 70.959092 191.649751 70.776864 191.51308 70.625007 C 191.376409 70.469354 191.20557 70.382037 191.000563 70.359258 Z M 191.000563 70.359258 " stroke="#353130" stroke-width="0.5" stroke-opacity="1" stroke-miterlimit="10"/><path stroke-linecap="butt" transform="matrix(1.02893, 0, 0, 1.02893, -98.338802, 2.491933)" fill-opacity="1" fill="#2b2a2a" fill-rule="nonzero" stroke-linejoin="miter" d="M 177.158824 20.219968 L 186.209484 20.219968 C 186.429676 20.219968 186.619497 20.140243 186.77515 19.98459 C 186.930804 19.828937 187.010528 19.639116 187.010528 19.418924 C 187.010528 19.198732 186.930804 19.008911 186.77515 18.853258 C 186.619497 18.697605 186.429676 18.621676 186.209484 18.621676 L 177.158824 18.621676 C 176.938632 18.621676 176.748811 18.697605 176.593158 18.853258 C 176.437505 19.008911 176.361576 19.198732 176.361576 19.418924 C 176.361576 19.639116 176.437505 19.828937 176.593158 19.98459 C 176.748811 20.140243 176.938632 20.219968 177.158824 20.219968 Z M 177.158824 20.219968 " stroke="#353130" stroke-width="0.5" stroke-opacity="1" stroke-miterlimit="10"/><path stroke-linecap="butt" transform="matrix(1.02893, 0, 0, 1.02893, -98.338802, 2.491933)" fill-opacity="1" fill="#2b2a2a" fill-rule="nonzero" stroke-linejoin="miter" d="M 134.490884 51.741625 L 125.440224 51.741625 C 125.220032 51.741625 125.030211 51.817554 124.874558 51.973207 C 124.718905 52.12886 124.63918 52.318681 124.63918 52.538873 C 124.63918 52.759065 124.718905 52.948886 124.874558 53.104539 C 125.030211 53.260192 125.220032 53.339917 125.440224 53.339917 L 134.490884 53.339917 C 134.711077 53.339917 134.900897 53.260192 135.056551 53.104539 C 135.212204 52.948886 135.288132 52.759065 135.288132 52.538873 C 135.288132 52.318681 135.212204 52.12886 135.056551 51.973207 C 134.900897 51.817554 134.711077 51.741625 134.490884 51.741625 Z M 134.490884 51.741625 " stroke="#353130" stroke-width="0.5" stroke-opacity="1" stroke-miterlimit="10"/></svg>