<svg xmlns="http://www.w3.org/2000/svg" xmlns:xlink="http://www.w3.org/1999/xlink" width="50" zoomAndPan="magnify" viewBox="0 0 37.5 37.499999" height="50" preserveAspectRatio="xMidYMid meet" version="1.0"><defs><clipPath id="3f95230f72"><path d="M 0 0 L 37.007812 0 L 37.007812 37.007812 L 0 37.007812 Z M 0 0 " clip-rule="nonzero"/></clipPath></defs><g clip-path="url(#3f95230f72)"><path fill="#000000" d="M 31.503906 37.007812 L 5.5 37.007812 C 2.46875 37.007812 0 34.539062 0 31.503906 L 0 5.5 C 0 2.46875 2.46875 0 5.5 0 L 31.503906 0 C 34.539062 0 37.007812 2.46875 37.007812 5.5 L 37.007812 31.503906 C 37.007812 34.539062 34.539062 37.007812 31.503906 37.007812 Z M 5.5 2 C 3.570312 2 2 3.570312 2 5.5 L 2 31.503906 C 2 33.4375 3.570312 35.007812 5.5 35.007812 L 31.503906 35.007812 C 33.4375 35.007812 35.007812 33.4375 35.007812 31.503906 L 35.007812 5.5 C 35.007812 3.570312 33.4375 2 31.503906 2 Z M 5.5 2 " fill-opacity="1" fill-rule="nonzero"/></g><path fill="#000000" d="M 18.503906 29.003906 C 12.710938 29.003906 8 24.292969 8 18.503906 C 8 12.710938 12.710938 8 18.503906 8 C 24.292969 8 29.003906 12.710938 29.003906 18.503906 C 29.003906 24.292969 24.292969 29.003906 18.503906 29.003906 Z M 18.503906 10 C 13.816406 10 10 13.816406 10 18.503906 C 10 23.191406 13.816406 27.003906 18.503906 27.003906 C 23.191406 27.003906 27.003906 23.191406 27.003906 18.503906 C 27.003906 13.816406 23.191406 10 18.503906 10 Z M 18.503906 10 " fill-opacity="1" fill-rule="nonzero"/><path fill="#000000" d="M 29.503906 11.003906 C 27.574219 11.003906 26.003906 9.429688 26.003906 7.5 C 26.003906 5.570312 27.574219 4 29.503906 4 C 31.433594 4 33.007812 5.570312 33.007812 7.5 C 33.007812 9.429688 31.433594 11.003906 29.503906 11.003906 Z M 29.503906 6 C 28.679688 6 28.003906 6.675781 28.003906 7.5 C 28.003906 8.328125 28.679688 9 29.503906 9 C 30.332031 9 31.003906 8.328125 31.003906 7.5 C 31.003906 6.675781 30.332031 6 29.503906 6 Z M 29.503906 6 " fill-opacity="1" fill-rule="nonzero"/></svg>