<svg xmlns="http://www.w3.org/2000/svg" xmlns:xlink="http://www.w3.org/1999/xlink" width="50" zoomAndPan="magnify" viewBox="0 0 37.5 37.499999" height="50" preserveAspectRatio="xMidYMid meet" version="1.0"><defs><clipPath id="2f701cae81"><path d="M 0 0 L 37.007812 0 L 37.007812 37.007812 L 0 37.007812 Z M 0 0 " clip-rule="nonzero"/></clipPath><clipPath id="49c809f66a"><path d="M 18.503906 0 C 8.285156 0 0 8.285156 0 18.503906 C 0 28.722656 8.285156 37.007812 18.503906 37.007812 C 28.722656 37.007812 37.007812 28.722656 37.007812 18.503906 C 37.007812 8.285156 28.722656 0 18.503906 0 Z M 18.503906 0 " clip-rule="nonzero"/></clipPath><clipPath id="d2fb80e52b"><path d="M 11.554688 6.070312 L 25.617188 6.070312 L 25.617188 35.675781 L 11.554688 35.675781 Z M 11.554688 6.070312 " clip-rule="nonzero"/></clipPath></defs><g clip-path="url(#2f701cae81)"><g clip-path="url(#49c809f66a)"><path stroke-linecap="butt" transform="matrix(0.740132, 0, 0, 0.740132, 0.0000005, 0)" fill="none" stroke-linejoin="miter" d="M 25.000834 0 C 11.194167 0 -0.000000675556 11.194167 -0.000000675556 25.000835 C -0.000000675556 38.807503 11.194167 50.00167 25.000834 50.00167 C 38.807502 50.00167 50.001669 38.807503 50.001669 25.000835 C 50.001669 11.194167 38.807502 0 25.000834 0 Z M 25.000834 0 " stroke="#000000" stroke-width="6" stroke-opacity="1" stroke-miterlimit="4"/></g></g><g clip-path="url(#d2fb80e52b)"><path fill="#000001" d="M 22.238281 10.957031 L 25.445312 10.957031 L 25.445312 6.125 L 21.351562 6.125 L 21.351562 6.144531 C 15.972656 6.339844 14.863281 9.355469 14.769531 12.539062 L 14.757812 12.539062 L 14.757812 15.894531 L 11.554688 15.894531 L 11.554688 20.730469 L 14.757812 20.730469 L 14.757812 35.433594 L 20.507812 35.433594 L 20.507812 20.730469 L 24.628906 20.730469 L 25.445312 15.894531 L 20.507812 15.894531 L 20.507812 12.890625 C 20.507812 11.824219 21.222656 10.957031 22.238281 10.957031 Z M 22.238281 10.957031 " fill-opacity="1" fill-rule="nonzero"/></g></svg>