<svg xmlns="http://www.w3.org/2000/svg" xmlns:xlink="http://www.w3.org/1999/xlink" width="40" zoomAndPan="magnify" viewBox="0 0 30 30.000001" height="40" preserveAspectRatio="xMidYMid meet" version="1.0"><defs><clipPath id="5219e38ad9"><path d="M 4.851562 2.5 L 29.515625 2.5 L 29.515625 25 L 4.851562 25 Z M 4.851562 2.5 " clip-rule="nonzero"/></clipPath><clipPath id="c27499765e"><path d="M 0.816406 13.628906 L 8.800781 13.628906 L 8.800781 26.695312 L 0.816406 26.695312 Z M 0.816406 13.628906 " clip-rule="nonzero"/></clipPath></defs><path fill="#ffffff" d="M 21.554688 16.707031 L 17.710938 18.148438 C 17.429688 18.253906 17.246094 18.523438 17.246094 18.820312 L 17.246094 21.785156 C 17.246094 22.082031 17.542969 22.289062 17.824219 22.183594 L 21.664062 20.742188 C 21.945312 20.636719 22.128906 20.367188 22.128906 20.070312 L 22.128906 17.105469 C 22.128906 16.808594 21.832031 16.601562 21.554688 16.707031 Z M 21.554688 16.707031 " fill-opacity="1" fill-rule="nonzero"/><g clip-path="url(#5219e38ad9)"><path fill="#ffffff" d="M 29.175781 7.984375 C 29.175781 5.847656 27.433594 4.105469 25.296875 4.105469 C 24.296875 4.105469 23.386719 4.484375 22.699219 5.105469 L 15.859375 2.539062 C 15.777344 2.507812 15.6875 2.507812 15.605469 2.539062 L 5.085938 6.488281 C 4.945312 6.539062 4.851562 6.675781 4.851562 6.824219 L 4.851562 20.441406 C 4.851562 20.59375 4.945312 20.726562 5.085938 20.777344 L 15.605469 24.730469 C 15.648438 24.742188 15.691406 24.75 15.734375 24.75 C 15.773438 24.75 15.816406 24.742188 15.855469 24.726562 C 15.859375 24.726562 15.859375 24.730469 15.859375 24.730469 L 26.382812 20.777344 C 26.523438 20.726562 26.613281 20.59375 26.613281 20.441406 L 26.613281 11.636719 C 28.105469 11.09375 29.175781 9.664062 29.175781 7.984375 Z M 15.734375 3.257812 L 18.136719 4.160156 L 9.671875 8.113281 L 6.234375 6.824219 Z M 15.375 23.871094 L 5.570312 20.191406 L 5.570312 7.34375 L 9.234375 8.71875 L 9.234375 11.640625 C 9.234375 11.789062 9.324219 11.921875 9.464844 11.976562 L 11.339844 12.707031 C 11.382812 12.722656 11.425781 12.730469 11.46875 12.730469 C 11.542969 12.730469 11.613281 12.710938 11.671875 12.667969 C 11.769531 12.601562 11.828125 12.492188 11.828125 12.371094 L 11.828125 9.691406 L 15.375 11.023438 Z M 15.734375 10.390625 L 12.515625 9.183594 L 20.980469 5.226562 L 22.179688 5.675781 C 21.699219 6.324219 21.414062 7.121094 21.414062 7.984375 C 21.414062 8.074219 21.417969 8.164062 21.425781 8.253906 Z M 25.894531 20.191406 L 16.09375 23.871094 L 16.09375 11.023438 L 21.542969 8.976562 C 21.980469 10.636719 23.496094 11.867188 25.296875 11.867188 C 25.5 11.867188 25.699219 11.851562 25.894531 11.820312 Z M 25.296875 11.148438 C 23.550781 11.148438 22.132812 9.730469 22.132812 7.984375 C 22.132812 6.242188 23.550781 4.824219 25.296875 4.824219 C 27.039062 4.824219 28.457031 6.242188 28.457031 7.984375 C 28.457031 9.730469 27.039062 11.148438 25.296875 11.148438 Z M 25.296875 11.148438 " fill-opacity="1" fill-rule="nonzero"/></g><path fill="#ffffff" d="M 26.648438 6.777344 L 24.679688 8.746094 L 23.941406 8.011719 C 23.800781 7.871094 23.574219 7.871094 23.433594 8.011719 C 23.292969 8.152344 23.292969 8.378906 23.433594 8.519531 L 24.425781 9.511719 C 24.492188 9.578125 24.582031 9.617188 24.679688 9.617188 C 24.773438 9.617188 24.863281 9.578125 24.933594 9.511719 L 27.15625 7.289062 C 27.296875 7.148438 27.296875 6.917969 27.15625 6.777344 C 27.015625 6.636719 26.789062 6.636719 26.648438 6.777344 Z M 26.648438 6.777344 " fill-opacity="1" fill-rule="nonzero"/><g clip-path="url(#c27499765e)"><path fill="#ffffff" d="M 3.308594 23.058594 C 3.601562 23.367188 3.964844 23.566406 4.398438 23.652344 L 4.398438 20.691406 C 4.351562 20.671875 4.289062 20.652344 4.207031 20.628906 C 4.128906 20.605469 4.039062 20.582031 3.945312 20.5625 C 3.597656 20.46875 3.253906 20.359375 2.914062 20.230469 C 2.574219 20.101562 2.269531 19.933594 2 19.71875 C 1.730469 19.507812 1.515625 19.242188 1.355469 18.925781 C 1.195312 18.609375 1.113281 18.21875 1.113281 17.742188 C 1.113281 17.261719 1.207031 16.835938 1.390625 16.46875 C 1.574219 16.101562 1.816406 15.792969 2.121094 15.542969 C 2.421875 15.292969 2.769531 15.097656 3.167969 14.960938 C 3.5625 14.824219 3.976562 14.742188 4.398438 14.714844 L 4.398438 13.625 L 5.234375 13.625 L 5.234375 14.714844 C 5.660156 14.761719 6.058594 14.855469 6.433594 14.992188 C 6.804688 15.128906 7.132812 15.316406 7.417969 15.558594 C 7.699219 15.796875 7.929688 16.097656 8.109375 16.457031 C 8.289062 16.816406 8.394531 17.242188 8.421875 17.730469 L 6.410156 17.730469 C 6.402344 17.355469 6.285156 17.03125 6.058594 16.769531 C 5.832031 16.503906 5.554688 16.371094 5.234375 16.371094 L 5.234375 18.878906 C 5.351562 18.90625 5.464844 18.933594 5.582031 18.964844 C 5.703125 18.992188 5.828125 19.023438 5.957031 19.0625 C 6.65625 19.25 7.195312 19.484375 7.574219 19.761719 C 7.949219 20.042969 8.230469 20.332031 8.410156 20.632812 C 8.589844 20.9375 8.695312 21.238281 8.726562 21.539062 C 8.761719 21.84375 8.777344 22.113281 8.777344 22.347656 C 8.777344 22.554688 8.726562 22.816406 8.621094 23.132812 C 8.515625 23.449219 8.332031 23.757812 8.0625 24.0625 C 7.792969 24.363281 7.429688 24.632812 6.976562 24.871094 C 6.523438 25.105469 5.945312 25.246094 5.234375 25.292969 L 5.234375 26.496094 L 4.402344 26.496094 L 4.402344 25.292969 C 3.34375 25.21875 2.515625 24.894531 1.921875 24.316406 C 1.328125 23.742188 0.984375 22.894531 0.886719 21.78125 L 2.886719 21.78125 C 2.875 22.320312 3.015625 22.746094 3.308594 23.058594 Z M 3.933594 16.441406 C 3.78125 16.488281 3.644531 16.5625 3.523438 16.660156 C 3.398438 16.761719 3.304688 16.882812 3.230469 17.03125 C 3.160156 17.175781 3.125 17.347656 3.125 17.546875 C 3.125 17.859375 3.226562 18.097656 3.421875 18.269531 C 3.621094 18.4375 3.949219 18.574219 4.402344 18.679688 L 4.402344 16.371094 C 4.238281 16.371094 4.082031 16.394531 3.933594 16.441406 Z M 5.765625 23.53125 C 5.953125 23.46875 6.117188 23.382812 6.261719 23.269531 C 6.410156 23.15625 6.53125 23.015625 6.625 22.851562 C 6.71875 22.6875 6.765625 22.488281 6.765625 22.261719 C 6.765625 21.894531 6.648438 21.617188 6.417969 21.433594 C 6.1875 21.25 5.792969 21.082031 5.234375 20.933594 L 5.234375 23.652344 C 5.40625 23.632812 5.582031 23.59375 5.765625 23.53125 Z M 5.765625 23.53125 " fill-opacity="1" fill-rule="nonzero"/></g></svg>