<svg xmlns="http://www.w3.org/2000/svg" xmlns:xlink="http://www.w3.org/1999/xlink" width="40" zoomAndPan="magnify" viewBox="0 0 30 30.000001" height="40" preserveAspectRatio="xMidYMid meet" version="1.0"><defs><clipPath id="af70317d02"><path d="M 4 8.300781 L 29.515625 8.300781 L 29.515625 23.542969 L 4 23.542969 Z M 4 8.300781 " clip-rule="nonzero"/></clipPath><clipPath id="a314326be1"><path d="M 0.832031 12 L 11 12 L 11 14 L 0.832031 14 Z M 0.832031 12 " clip-rule="nonzero"/></clipPath></defs><g clip-path="url(#af70317d02)"><path fill="#ffffff" d="M 29.390625 15.105469 L 26.796875 11.1875 C 26.726562 11.082031 26.628906 11.027344 26.5 11.027344 L 22.164062 11.027344 L 22.585938 8.734375 C 22.605469 8.625 22.578125 8.527344 22.507812 8.441406 C 22.4375 8.359375 22.347656 8.316406 22.234375 8.316406 L 8.136719 8.316406 C 7.941406 8.316406 7.824219 8.410156 7.789062 8.605469 L 7.40625 10.691406 L 4.996094 10.691406 C 4.898438 10.691406 4.816406 10.726562 4.746094 10.796875 C 4.675781 10.867188 4.640625 10.949219 4.640625 11.046875 C 4.640625 11.144531 4.675781 11.230469 4.746094 11.296875 C 4.816406 11.367188 4.898438 11.402344 4.996094 11.402344 L 9.203125 11.402344 C 9.300781 11.402344 9.382812 11.367188 9.453125 11.296875 C 9.523438 11.230469 9.554688 11.144531 9.554688 11.046875 C 9.554688 10.949219 9.523438 10.867188 9.453125 10.796875 C 9.382812 10.726562 9.300781 10.691406 9.203125 10.691406 L 8.128906 10.691406 L 8.433594 9.023438 L 21.808594 9.023438 L 19.6875 20.574219 L 14.203125 20.574219 C 14.164062 20.21875 14.050781 19.894531 13.851562 19.601562 C 13.65625 19.304688 13.402344 19.070312 13.089844 18.902344 C 12.546875 18.613281 11.984375 18.574219 11.402344 18.773438 C 10.816406 18.976562 10.378906 19.355469 10.089844 19.90625 C 9.976562 20.117188 9.898438 20.339844 9.851562 20.574219 L 6.316406 20.574219 L 6.894531 17.425781 L 8.097656 17.425781 C 8.195312 17.425781 8.277344 17.390625 8.347656 17.324219 C 8.417969 17.253906 8.449219 17.167969 8.449219 17.070312 C 8.449219 16.972656 8.417969 16.890625 8.347656 16.820312 C 8.277344 16.75 8.195312 16.714844 8.097656 16.714844 L 4.644531 16.714844 C 4.546875 16.714844 4.460938 16.75 4.390625 16.820312 C 4.324219 16.890625 4.289062 16.972656 4.289062 17.070312 C 4.289062 17.167969 4.324219 17.253906 4.390625 17.324219 C 4.460938 17.390625 4.546875 17.425781 4.644531 17.425781 L 6.171875 17.425781 L 5.539062 20.867188 C 5.519531 20.972656 5.546875 21.070312 5.617188 21.15625 C 5.6875 21.242188 5.777344 21.285156 5.890625 21.285156 L 9.824219 21.285156 C 9.859375 21.636719 9.976562 21.964844 10.171875 22.257812 C 10.367188 22.554688 10.621094 22.789062 10.933594 22.957031 C 11.242188 23.121094 11.566406 23.203125 11.914062 23.199219 C 12.339844 23.195312 12.734375 23.082031 13.097656 22.855469 C 13.460938 22.632812 13.742188 22.332031 13.9375 21.953125 C 14.050781 21.742188 14.128906 21.519531 14.175781 21.285156 L 21.476562 21.285156 C 21.511719 21.636719 21.628906 21.964844 21.828125 22.257812 C 22.023438 22.554688 22.277344 22.789062 22.589844 22.957031 C 22.894531 23.121094 23.222656 23.203125 23.570312 23.199219 C 23.996094 23.195312 24.390625 23.082031 24.753906 22.855469 C 25.117188 22.632812 25.398438 22.332031 25.59375 21.953125 C 25.707031 21.742188 25.785156 21.519531 25.832031 21.285156 L 27.695312 21.285156 C 27.878906 21.285156 27.992188 21.195312 28.039062 21.015625 L 29.4375 15.390625 C 29.460938 15.289062 29.445312 15.195312 29.390625 15.105469 Z M 13.3125 21.617188 C 13.230469 21.804688 13.113281 21.96875 12.960938 22.109375 C 12.8125 22.246094 12.636719 22.351562 12.445312 22.417969 C 12.25 22.484375 12.050781 22.511719 11.847656 22.496094 C 11.640625 22.480469 11.449219 22.421875 11.269531 22.328125 C 11.085938 22.230469 10.933594 22.101562 10.804688 21.941406 C 10.675781 21.78125 10.585938 21.601562 10.535156 21.402344 C 10.480469 21.203125 10.472656 21.003906 10.503906 20.800781 C 10.535156 20.597656 10.605469 20.410156 10.714844 20.238281 C 10.914062 19.851562 11.21875 19.585938 11.632812 19.445312 C 11.785156 19.394531 11.945312 19.367188 12.105469 19.367188 C 12.335938 19.363281 12.554688 19.417969 12.757812 19.527344 C 12.929688 19.628906 13.082031 19.761719 13.203125 19.921875 C 13.324219 20.082031 13.414062 20.261719 13.464844 20.457031 C 13.515625 20.652344 13.53125 20.851562 13.503906 21.050781 C 13.476562 21.253906 13.414062 21.441406 13.3125 21.617188 Z M 24.964844 21.617188 C 24.882812 21.804688 24.765625 21.96875 24.617188 22.109375 C 24.464844 22.246094 24.292969 22.351562 24.097656 22.417969 C 23.90625 22.484375 23.707031 22.511719 23.5 22.496094 C 23.296875 22.480469 23.101562 22.421875 22.921875 22.328125 C 22.742188 22.230469 22.585938 22.101562 22.460938 21.941406 C 22.332031 21.78125 22.242188 21.601562 22.1875 21.402344 C 22.136719 21.203125 22.125 21.003906 22.15625 20.800781 C 22.1875 20.597656 22.257812 20.410156 22.367188 20.238281 C 22.570312 19.851562 22.875 19.589844 23.285156 19.449219 C 23.441406 19.394531 23.601562 19.367188 23.761719 19.367188 C 23.992188 19.367188 24.210938 19.421875 24.414062 19.527344 C 24.585938 19.632812 24.734375 19.761719 24.859375 19.925781 C 24.980469 20.085938 25.066406 20.261719 25.121094 20.460938 C 25.171875 20.65625 25.183594 20.851562 25.15625 21.054688 C 25.128906 21.253906 25.066406 21.441406 24.964844 21.617188 Z M 27.414062 20.570312 L 25.855469 20.570312 C 25.820312 20.21875 25.703125 19.894531 25.507812 19.597656 C 25.308594 19.304688 25.054688 19.070312 24.742188 18.902344 C 24.199219 18.613281 23.636719 18.570312 23.054688 18.773438 C 22.46875 18.976562 22.03125 19.355469 21.742188 19.90625 C 21.628906 20.117188 21.550781 20.339844 21.503906 20.574219 L 20.410156 20.574219 L 22.042969 11.738281 L 26.308594 11.738281 L 28.710938 15.367188 Z M 27.414062 20.570312 " fill-opacity="1" fill-rule="nonzero"/></g><path fill="#ffffff" d="M 25.699219 12.300781 L 22.984375 12.300781 C 22.789062 12.300781 22.671875 12.398438 22.636719 12.59375 L 22.222656 14.835938 C 22.203125 14.945312 22.226562 15.039062 22.296875 15.125 C 22.367188 15.210938 22.460938 15.253906 22.570312 15.253906 L 27.179688 15.25 C 27.320312 15.25 27.421875 15.1875 27.492188 15.0625 C 27.558594 14.941406 27.550781 14.816406 27.472656 14.699219 L 25.992188 12.464844 C 25.925781 12.355469 25.824219 12.304688 25.699219 12.300781 Z M 22.996094 14.542969 L 23.28125 13.011719 L 25.507812 13.011719 L 26.519531 14.542969 Z M 22.996094 14.542969 " fill-opacity="1" fill-rule="nonzero"/><g clip-path="url(#a314326be1)"><path fill="#ffffff" d="M 10.921875 13.210938 C 10.921875 13.113281 10.886719 13.027344 10.816406 12.960938 C 10.746094 12.890625 10.664062 12.855469 10.566406 12.855469 L 1.214844 12.855469 C 1.117188 12.855469 1.035156 12.890625 0.964844 12.960938 C 0.894531 13.027344 0.863281 13.113281 0.863281 13.210938 C 0.863281 13.308594 0.894531 13.390625 0.964844 13.460938 C 1.035156 13.53125 1.117188 13.566406 1.214844 13.566406 L 10.566406 13.566406 C 10.664062 13.566406 10.746094 13.53125 10.816406 13.460938 C 10.886719 13.390625 10.921875 13.308594 10.921875 13.210938 Z M 10.921875 13.210938 " fill-opacity="1" fill-rule="nonzero"/></g><path fill="#ffffff" d="M 9.714844 15.226562 C 9.714844 15.128906 9.679688 15.046875 9.609375 14.976562 C 9.539062 14.90625 9.457031 14.875 9.359375 14.875 L 2.765625 14.875 C 2.667969 14.875 2.582031 14.90625 2.515625 14.976562 C 2.445312 15.046875 2.410156 15.128906 2.410156 15.226562 C 2.410156 15.328125 2.445312 15.410156 2.515625 15.480469 C 2.582031 15.550781 2.667969 15.582031 2.765625 15.582031 L 9.359375 15.582031 C 9.457031 15.582031 9.539062 15.550781 9.609375 15.480469 C 9.679688 15.410156 9.714844 15.328125 9.714844 15.226562 Z M 9.714844 15.226562 " fill-opacity="1" fill-rule="nonzero"/></svg>