<svg xmlns="http://www.w3.org/2000/svg" xmlns:xlink="http://www.w3.org/1999/xlink" width="40" zoomAndPan="magnify" viewBox="0 0 30 30.000001" height="40" preserveAspectRatio="xMidYMid meet" version="1.0"><defs><clipPath id="a0ba5a0d5f"><path d="M 4.105469 3.628906 L 26.605469 3.628906 L 26.605469 25.402344 L 4.105469 25.402344 Z M 4.105469 3.628906 " clip-rule="nonzero"/></clipPath></defs><g clip-path="url(#a0ba5a0d5f)"><path fill="#ffffff" d="M 25.632812 13.617188 L 25.039062 14.5 L 12.140625 5.8125 L 12.734375 4.929688 C 13.007812 4.523438 13.5625 4.417969 13.96875 4.691406 L 25.390625 12.382812 C 25.796875 12.65625 25.90625 13.210938 25.632812 13.617188 Z M 21.476562 19.785156 L 22.132812 15.113281 L 23.847656 16.265625 Z M 20.265625 23.839844 C 20.195312 24.324219 19.746094 24.664062 19.261719 24.59375 L 5.621094 22.683594 C 5.136719 22.617188 4.796875 22.164062 4.867188 21.679688 L 5.703125 15.703125 L 21.101562 17.863281 Z M 6.148438 12.539062 C 6.214844 12.054688 6.664062 11.714844 7.148438 11.785156 L 20.789062 13.695312 C 21.273438 13.761719 21.613281 14.214844 21.542969 14.699219 L 21.398438 15.753906 L 5.996094 13.59375 Z M 10.953125 7.582031 L 18.621094 12.746094 L 8.433594 11.316406 Z M 25.75 11.855469 L 14.324219 4.160156 C 13.628906 3.691406 12.675781 3.875 12.203125 4.574219 L 7.726562 11.21875 L 7.238281 11.152344 C 6.402344 11.035156 5.628906 11.617188 5.511719 12.453125 L 4.234375 21.589844 C 4.117188 22.425781 4.699219 23.199219 5.53125 23.316406 L 19.171875 25.226562 C 20.007812 25.34375 20.78125 24.761719 20.898438 23.925781 L 21.277344 21.230469 L 26.160156 13.972656 C 26.632812 13.277344 26.445312 12.324219 25.75 11.855469 " fill-opacity="1" fill-rule="nonzero"/></g><path fill="#ffffff" d="M 13.066406 18.402344 L 19.644531 19.324219 L 19.714844 18.804688 L 13.140625 17.878906 L 13.066406 18.402344 " fill-opacity="1" fill-rule="nonzero"/><path fill="#ffffff" d="M 12.910156 19.527344 L 19.488281 20.449219 L 19.558594 19.925781 L 12.984375 19.003906 L 12.910156 19.527344 " fill-opacity="1" fill-rule="nonzero"/></svg>