<svg xmlns="http://www.w3.org/2000/svg" xmlns:xlink="http://www.w3.org/1999/xlink" width="50" zoomAndPan="magnify" viewBox="0 0 37.5 37.499999" height="50" preserveAspectRatio="xMidYMid meet" version="1.0"><defs><clipPath id="572632b8f3"><path d="M 7 4 L 34.636719 4 L 34.636719 35.34375 L 7 35.34375 Z M 7 4 " clip-rule="nonzero"/></clipPath><clipPath id="b3f685ba62"><path d="M 16 1.296875 L 19 1.296875 L 19 7 L 16 7 Z M 16 1.296875 " clip-rule="nonzero"/></clipPath><clipPath id="e5e26002b0"><path d="M 19 1.296875 L 22 1.296875 L 22 7 L 19 7 Z M 19 1.296875 " clip-rule="nonzero"/></clipPath><clipPath id="2b017cbb6b"><path d="M 14 1.296875 L 24 1.296875 L 24 4 L 14 4 Z M 14 1.296875 " clip-rule="nonzero"/></clipPath><clipPath id="be87626fcf"><path d="M 2.070312 17 L 14 17 L 14 21 L 2.070312 21 Z M 2.070312 17 " clip-rule="nonzero"/></clipPath></defs><g clip-path="url(#572632b8f3)"><path fill="#000000" d="M 10.847656 9.664062 C 13.09375 7.847656 15.953125 6.761719 19.066406 6.761719 C 26.289062 6.761719 32.152344 12.613281 32.152344 19.824219 C 32.152344 27.035156 26.289062 32.886719 19.066406 32.886719 C 15.195312 32.886719 11.714844 31.207031 9.316406 28.535156 C 8.878906 28.042969 8.125 28.003906 7.636719 28.441406 C 7.148438 28.878906 7.105469 29.628906 7.542969 30.117188 C 10.378906 33.277344 14.492188 35.265625 19.066406 35.265625 C 27.601562 35.265625 34.53125 28.34375 34.53125 19.824219 C 34.53125 11.304688 27.601562 4.386719 19.066406 4.386719 C 15.386719 4.386719 12.007812 5.671875 9.351562 7.816406 C 8.839844 8.226562 8.761719 8.976562 9.171875 9.488281 C 9.585938 9.996094 10.335938 10.074219 10.847656 9.664062 Z M 10.847656 9.664062 " fill-opacity="1" fill-rule="evenodd"/></g><g clip-path="url(#b3f685ba62)"><path fill="#000000" d="M 18.671875 5.574219 L 18.671875 2.40625 C 18.671875 1.75 18.136719 1.21875 17.480469 1.21875 C 16.824219 1.21875 16.292969 1.75 16.292969 2.40625 L 16.292969 5.574219 C 16.292969 6.226562 16.824219 6.761719 17.480469 6.761719 C 18.136719 6.761719 18.671875 6.226562 18.671875 5.574219 Z M 18.671875 5.574219 " fill-opacity="1" fill-rule="evenodd"/></g><g clip-path="url(#e5e26002b0)"><path fill="#000000" d="M 21.84375 5.574219 L 21.84375 2.40625 C 21.84375 1.75 21.3125 1.21875 20.652344 1.21875 C 19.996094 1.21875 19.464844 1.75 19.464844 2.40625 L 19.464844 5.574219 C 19.464844 6.226562 19.996094 6.761719 20.652344 6.761719 C 21.3125 6.761719 21.84375 6.226562 21.84375 5.574219 Z M 21.84375 5.574219 " fill-opacity="1" fill-rule="evenodd"/></g><path fill="#000000" d="M 29.425781 9.578125 L 31.667969 7.339844 C 32.132812 6.875 32.132812 6.125 31.667969 5.660156 C 31.207031 5.199219 30.453125 5.199219 29.988281 5.660156 L 27.746094 7.902344 C 27.28125 8.363281 27.28125 9.117188 27.746094 9.578125 C 28.207031 10.042969 28.960938 10.042969 29.425781 9.578125 Z M 29.425781 9.578125 " fill-opacity="1" fill-rule="evenodd"/><path fill="#000000" d="M 33.390625 7.109375 L 30.21875 3.941406 C 29.753906 3.476562 29 3.476562 28.539062 3.941406 C 28.074219 4.402344 28.074219 5.15625 28.539062 5.621094 L 31.710938 8.789062 C 32.171875 9.25 32.925781 9.25 33.390625 8.789062 C 33.855469 8.324219 33.855469 7.570312 33.390625 7.109375 Z M 33.390625 7.109375 " fill-opacity="1" fill-rule="evenodd"/><g clip-path="url(#2b017cbb6b)"><path fill="#000000" d="M 15.894531 3.59375 L 22.242188 3.59375 C 22.898438 3.59375 23.429688 3.0625 23.429688 2.40625 C 23.429688 1.75 22.898438 1.21875 22.242188 1.21875 L 15.894531 1.21875 C 15.238281 1.21875 14.707031 1.75 14.707031 2.40625 C 14.707031 3.0625 15.238281 3.59375 15.894531 3.59375 Z M 15.894531 3.59375 " fill-opacity="1" fill-rule="evenodd"/></g><path fill="#000000" d="M 17.878906 11.113281 L 17.878906 19.03125 C 17.878906 19.347656 18.003906 19.648438 18.226562 19.871094 L 22.984375 24.621094 C 23.449219 25.085938 24.203125 25.085938 24.667969 24.621094 C 25.132812 24.160156 25.132812 23.40625 24.667969 22.945312 L 20.257812 18.539062 C 20.257812 18.539062 20.257812 11.113281 20.257812 11.113281 C 20.257812 10.460938 19.726562 9.925781 19.066406 9.925781 C 18.410156 9.925781 17.878906 10.460938 17.878906 11.113281 Z M 17.878906 11.113281 " fill-opacity="1" fill-rule="evenodd"/><g clip-path="url(#be87626fcf)"><path fill="#000000" d="M 3.207031 20.21875 L 12.722656 20.21875 C 13.378906 20.21875 13.914062 19.6875 13.914062 19.03125 C 13.914062 18.378906 13.378906 17.84375 12.722656 17.84375 L 3.207031 17.84375 C 2.550781 17.84375 2.015625 18.378906 2.015625 19.03125 C 2.015625 19.6875 2.550781 20.21875 3.207031 20.21875 Z M 3.207031 20.21875 " fill-opacity="1" fill-rule="evenodd"/></g><path fill="#000000" d="M 7.964844 14.679688 L 12.722656 14.679688 C 13.378906 14.679688 13.914062 14.144531 13.914062 13.492188 C 13.914062 12.835938 13.378906 12.300781 12.722656 12.300781 L 7.964844 12.300781 C 7.308594 12.300781 6.777344 12.835938 6.777344 13.492188 C 6.777344 14.144531 7.308594 14.679688 7.964844 14.679688 Z M 7.964844 14.679688 " fill-opacity="1" fill-rule="evenodd"/><path fill="#000000" d="M 7.964844 25.761719 L 12.722656 25.761719 C 13.378906 25.761719 13.914062 25.230469 13.914062 24.574219 C 13.914062 23.917969 13.378906 23.386719 12.722656 23.386719 L 7.964844 23.386719 C 7.308594 23.386719 6.777344 23.917969 6.777344 24.574219 C 6.777344 25.230469 7.308594 25.761719 7.964844 25.761719 Z M 7.964844 25.761719 " fill-opacity="1" fill-rule="evenodd"/></svg>