<svg xmlns="http://www.w3.org/2000/svg" xmlns:xlink="http://www.w3.org/1999/xlink" width="40" zoomAndPan="magnify" viewBox="0 0 30 30.000001" height="40" preserveAspectRatio="xMidYMid meet" version="1.0"><defs><clipPath id="97af95c42d"><path d="M 4.113281 3.628906 L 25.886719 3.628906 L 25.886719 25.402344 L 4.113281 25.402344 Z M 4.113281 3.628906 " clip-rule="nonzero"/></clipPath></defs><path fill="#ffffff" d="M 13.144531 12.03125 C 11.113281 13.207031 14.214844 19.027344 16.441406 17.742188 L 18.503906 21.316406 C 17.566406 21.855469 16.769531 22.199219 15.683594 21.578125 C 12.660156 19.847656 9.332031 14.085938 9.425781 10.648438 C 9.460938 9.457031 10.164062 8.988281 11.082031 8.457031 Z M 13.144531 12.03125 " fill-opacity="1" fill-rule="evenodd"/><path fill="#ffffff" d="M 14 11.933594 C 13.78125 12.0625 13.496094 11.988281 13.371094 11.765625 L 11.425781 8.398438 C 11.296875 8.175781 11.371094 7.894531 11.59375 7.765625 L 12.613281 7.175781 C 12.835938 7.050781 13.117188 7.125 13.246094 7.34375 L 15.191406 10.714844 C 15.316406 10.933594 15.242188 11.21875 15.023438 11.34375 Z M 14 11.933594 " fill-opacity="1" fill-rule="evenodd"/><path fill="#ffffff" d="M 19.316406 21.140625 C 19.09375 21.269531 18.8125 21.191406 18.683594 20.972656 L 16.738281 17.601562 C 16.613281 17.382812 16.6875 17.101562 16.90625 16.972656 L 17.929688 16.382812 C 18.152344 16.257812 18.433594 16.332031 18.558594 16.550781 L 20.507812 19.921875 C 20.632812 20.140625 20.558594 20.425781 20.335938 20.550781 Z M 19.316406 21.140625 " fill-opacity="1" fill-rule="evenodd"/><g clip-path="url(#97af95c42d)"><path fill="#ffffff" d="M 14.996094 3.628906 L 14.996094 3.632812 C 18.003906 3.632812 20.722656 4.847656 22.691406 6.816406 C 24.660156 8.785156 25.878906 11.507812 25.878906 14.511719 C 25.878906 17.519531 24.660156 20.242188 22.691406 22.207031 C 20.722656 24.175781 18.003906 25.394531 14.996094 25.394531 C 11.988281 25.394531 9.269531 24.175781 7.300781 22.207031 C 5.332031 20.238281 4.117188 17.519531 4.117188 14.511719 L 4.113281 14.511719 L 4.117188 14.511719 C 4.117188 11.507812 5.332031 8.785156 7.300781 6.816406 C 9.269531 4.847656 11.988281 3.632812 14.996094 3.632812 Z M 14.996094 4.925781 L 14.996094 4.929688 L 14.996094 4.925781 C 12.351562 4.925781 9.957031 6 8.222656 7.738281 C 6.484375 9.472656 5.410156 11.867188 5.410156 14.511719 L 5.414062 14.511719 L 5.410156 14.511719 C 5.410156 17.15625 6.484375 19.554688 8.222656 21.289062 C 9.957031 23.023438 12.351562 24.097656 14.996094 24.097656 L 14.996094 24.09375 L 14.996094 24.097656 C 17.640625 24.097656 20.035156 23.023438 21.773438 21.289062 C 23.507812 19.554688 24.582031 17.15625 24.582031 14.511719 L 24.578125 14.511719 L 24.582031 14.511719 C 24.582031 11.867188 23.507812 9.472656 21.773438 7.738281 C 20.035156 6 17.640625 4.925781 14.996094 4.925781 Z M 14.996094 4.925781 " fill-opacity="1" fill-rule="nonzero"/></g></svg>