<svg xmlns="http://www.w3.org/2000/svg" xmlns:xlink="http://www.w3.org/1999/xlink" width="40" zoomAndPan="magnify" viewBox="0 0 30 30.000001" height="40" preserveAspectRatio="xMidYMid meet" version="1.0"><defs><clipPath id="e0dbb84d59"><path d="M 4.113281 3.628906 L 25.886719 3.628906 L 25.886719 25.402344 L 4.113281 25.402344 Z M 4.113281 3.628906 " clip-rule="nonzero"/></clipPath></defs><g clip-path="url(#e0dbb84d59)"><path fill="#ffffff" d="M 22.648438 25.402344 L 7.347656 25.402344 C 5.566406 25.402344 4.113281 23.953125 4.113281 22.167969 L 4.113281 6.867188 C 4.113281 5.082031 5.566406 3.628906 7.347656 3.628906 L 22.648438 3.628906 C 24.433594 3.628906 25.886719 5.082031 25.886719 6.867188 L 25.886719 22.167969 C 25.886719 23.953125 24.433594 25.402344 22.648438 25.402344 Z M 7.347656 4.804688 C 6.214844 4.804688 5.289062 5.730469 5.289062 6.867188 L 5.289062 22.167969 C 5.289062 23.300781 6.214844 24.226562 7.347656 24.226562 L 22.648438 24.226562 C 23.785156 24.226562 24.710938 23.300781 24.710938 22.167969 L 24.710938 6.867188 C 24.710938 5.730469 23.785156 4.804688 22.648438 4.804688 Z M 7.347656 4.804688 " fill-opacity="1" fill-rule="nonzero"/></g><path fill="#ffffff" d="M 15 20.695312 C 11.59375 20.695312 8.820312 17.921875 8.820312 14.515625 C 8.820312 11.109375 11.59375 8.335938 15 8.335938 C 18.40625 8.335938 21.179688 11.109375 21.179688 14.515625 C 21.179688 17.921875 18.40625 20.695312 15 20.695312 Z M 15 9.515625 C 12.242188 9.515625 9.996094 11.757812 9.996094 14.515625 C 9.996094 17.273438 12.242188 19.519531 15 19.519531 C 17.757812 19.519531 20.003906 17.273438 20.003906 14.515625 C 20.003906 11.757812 17.757812 9.515625 15 9.515625 Z M 15 9.515625 " fill-opacity="1" fill-rule="nonzero"/><path fill="#ffffff" d="M 21.472656 10.101562 C 20.335938 10.101562 19.414062 9.179688 19.414062 8.042969 C 19.414062 6.90625 20.335938 5.984375 21.472656 5.984375 C 22.609375 5.984375 23.53125 6.90625 23.53125 8.042969 C 23.53125 9.179688 22.609375 10.101562 21.472656 10.101562 Z M 21.472656 7.160156 C 20.988281 7.160156 20.589844 7.554688 20.589844 8.042969 C 20.589844 8.53125 20.988281 8.925781 21.472656 8.925781 C 21.960938 8.925781 22.355469 8.53125 22.355469 8.042969 C 22.355469 7.554688 21.960938 7.160156 21.472656 7.160156 Z M 21.472656 7.160156 " fill-opacity="1" fill-rule="nonzero"/></svg>