<svg xmlns="http://www.w3.org/2000/svg" xmlns:xlink="http://www.w3.org/1999/xlink" width="40" zoomAndPan="magnify" viewBox="0 0 30 30.000001" height="40" preserveAspectRatio="xMidYMid meet" version="1.0"><defs><clipPath id="f74c955f0a"><path d="M 9.855469 3.628906 L 20.015625 3.628906 L 20.015625 25.402344 L 9.855469 25.402344 Z M 9.855469 3.628906 " clip-rule="nonzero"/></clipPath></defs><g clip-path="url(#f74c955f0a)"><path fill="#ffffff" d="M 17.671875 7.242188 L 20.015625 7.242188 L 20.015625 3.664062 L 17.023438 3.664062 L 17.023438 3.679688 C 13.089844 3.824219 12.277344 6.054688 12.210938 8.414062 L 12.199219 8.414062 L 12.199219 10.898438 L 9.855469 10.898438 L 9.855469 14.480469 L 12.199219 14.480469 L 12.199219 25.367188 L 16.40625 25.367188 L 16.40625 14.480469 L 19.421875 14.480469 L 20.015625 10.898438 L 16.40625 10.898438 L 16.40625 8.675781 C 16.40625 7.886719 16.929688 7.242188 17.671875 7.242188 Z M 17.671875 7.242188 " fill-opacity="1" fill-rule="nonzero"/></g></svg>